<svg width="161" height="54" viewBox="0 0 161 54" fill="none" xmlns="http://www.w3.org/2000/svg">
<path d="M81.6602 50.5369L82.2746 49.2528C82.5175 49.5413 82.9502 49.7921 83.5844 49.7921C84.2086 49.7921 84.5306 49.5511 84.5306 49.1264C84.5306 48.5475 84.0447 48.4883 83.369 48.2868C82.2588 47.9687 81.67 47.4768 81.67 46.2026C81.67 44.8216 82.6144 44.146 83.9498 44.146C84.7124 44.146 85.3189 44.3198 85.7535 44.6004L85.1549 45.845C84.8764 45.6138 84.4951 45.4301 84.0111 45.4301C83.4204 45.4301 83.126 45.6237 83.126 46.0583C83.126 46.5028 83.4638 46.6273 84.1237 46.8011C85.554 47.1686 86.0657 47.6803 86.0657 48.9446C86.0657 50.2959 85.2339 51.0782 83.6476 51.0782C82.7625 51.0782 82.156 50.8649 81.6602 50.5369Z" fill="#A09744"/>
<path d="M75.8003 44.2446H77.4203L79.5203 48.3953H79.538V44.2446H81.0217V50.9813H79.4017L77.3017 46.7832H77.2839V50.9813H75.8003V44.2446Z" fill="#A09744"/>
<path d="M88.3275 44.2446H89.9296L92.1916 50.9813H90.548L90.1746 49.7742H88.0647L87.6834 50.9813H86.0654L88.3275 44.2446ZM88.4302 48.4704H89.8032L89.1335 46.1115H89.1157L88.4302 48.4704Z" fill="#A09744"/>
<path d="M92.5903 44.2446H94.2103L96.3123 48.3953H96.3301V44.2446H97.8117V50.9813H96.1938L94.0918 46.7832H94.076V50.9813H92.5903V44.2446Z" fill="#A09744"/>
<path d="M98.8198 50.9816V46.2205C98.8198 46.0486 98.9364 45.9518 99.13 45.9103L100.323 45.7246V50.9816H98.8198Z" fill="#A09744"/>
<path d="M98.8198 44.547C98.8198 44.3771 98.9581 44.2368 99.13 44.2368H100.323V45.0488C100.323 45.2206 100.215 45.3076 100.013 45.3589L98.8198 45.5446V44.547Z" fill="#A09744"/>
<path d="M73.3486 50.9816V46.2205C73.3486 46.0486 73.4652 45.9518 73.6588 45.9103L74.852 45.7246V50.9816H73.3486Z" fill="#A09744"/>
<path d="M73.3486 44.547C73.3486 44.3771 73.4869 44.2368 73.6588 44.2368H74.852V45.0488C74.852 45.2206 74.7434 45.3076 74.5419 45.3589L73.3486 45.5446V44.547Z" fill="#A09744"/>
<path d="M140.954 50.9814H139.234L137.061 44.2368H138.621L140.111 49.1461H140.127L141.549 44.2368H143.108L140.954 50.9814Z" fill="#A09744"/>
<path d="M144.583 44.2368H146.103L148.25 50.9834H146.689L146.336 49.7743H144.335L143.973 50.9834H142.438L144.583 44.2368ZM144.678 48.4685H145.98L145.344 46.1057H145.328L144.678 48.4685Z" fill="#A09744"/>
<path d="M148.659 44.2368H150.155V46.8248L152.045 44.2368H153.9L151.779 46.892L154.167 50.9814H152.31L150.765 48.1465L150.155 48.9031V50.9814H148.659V44.2368Z" fill="#A09744"/>
<path d="M154.594 44.2368H158.474V45.6434H156.087V47.0224H158.104V48.3835H156.087V50.9814H154.594V44.2368Z" fill="#A09744"/>
<path d="M158.975 50.9814H160.478V44.2368H159.402C159.159 44.2368 158.977 44.4284 158.977 44.711V50.9814H158.975Z" fill="#A09744"/>
<path d="M106.307 48.4704V50.9813H104.73V48.4704L102.527 44.2446H104.315L105.52 46.9808L106.723 44.2446H108.511L106.307 48.4704Z" fill="#A09744"/>
<path d="M109.849 44.2446H111.452L113.714 50.9813H112.07L111.697 49.7742H109.587L109.205 50.9813H107.587L109.849 44.2446ZM109.95 48.4704H111.323L110.653 46.1115H110.638L109.95 48.4704Z" fill="#A09744"/>
<path d="M119.925 44.2368H122.392C124.153 44.2368 125.205 45.4933 125.205 47.5814C125.205 49.7921 124.137 50.9834 122.392 50.9834H119.925V44.2368ZM121.42 49.4701H122.128C123.262 49.4424 123.712 48.9228 123.712 47.5716C123.712 46.3428 123.149 45.7481 122.128 45.7481H121.42V49.4701Z" fill="#A09744"/>
<path d="M128.463 44.2368H130.664L131.653 48.7332H131.669L132.659 44.2368H134.862V50.9814H133.455V45.8607H133.437L132.232 50.9814H131.09L129.885 45.8607H129.868V50.9814H128.463V44.2368Z" fill="#A09744"/>
<path d="M116.442 48.5139H115.807V50.9814H114.144V44.2368H116.424C118.036 44.2368 118.852 44.952 118.852 46.3033C118.852 47.1527 118.514 47.7513 117.951 48.1089L119.375 50.9814H117.611L116.442 48.5139ZM115.792 47.3068H116.321C116.935 47.3068 117.206 46.9986 117.206 46.4001C117.206 45.8015 116.937 45.4933 116.321 45.4933H115.792V47.3068Z" fill="#A09744"/>
<path d="M125.97 50.9814H127.473V44.2368H126.394C126.151 44.2368 125.97 44.4284 125.97 44.711V50.9814Z" fill="#A09744"/>
<path d="M113.427 2.47705C112.443 2.47705 111.649 3.2732 111.649 4.25506V16.3297H103.037C101.965 16.3297 101.159 16.9283 100.815 17.6671L99.2503 20.587V2.47705H90.1686C89.1868 2.47705 88.3926 3.2732 88.3926 4.25506V41.1368H97.4742C98.4561 41.1368 99.2522 40.3407 99.2522 39.3608V25.8203H111.651V41.1348H120.734C121.716 41.1348 122.512 40.3387 122.512 39.3588V2.47705H113.427Z" fill="#026839"/>
<path d="M151.397 2.47705C150.413 2.47705 149.619 3.2732 149.619 4.25506V16.3297H141.008C139.935 16.3297 139.129 16.9283 138.785 17.6671L137.22 20.587V2.47705H128.139C127.157 2.47705 126.363 3.2732 126.363 4.25506V41.1368H135.444C136.426 41.1368 137.222 40.3407 137.222 39.3608V25.8203H149.621V41.1348H158.705C159.687 41.1348 160.483 40.3387 160.483 39.3588V2.47705H151.397Z" fill="#026839"/>
<path d="M84.6074 39.3848C84.6074 40.3667 83.8112 41.1608 82.8293 41.1608H73.3486V13.8467C73.3486 12.8649 74.0183 12.3078 75.1266 12.0687L84.6074 11.0039V39.3848Z" fill="#026839"/>
<path d="M73.3486 4.2531C73.3486 3.27125 74.1448 2.4751 75.1266 2.4751H84.6074V7.13149C84.6074 8.11335 83.9811 8.61317 82.8293 8.91148L73.3486 9.97433V4.2531Z" fill="#026839"/>
<path d="M41.3842 20.7437C41.3842 20.7437 40.0625 20.8958 40.0625 22.1206C40.0625 23.0926 40.7875 23.6576 41.2893 23.709C41.8385 23.7663 42.8777 23.3929 42.8777 22.174C42.8757 20.7496 41.3842 20.7437 41.3842 20.7437Z" fill="#A09744"/>
<path d="M54.1206 18.6216C53.364 14.2773 51.1039 10.5198 50.9182 10.2255C47.8047 5.44461 42.8678 3.25964 42.3621 3.07196C41.8563 2.88231 40.2285 1.80958 39.4817 1.50732C38.7349 1.20703 36.6803 0.912676 36.3267 0.936383C35.981 0.960089 33.472 0.92848 33.0987 0.92848C32.7233 0.924529 30.9571 0.92848 30.6055 0.96404C28.2585 1.25445 25.9886 2.21259 25.3485 2.4062C24.7025 2.58795 24.4694 2.57807 24.2679 2.66105C19.6708 4.65636 16.9919 7.99901 16.9919 7.99901C16.9919 7.99901 15.1606 10.5416 15.0321 10.7589C12.2387 15.5437 12.1715 19.884 12.1142 20.7117C12.0589 21.5435 12.1597 23.4716 12.1597 23.7423C12.1597 24.007 12.2348 26.2334 12.2901 26.9842C12.3375 27.7349 12.5449 28.1142 12.946 28.4638C13.347 28.8076 14.2241 29.5642 14.2241 29.5642C14.2241 29.5642 14.4138 29.343 14.4968 29.1316C14.5758 28.9182 14.6627 28.4421 14.6094 28.1971C14.5481 27.9561 14.5797 27.6578 14.5797 27.6578L14.9195 27.6065L14.7971 27.2588C14.6884 27.0691 14.7971 26.8538 14.7635 26.7234C14.7417 26.589 14.475 25.8857 14.3209 25.0659C14.1589 24.2302 14.3249 23.8351 15.0163 23.3788C15.7137 22.9224 16.9959 22.9817 16.9959 22.9817C16.9959 22.9817 17.0235 22.9026 17.0235 22.713C17.0235 22.5273 16.7864 22.229 16.6284 22.1974C16.4625 22.1796 16.4091 22.146 16.174 22.0354C15.935 21.9326 16.1187 21.7687 16.1187 21.7687C16.3617 21.7687 16.3084 21.5869 16.3084 21.5869L16.3321 21.1266C16.3321 21.1266 16.0436 21.1543 15.7987 21.0476C14.882 20.6347 14.6844 19.1115 14.7101 18.6315C14.7417 18.1475 15.0401 16.6381 15.0914 16.3537C15.8026 12.5784 17.4858 10.4922 17.9975 10.0121C18.5072 9.52612 19.1433 9.95679 19.4712 10.0654C19.7853 10.18 20.0224 10.18 20.0224 10.18C20.0224 10.18 20.0777 9.96667 20.3247 9.77504C20.5617 9.59527 21.2848 9.3582 21.5574 9.22188C21.8202 9.08755 21.7431 8.9295 21.5831 8.79121C21.429 8.6549 21.103 8.39412 20.8304 8.3072C20.5736 8.22423 20.6487 8.04247 20.7553 7.88048L21.6898 6.86307C23.1161 5.48017 24.181 5.05148 24.9613 4.67612C25.7377 4.29879 26.7038 4.01431 26.7038 4.01431L26.7136 4.89738L26.3166 5.7528C25.5145 7.59797 23.9597 9.41549 23.9597 9.41549L23.0766 9.44315C22.9462 9.44315 22.3002 9.35622 21.7412 9.64465C21.1801 9.94099 21.3381 10.6107 21.3381 10.6107L21.6048 10.8557L21.4745 11.0434C21.4745 11.0434 22.1936 11.0177 22.5156 11.15C22.8297 11.2863 23.0964 11.958 23.0668 12.2228C23.043 12.4974 22.7941 13.7479 22.3694 15.115C21.9348 16.484 21.8478 17.8195 21.8696 18.5208C21.8992 19.2143 21.9269 19.641 21.7076 20.1823C21.4962 20.7098 20.7218 20.9547 20.133 20.9271C19.5404 20.8915 18.4736 20.9152 18.1041 20.9705C17.7288 21.0219 18.0231 21.1325 18.0231 21.1325L18.0508 21.4032L18.2839 21.8319L18.0429 22.31L17.9145 22.5253C18.442 22.5569 18.6613 23.0152 18.6613 23.0152C18.6613 23.0152 18.9517 22.956 19.327 23.0152C19.6984 23.0666 20.8798 23.438 21.2473 23.7106C21.6226 23.9813 21.8083 24.3527 21.7688 24.5503C21.7471 24.7281 21.8004 25.4096 21.7649 25.6724C21.5555 27.889 22.241 28.938 22.5334 29.4773C22.8238 30.0087 23.0411 30.9234 23.1122 31.7038C23.1952 32.4782 22.6618 32.5868 21.8854 33.0926C21.109 33.6003 18.9655 34.6651 18.9655 34.6651C18.9655 34.6651 18.5427 34.6651 17.6162 33.5667C16.6778 32.4604 16.0436 30.4493 16.0199 30.2043C15.9962 29.9672 16.0436 29.5939 15.5379 29.8823C15.0302 30.1747 15.2751 30.6389 15.3759 31.0874C15.4786 31.5516 15.3759 31.7077 15.2139 31.7611C15.0499 31.8104 14.4671 31.0044 14.2004 30.8207C13.9258 30.631 14.0226 31.0341 14.0404 31.2454C14.1175 32.6994 14.9907 33.788 15.1764 34.0112C19.5167 39.1101 25.9432 41.6033 27.2056 42.0577C28.4581 42.5219 29.2819 42.4666 29.6869 42.4706L31.5715 42.4804L31.5893 42.5121L32.2946 42.6306L32.7648 42.3955L32.8399 41.8601C32.6877 41.4136 32.4428 40.7103 32.1208 39.8213C31.3068 37.5791 32.2255 34.436 32.3677 33.9757C32.7905 32.3735 33.6716 30.3446 35.2639 27.7447C36.947 24.9948 37.5061 22.4937 36.9312 20.3107C36.631 19.1708 36.064 18.3154 35.5227 17.7148C35.5503 17.7267 35.576 17.7346 35.6056 17.7464C36.2892 18.0072 37.2276 18.3668 38.8159 18.1297C39.3632 18.0487 39.9361 17.9321 40.4892 17.8195C43.7627 17.1557 46.8525 16.5295 48.6266 21.2906C49.0039 22.304 49.1995 23.3985 49.4089 24.5562C49.7842 26.6582 50.2683 29.0703 51.9277 31.119L52.6607 29.5583C52.9234 28.9913 53.038 28.6495 53.0755 28.5626C54.2391 26.0122 54.1344 24.1433 54.0021 23.7897C53.8717 23.4459 54.1344 23.2306 54.3754 22.6715C54.6165 22.1065 54.1581 18.833 54.1206 18.6216ZM26.2316 10.0477C26.3976 9.29893 27.494 6.1084 29.6967 3.67451C29.8864 3.4651 30.4712 3.06209 30.9828 3.03245C31.4846 3.0127 31.5636 3.68241 31.6664 3.89775C31.7731 4.10716 31.941 5.02579 31.8224 5.34781C31.7177 5.66785 31.5794 6.25459 31.5261 6.7149C31.4728 7.16928 31.6348 7.45968 31.7612 7.78368C31.9015 8.10174 32.0299 8.50871 32.2373 8.47907C32.4546 8.45339 32.7233 8.2104 32.9386 8.05235C33.1599 7.89826 33.6637 7.52488 33.717 6.9006C33.7703 6.28225 33.64 5.93455 33.5609 5.59475C33.4799 5.24311 33.4799 4.9764 33.4602 4.54178C33.4325 4.11704 33.5846 3.95899 33.5846 3.95899C33.5846 3.95899 33.5846 3.63895 33.8336 3.26162C34.0726 2.88429 34.4282 2.8349 34.61 2.88429C34.7957 2.94553 35.4654 3.12926 36.3959 4.71365C36.5164 4.93097 37.113 6.05901 37.7748 7.74812C37.8894 8.0405 38.0909 9.03223 38.4406 9.59724C38.7902 10.1642 39.1024 10.911 39.1024 10.911C39.1024 10.911 37.7689 11.4661 36.4057 11.6518C36.0699 11.6992 35.0406 11.8138 34.5843 11.5372C34.1378 11.2725 34.1062 10.8399 34.1378 10.6818L34.0035 10.0082C34.0035 9.84814 33.7427 9.05001 33.3693 8.67268C32.988 8.29535 32.988 8.50673 33.0749 8.69639C33.152 8.88604 33.3081 9.96074 32.909 9.97852L32.7213 9.78887C32.589 9.63478 32.3499 9.63478 32.1069 9.60119C31.8718 9.57551 31.8126 9.75924 31.8382 9.97457C31.8639 10.1879 31.8303 10.9663 31.8303 10.9663C31.8303 10.9663 31.8303 11.798 30.73 11.8178C29.6474 11.8454 28.7109 11.3851 27.8022 11.1915C26.8934 11.0019 26.4608 10.7925 26.4608 10.7925C26.4608 10.7925 26.0696 10.7885 26.2316 10.0477ZM38.0237 5.73897C38.0237 5.73897 39.2723 7.16533 39.6713 8.36844C40.0704 9.57749 40.3351 9.84616 40.3351 9.84616C40.3351 9.84616 39.7523 9.96074 38.9522 8.33683C38.5492 7.53673 38.4011 6.72873 38.2628 6.40078C38.1265 6.08667 38.0237 5.73897 38.0237 5.73897ZM22.8988 29.256C22.6934 28.8511 22.6223 28.2623 22.4563 27.8573C22.2943 27.4543 22.156 26.8597 22.156 26.8597C22.156 26.8597 22.0158 26.2927 22.4405 26.2927C22.8652 26.2927 22.8435 26.4172 23.0351 26.674C23.2129 26.9348 23.3335 27.2706 23.4283 27.3654V27.8811L23.3058 28.3591C23.3809 28.5251 23.3275 28.4757 23.4263 28.7641C23.5152 29.0506 23.614 29.3983 23.7049 29.6433C23.8036 29.8843 23.859 30.2102 23.8432 30.4256C23.8155 30.633 23.7483 30.9452 23.7246 31.2731C23.7009 31.603 23.5804 31.9784 23.5804 31.9784C23.5804 31.9784 23.448 31.769 23.448 31.4114C23.448 31.0637 23.3986 30.7041 23.2525 30.4177C23.1142 30.1352 23.1142 29.6551 22.8988 29.256ZM26.931 39.6949C26.6781 39.6475 26.198 39.6238 25.5658 39.4085C24.9297 39.1911 23.7938 38.478 22.6183 37.6897C21.4389 36.9054 20.6645 36.3108 20.6645 36.3108C20.6645 36.3108 20.1133 36.1685 20.5854 35.8584C21.0675 35.5522 22.9344 34.5426 23.2426 34.3965C23.5468 34.2601 24.1178 33.948 24.7993 34.8489C25.4809 35.7556 26.4232 37.7905 26.6978 38.4167C26.9843 39.0291 27.2905 39.6475 27.2905 39.6475C27.2905 39.6475 27.2016 39.7443 26.931 39.6949ZM30.9769 33.462C30.0958 36.0757 30.3447 39.4282 30.4395 40.3706C30.406 40.3785 30.3744 40.3923 30.3388 40.3962C30.0306 40.4318 29.2562 40.1552 28.379 38.3752C28.1637 37.913 27.5394 36.5696 27.0001 35.242C26.4548 33.9085 26.1249 33.5114 26.1249 33.5114C26.1249 33.5114 25.9886 33.3415 26.2257 33.223C26.4548 33.0985 27.7153 32.5651 27.9938 32.4229C28.2842 32.2826 28.8551 32.0199 29.1791 32.0021C29.515 31.9803 30.2124 32.0021 30.5502 32.0317C30.8781 32.0554 30.8722 31.8934 31.1705 32.1601C31.1745 32.1641 31.2871 32.2253 31.4076 32.2925C31.2535 32.6817 31.1093 33.0728 30.9769 33.462ZM31.3918 29.667C30.9848 29.6828 30.5126 29.7776 29.9457 29.8487C28.8097 29.9831 28.4067 30.392 27.6994 30.6488C26.9902 30.9076 26.279 31.2356 25.9412 31.2356L25.307 31.2277C25.307 31.2277 25.1628 30.8997 24.9514 30.4276C24.7361 29.9495 24.5287 29.2205 24.177 28.2643C23.8313 27.3141 23.6634 27.2706 23.6851 26.6977C23.7187 26.1347 23.6416 25.7751 23.6733 25.3978C23.6891 25.0185 23.8135 24.8782 23.697 24.6332C23.5725 24.3962 23.529 24.2539 23.4362 24.1907L23.2742 23.9576L23.3256 23.6217C23.4698 23.4736 23.8155 23.2444 24.8843 23.0073C25.9451 22.7742 26.6149 22.8454 27.0357 22.7821C27.4604 22.711 27.98 22.6616 28.4304 22.6715C28.8808 22.6715 29.2779 22.8098 30.0385 22.877C30.7952 22.956 31.0302 23.1437 31.4016 23.3096C31.7869 23.4874 31.9054 23.6494 31.8817 23.8845C31.8541 24.1176 31.8837 29.5465 31.8837 29.5465C31.8837 29.5465 31.781 29.6433 31.3918 29.667ZM34.5349 26.0932C34.5349 26.0932 34.3077 26.4626 33.958 27.075C33.8671 26.5317 33.7447 25.9154 33.7545 25.8363C33.7822 25.6902 33.7545 25.4057 33.7545 24.9533C33.7545 24.5009 33.9778 24.2697 34.1437 23.7936C34.3116 23.3195 34.9932 23.0449 35.333 22.8947C35.4081 22.8631 35.5977 22.7999 35.7597 22.7525C35.4911 24.5325 34.5349 26.0932 34.5349 26.0932ZM35.655 20.6268C34.9577 20.6209 34.3591 20.6189 34.2899 20.6189C34.0212 20.6189 33.4661 20.6742 33.1145 20.8046C32.7687 20.9389 32.5277 21.0456 32.346 21.018C32.1524 20.9943 31.3997 20.7769 31.1705 20.6643C30.9275 20.5557 30.6312 20.5023 30.4139 20.53C30.2025 20.5537 30.2321 20.5537 30.0919 20.6564L29.8508 20.854C29.8508 20.854 29.4281 20.5241 29.2127 20.5814C28.8492 20.6683 28.1439 20.6011 27.7706 20.6841C27.3932 20.7631 26.4568 20.8382 26.0834 20.8658C25.716 20.8935 25.145 20.7513 24.6215 20.6446C24.0842 20.5339 23.7365 20.5557 23.7365 20.5557L23.7661 19.9413C23.7898 19.8069 23.8688 19.8069 23.8432 19.4908C23.8234 19.1649 23.7898 18.9851 23.7681 18.5248C23.7463 18.0684 23.6634 17.7484 23.7187 17.454C23.772 17.1617 23.9024 16.4129 24.2343 15.2869C24.5504 14.1549 24.7717 13.4891 24.8823 13.1967C24.985 12.9004 25.0403 12.5784 25.3327 12.6337C25.635 12.689 27.3419 13.1216 27.7686 13.177C28.1953 13.2283 29.3392 13.5582 30.1728 13.7993C30.9927 14.0442 31.3918 14.3998 31.6565 14.5322C31.9331 14.6646 32.0299 14.6646 32.0101 14.9372C31.9825 15.2019 31.8955 15.9783 31.8126 16.3556C31.7375 16.727 31.9173 17.616 31.9667 17.9637C32.022 18.3114 32.4783 19.7655 32.4783 19.7655C32.4783 19.7655 32.7411 19.5205 32.9248 19.0918C33.1204 18.6611 33.1204 18.4221 33.3258 18.5584C33.5471 18.6927 33.9462 19.0424 33.9462 19.0424C33.9462 19.0424 33.9679 18.9081 33.9462 18.7164C33.9284 18.5979 33.9798 18.0961 33.9995 17.7326C34.4618 18.2838 35.2994 19.4099 35.655 20.6268ZM41.3111 16.1857C41.3111 16.1857 39.5489 16.7547 38.0929 16.7784C37.028 16.7962 35.8901 16.5255 35.8901 16.5255C35.8901 16.5255 35.1019 16.3517 34.5349 16.6105C34.3294 16.7053 34.1279 16.8811 33.9738 17.0412C33.877 16.6283 33.7328 15.9862 33.8849 15.4765C33.9798 15.1249 33.9837 14.9688 34.604 14.4117C35.2184 13.8486 35.8348 13.738 36.1292 13.6669C36.4255 13.5879 37.1426 13.5642 38.3457 13.2204C39.5528 12.8786 39.8472 12.7127 39.8472 12.7127C39.8472 12.7127 40.0329 12.3097 40.2976 12.6613C40.4892 12.9122 41.2498 14.469 41.7279 16.087C41.4671 16.1403 41.3111 16.1857 41.3111 16.1857ZM40.9258 8.22818C39.9143 5.66588 38.8337 4.67217 38.8337 4.67217C38.8337 4.67217 39.0984 4.39757 39.2861 4.2652C39.4698 4.12889 39.6318 4.16247 39.6318 4.16247C39.6318 4.16247 40.2166 4.37188 42.2198 5.27076C44.227 6.15779 44.8295 6.96579 45.0488 7.12977C45.2582 7.28781 45.1516 7.47351 45.1516 7.47351C45.1516 7.47351 45.3135 7.36683 45.2898 7.65922C45.2582 7.95555 44.8276 8.3882 44.2112 8.64897C43.5988 8.92357 42.2336 9.39771 41.9413 9.52415C41.6449 9.66639 41.2953 9.17842 40.9258 8.22818ZM50.0608 20.4865C49.9976 20.3087 49.9324 20.1428 49.8633 19.9946C48.9782 18.0783 47.6605 17.1162 47.6605 17.1162C47.6605 17.1162 46.4041 16.0119 44.7821 15.8459C44.4344 15.8104 44.0828 15.8045 43.743 15.8163H43.7469C43.7035 15.7452 43.4071 14.789 43.3913 14.7475L43.2886 14.4551C43.2886 14.4551 43.1246 14.5895 43.0673 14.791C43.0575 14.8384 43.3064 15.7867 43.2925 15.842C42.8974 15.8736 42.532 15.9269 42.2238 15.9803C42.1922 15.9032 42.1645 15.838 42.1586 15.8222C42.046 15.4982 41.9432 14.9352 41.9176 14.7495C41.8919 14.5598 42.0045 14.4611 42.0282 14.3169L42.1922 13.8091C42.2396 13.6787 42.2178 13.6787 42.4292 13.7301C42.6406 13.7854 42.9409 13.8131 42.9409 13.8131C42.9409 13.8131 43.0496 13.3291 42.8342 12.8786C42.6189 12.4183 42.5458 12.1497 42.5458 12.1497C42.5458 12.1497 42.5142 12.0706 42.9172 11.7506C43.3182 11.4345 44.4739 10.6048 44.9797 10.2788C45.4933 9.96272 45.436 9.99038 45.8944 9.71775C46.3448 9.46093 46.6629 9.11323 46.6629 9.11323C46.6629 9.11323 47.5973 9.96865 48.4507 11.069C49.3042 12.1734 50.5271 13.8882 50.6574 13.8348C50.7997 13.7795 50.6614 13.1394 50.8728 13.1118C51.0881 13.0881 51.4654 13.4377 51.7045 13.6827C51.9396 13.9198 52.1569 13.9534 52.1292 14.1351C52.1016 14.3248 52.2043 14.5895 52.0226 14.5658C51.827 14.5361 51.8052 14.4038 51.6432 14.4038L51.2955 14.4255L51.1671 14.7831L51.3015 15.2434C51.3193 15.3975 51.4319 15.9684 51.5524 16.3872C51.6926 16.8179 51.906 17.7583 51.9317 17.9716C51.9613 18.187 51.983 19.0701 52.0067 19.3387C52.0305 19.6094 51.983 20.2771 51.983 20.2771L51.7104 20.4075C51.503 20.5142 51.2541 20.6762 51.0447 20.6485C50.8293 20.6209 50.4796 20.5063 50.1398 20.4826C50.1359 20.4826 50.1043 20.4846 50.0608 20.4865ZM52.4532 23.8292C52.4354 24.0386 52.2517 24.4396 52.1925 24.7044C52.064 25.3583 51.9396 25.7455 51.7242 26.3875L51.6452 26.35C51.6452 26.35 51.4082 25.8028 51.0506 24.4021C50.8886 23.7699 50.7068 22.8631 50.4915 21.9899C50.7503 21.9188 51.0842 21.8023 51.3311 21.7647C52.3485 21.6067 52.3011 21.2728 52.3011 21.2728C52.3011 21.2728 52.394 21.5553 52.2497 21.982C52.1036 22.4107 52.1747 22.9757 52.309 23.1674C52.4532 23.355 52.4829 23.6217 52.4532 23.8292Z" fill="#A09744"/>
<path fill-rule="evenodd" clip-rule="evenodd" d="M22.1065 46.2481C22.1065 46.2481 20.5181 45.1813 19.1234 43.1504C18.1929 41.7971 17.6496 39.6576 16.6144 38.4387C15.0221 36.5599 13.252 35.7974 13.252 35.7974C13.252 35.7974 13.9435 37.1467 14.6764 39.1795C15.0616 40.2463 15.4054 41.8959 15.7788 42.7889C16.2331 43.8814 16.7863 44.8415 16.7863 44.8415C16.7863 44.8415 14.6073 44.8909 11.9403 44.2133C9.2851 43.5416 6.1084 41.7636 6.1084 41.7636C6.1084 41.7636 7.59205 45.6297 12.8154 46.9889C16.4623 47.9392 22.1065 46.2481 22.1065 46.2481Z" fill="#026839"/>
<path fill-rule="evenodd" clip-rule="evenodd" d="M14.3702 43.038C14.3702 43.038 13.4457 41.4299 12.849 39.0474C12.446 37.4373 12.2959 35.039 11.7664 33.5573C11.0335 31.4988 9.92324 30.5742 9.92324 30.5742C9.92324 30.5742 10.1405 31.9532 10.1702 34.146C10.182 34.9619 10.0477 36.0386 10.0181 36.8822C9.97855 38.0379 10.4547 39.4287 10.4547 39.4287C10.4547 39.4287 9.78495 38.8815 8.68851 38.2117C7.61183 37.5559 6.12226 36.7854 5.02187 35.9892C3.08187 34.5886 1.67725 32.8165 1.67725 32.8165C1.67725 32.8165 2.49118 37.2082 5.95236 39.9048C10.101 43.1309 14.3702 43.038 14.3702 43.038Z" fill="#026839"/>
<path fill-rule="evenodd" clip-rule="evenodd" d="M8.24603 36.54C8.24603 36.54 8.21837 35.2203 8.45544 33.385C8.63522 31.9804 9.09947 30.2419 9.08169 28.7483C9.04613 25.7336 8.09391 23.5625 8.09391 23.5625C8.09391 23.5625 7.92204 25.0778 7.43012 27.1541C7.2464 27.9265 6.76633 29.4161 6.632 30.0799C6.44629 31.0044 6.38505 32.0179 6.38505 32.0179C6.38505 32.0179 5.79238 31.0953 4.7888 30.1174C4.0855 29.4319 2.92979 28.3058 2.33713 27.5907C0.610486 25.5065 3.78337e-05 24.3211 3.78337e-05 24.3211C3.78337e-05 24.3211 -0.0335467 27.7072 1.90053 30.5718C4.07562 33.7939 8.24603 36.54 8.24603 36.54Z" fill="#026839"/>
<path fill-rule="evenodd" clip-rule="evenodd" d="M3.87587 27.0612C4.82216 28.2465 5.32 28.9795 5.32 28.9795C5.32 28.9795 5.62029 27.2627 6.36507 25.1607C6.87279 23.7265 7.7855 22.1361 8.17074 20.6959C8.73575 18.5762 8.55004 16.8772 8.55004 16.8772C8.55004 16.8772 6.99528 19.234 5.81389 21.3044C4.9565 22.8078 4.48236 24.6293 4.48236 24.6293C4.48236 24.6293 3.85413 22.9026 3.02045 21.3242C2.56804 20.4648 1.83709 19.5284 1.46173 18.6809C0.855234 17.3079 0.758431 16.0396 0.758431 16.0396C0.758431 16.0396 -0.482221 19.0602 0.454195 21.7213C1.14959 23.6869 2.77153 25.6763 3.87587 27.0612Z" fill="#026839"/>
<path fill-rule="evenodd" clip-rule="evenodd" d="M4.33218 20.9013C4.33218 20.9013 5.01573 19.7278 6.17538 18.2224C6.87671 17.3117 7.96327 16.3022 8.56976 15.2966C9.87166 13.1373 10.2233 11.1361 10.2233 11.1361C10.2233 11.1361 9.6504 11.8354 8.60927 12.7324C8.00475 13.2519 7.04265 13.815 6.46184 14.4037C5.4543 15.425 4.78854 16.6459 4.78854 16.6459C4.78854 16.6459 4.17216 14.6328 3.99041 12.845C3.77508 10.7114 3.99041 8.73975 3.99041 8.73975C3.99041 8.73975 1.91212 10.9109 1.9951 13.8703C2.03658 15.4073 2.90188 17.5725 3.45701 18.8309C4.02992 20.121 4.33218 20.9013 4.33218 20.9013Z" fill="#026839"/>
<path fill-rule="evenodd" clip-rule="evenodd" d="M7.25814 12.3139C8.30321 11.4506 9.88366 10.4075 10.8675 9.27352C12.2899 7.63776 12.8055 5.58712 12.8055 5.58712C12.8055 5.58712 11.4621 6.94236 9.95676 7.9815C8.73981 8.82112 7.29765 9.3881 7.29765 9.3881C7.29765 9.3881 7.36284 8.77568 7.43001 7.52712C7.45965 6.94829 7.61176 4.86012 7.75203 4.22004C8.21826 2.11409 9.12109 1.14014 9.12109 1.14014C9.12109 1.14014 6.18541 3.44364 5.35765 6.3655C4.37382 9.83656 5.47223 14.0228 5.47223 14.0228C5.47223 14.0228 6.06885 13.2958 7.25814 12.3139Z" fill="#026839"/>
<path fill-rule="evenodd" clip-rule="evenodd" d="M11.972 4.8263C12.5311 4.20795 13.264 2.42401 13.7006 1.72862C14.6134 0.272627 14.9729 0 14.9729 0C14.9729 0 12.136 0.843565 10.5457 2.60379C8.94547 4.37587 8.58789 7.06856 8.58789 7.06856C8.58789 7.06856 10.5378 6.4107 11.972 4.8263Z" fill="#026839"/>
<path fill-rule="evenodd" clip-rule="evenodd" d="M49.1716 48.5278C46.5579 48.3994 43.8376 47.9055 40.7162 46.969C40.3033 46.8446 36.6545 45.8588 32.9226 46.7419C29.1888 45.8588 25.5419 46.8466 25.129 46.969C22.0057 47.9055 19.2853 48.3974 16.6736 48.5278C12.5605 48.7312 10.3281 47.3128 10.3281 47.3128C10.3281 47.3128 12.602 50.3729 16.2568 50.9617C19.5362 51.4911 24.2361 49.5551 24.2361 49.5551C24.2361 49.5551 27.2053 48.0536 30.1687 47.7929C26.6976 49.6617 23.7303 53.0893 23.7303 53.0893L24.9078 54.0001C24.9078 54.0001 28.3393 49.3377 32.9226 48.0141C37.5059 49.3377 40.9375 54.0001 40.9375 54.0001L42.1149 53.0893C42.1149 53.0893 39.1476 49.6617 35.6765 47.7929C38.6399 48.0556 41.6111 49.5551 41.6111 49.5551C41.6111 49.5551 46.313 51.4891 49.5904 50.9617C53.2452 50.3729 55.5191 47.3128 55.5191 47.3128C55.5191 47.3128 53.2847 48.7312 49.1716 48.5278Z" fill="#026839"/>
<path fill-rule="evenodd" clip-rule="evenodd" d="M49.057 44.8415C49.057 44.8415 49.6102 43.8833 50.0645 42.7889C50.4379 41.8939 50.7817 40.2463 51.1669 39.1795C51.8979 37.1467 52.5913 35.7974 52.5913 35.7974C52.5913 35.7974 50.8192 36.558 49.2289 38.4387C48.1937 39.6576 47.6504 41.7991 46.7199 43.1504C45.3232 45.1793 43.7368 46.2481 43.7368 46.2481C43.7368 46.2481 49.381 47.9392 53.0279 46.9889C58.2513 45.6278 59.7349 41.7636 59.7349 41.7636C59.7349 41.7636 56.5562 43.5416 53.9031 44.2152C51.238 44.8909 49.057 44.8415 49.057 44.8415Z" fill="#026839"/>
<path fill-rule="evenodd" clip-rule="evenodd" d="M60.8215 35.9892C59.7211 36.7854 58.2296 37.5559 57.1549 38.2117C56.0584 38.8815 55.3887 39.4287 55.3887 39.4287C55.3887 39.4287 55.8648 38.0399 55.8253 36.8822C55.7957 36.0386 55.6633 34.9619 55.6732 34.146C55.7028 31.9551 55.9201 30.5742 55.9201 30.5742C55.9201 30.5742 54.8099 31.4988 54.0769 33.5573C53.5475 35.041 53.3954 37.4373 52.9943 39.0494C52.3997 41.4299 51.4731 43.04 51.4731 43.04C51.4731 43.04 55.7423 43.1329 59.891 39.9048C63.3542 37.2101 64.1661 32.8165 64.1661 32.8165C64.1661 32.8165 62.7615 34.5866 60.8215 35.9892Z" fill="#026839"/>
<path fill-rule="evenodd" clip-rule="evenodd" d="M63.9454 30.5738C65.8814 27.7072 65.8458 24.3231 65.8458 24.3231C65.8458 24.3231 65.2374 25.5084 63.5088 27.5907C62.9181 28.3058 61.7604 29.4319 61.0571 30.1174C60.0555 31.0973 59.4608 32.0179 59.4608 32.0179C59.4608 32.0179 59.4016 31.0044 59.2139 30.0799C59.0796 29.4161 58.5995 27.9265 58.4158 27.1541C57.9238 25.0778 57.75 23.5625 57.75 23.5625C57.75 23.5625 56.7978 25.7356 56.7622 28.7503C56.7444 30.2439 57.2087 31.9823 57.3885 33.387C57.6255 35.2223 57.5979 36.5419 57.5979 36.5419C57.5979 36.5419 61.7703 33.7939 63.9454 30.5738Z" fill="#026839"/>
<path fill-rule="evenodd" clip-rule="evenodd" d="M61.3605 24.6293C61.3605 24.6293 60.8864 22.8078 60.031 21.3044C58.8496 19.234 57.2948 16.8772 57.2948 16.8772C57.2948 16.8772 57.1091 18.5762 57.6741 20.6959C58.0574 22.1361 58.9701 23.7265 59.4798 25.1607C60.2246 27.2627 60.5249 28.9795 60.5249 28.9795C60.5249 28.9795 61.0207 28.2465 61.969 27.0612C63.0753 25.6763 64.6953 23.6889 65.3887 21.7213C66.3251 19.0622 65.0845 16.0396 65.0845 16.0396C65.0845 16.0396 64.9877 17.3079 64.3812 18.6809C64.0078 19.5264 63.2749 20.4648 62.8225 21.3222C61.9888 22.9007 61.3605 24.6293 61.3605 24.6293Z" fill="#026839"/>
<path fill-rule="evenodd" clip-rule="evenodd" d="M57.2361 12.7304C56.195 11.8335 55.6221 11.1341 55.6221 11.1341C55.6221 11.1341 55.9717 13.1354 57.2756 15.2947C57.8821 16.3002 58.9687 17.3117 59.67 18.2205C60.8277 19.7259 61.5132 20.8993 61.5132 20.8993C61.5132 20.8993 61.8155 20.119 62.3864 18.829C62.9435 17.5725 63.8068 15.4053 63.8483 13.8683C63.9333 10.9089 61.853 8.73779 61.853 8.73779C61.853 8.73779 62.0683 10.7074 61.853 12.841C61.6732 14.6269 61.0549 16.642 61.0549 16.642C61.0549 16.642 60.3911 15.4211 59.3835 14.3998C58.8047 13.815 57.8426 13.25 57.2361 12.7304Z" fill="#026839"/>
<path fill-rule="evenodd" clip-rule="evenodd" d="M58.4156 7.52515C58.4827 8.7737 58.5479 9.38613 58.5479 9.38613C58.5479 9.38613 57.1058 8.81914 55.8888 7.97953C54.3815 6.94038 53.0381 5.58515 53.0381 5.58515C53.0381 5.58515 53.5537 7.63578 54.9761 9.27155C55.9599 10.4055 57.5404 11.4486 58.5855 12.3119C59.7767 13.2938 60.3714 14.0228 60.3714 14.0228C60.3714 14.0228 61.4678 9.83656 60.486 6.3655C59.6582 3.44364 56.7225 1.14014 56.7225 1.14014C56.7225 1.14014 57.6253 2.11211 58.0916 4.21806C58.2318 4.85814 58.384 6.94631 58.4156 7.52515Z" fill="#026839"/>
<path fill-rule="evenodd" clip-rule="evenodd" d="M52.1448 1.72862C52.5814 2.42401 53.3164 4.20794 53.8735 4.8263C55.3057 6.4107 57.2556 7.06658 57.2556 7.06658C57.2556 7.06658 56.9 4.37587 55.2978 2.60181C53.7075 0.843565 50.8706 0 50.8706 0C50.8706 0 51.2302 0.272627 52.1448 1.72862Z" fill="#026839"/>
</svg>
