<svg width="498" height="500" viewBox="0 0 498 500" fill="none" xmlns="http://www.w3.org/2000/svg">
<path d="M242.834 0C241.17 0 239.794 1.34374 239.794 3.03942V23.5795H225.141C223.318 23.5795 221.942 24.6033 221.366 25.851L218.71 30.8101V0H203.257C201.594 0 200.25 1.34374 200.25 3.03942V65.7794H215.703C217.367 65.7794 218.742 64.4356 218.742 62.7399V39.7044H239.826V65.7474H255.279C256.943 65.7474 258.287 64.4036 258.287 62.7079V0H242.834Z" fill="#096939"/>
<path d="M307.397 0C305.733 0 304.357 1.34374 304.357 3.03942V23.5795H289.704C287.88 23.5795 286.505 24.6033 285.929 25.851L283.273 30.8101V0H267.82C266.156 0 264.781 1.34374 264.781 3.03942V65.7794H280.234C281.897 65.7794 283.273 64.4356 283.273 62.7399V39.7044H304.357V65.7474H319.81C321.474 65.7474 322.85 64.4036 322.85 62.7079V0H307.397Z" fill="#096939"/>
<path d="M193.819 62.7717C193.819 64.4353 192.475 65.8111 190.779 65.8111H174.654V19.324C174.654 17.6603 175.806 16.7005 177.694 16.2846L193.819 14.4609V62.7717Z" fill="#096939"/>
<path d="M174.655 3.00742C174.655 1.34374 175.998 0 177.662 0H193.787V7.93447C193.787 9.59815 192.731 10.462 190.747 10.9739L174.623 12.7655V3.00742H174.655Z" fill="#096939"/>
<path d="M312.676 248.688C312.676 248.688 302.694 249.84 302.694 259.086C302.694 266.445 308.165 270.7 311.94 271.084C316.099 271.5 323.938 268.717 323.938 259.502C323.97 248.72 312.676 248.688 312.676 248.688Z" fill="#9F9745"/>
<path d="M396.339 272.011C396.211 273.611 394.836 276.618 394.356 278.634C393.364 283.593 392.436 286.504 390.804 291.336L390.196 291.048C390.196 291.048 388.405 286.92 385.717 276.33C384.502 271.531 383.126 264.717 381.494 258.094C383.446 257.55 385.973 256.686 387.829 256.398C395.507 255.214 395.156 252.687 395.156 252.687C395.156 252.687 395.859 254.799 394.772 258.03C393.652 261.261 394.196 265.548 395.219 266.988C396.339 268.428 396.563 270.444 396.339 272.011ZM378.263 246.768C377.783 245.424 377.303 244.177 376.791 243.057C370.104 228.596 360.154 221.301 360.154 221.301C360.154 221.301 350.652 212.951 338.398 211.703C335.775 211.415 333.119 211.383 330.528 211.479H330.56C330.24 210.935 328 203.704 327.872 203.416L327.105 201.209C327.105 201.209 325.857 202.233 325.441 203.768C325.345 204.12 327.233 211.287 327.137 211.703C324.161 211.959 321.41 212.343 319.074 212.759C318.85 212.183 318.626 211.671 318.594 211.543C317.762 209.079 316.963 204.856 316.771 203.448C316.579 202.009 317.41 201.273 317.602 200.185L318.85 196.346C319.202 195.354 319.042 195.354 320.642 195.738C322.242 196.154 324.513 196.378 324.513 196.378C324.513 196.378 325.345 192.73 323.713 189.307C322.082 185.82 321.538 183.804 321.538 183.804C321.538 183.804 321.314 183.196 324.353 180.797C327.393 178.397 336.095 172.126 339.934 169.663C343.805 167.295 343.389 167.487 346.845 165.408C350.236 163.456 352.636 160.833 352.636 160.833C352.636 160.833 359.706 167.295 366.137 175.614C372.568 183.964 381.814 196.922 382.806 196.506C383.894 196.09 382.838 191.259 384.438 191.035C386.069 190.875 388.917 193.498 390.708 195.354C392.468 197.146 394.132 197.402 393.94 198.777C393.716 200.217 394.516 202.201 393.14 202.041C391.668 201.817 391.508 200.825 390.26 200.825L387.637 200.985L386.613 203.64L387.637 207.128C387.765 208.279 388.629 212.599 389.557 215.766C390.612 219.029 392.212 226.132 392.436 227.732C392.66 229.363 392.82 236.018 392.98 238.066C393.172 240.113 392.82 245.168 392.82 245.168L390.772 246.16C389.205 246.96 387.317 248.208 385.749 247.984C384.118 247.76 381.494 246.896 378.903 246.736C378.807 246.736 378.583 246.736 378.263 246.768ZM309.22 154.146C301.574 134.79 293.415 127.271 293.415 127.271C293.415 127.271 295.399 125.191 296.838 124.2C298.214 123.176 299.462 123.432 299.462 123.432C299.462 123.432 303.877 125.032 319.01 131.814C334.175 138.533 338.718 144.612 340.382 145.86C341.982 147.043 341.15 148.451 341.15 148.451C341.15 148.451 342.398 147.651 342.206 149.859C341.982 152.098 338.718 155.362 334.047 157.345C329.408 159.425 319.106 163.008 316.899 163.968C314.659 164.992 312.035 161.313 309.22 154.146ZM312.131 214.262C312.131 214.262 298.822 218.55 287.816 218.741C279.754 218.869 271.179 216.822 271.179 216.822C271.179 216.822 265.228 215.51 260.941 217.462C259.374 218.166 257.87 219.509 256.686 220.725C255.95 217.622 254.862 212.759 256.014 208.887C256.75 206.232 256.782 205.048 261.453 200.825C266.092 196.57 270.763 195.738 272.971 195.194C275.211 194.618 280.618 194.426 289.736 191.835C298.854 189.243 301.094 187.995 301.094 187.995C301.094 187.995 302.501 184.956 304.485 187.611C305.925 189.499 311.684 201.273 315.299 213.495C313.315 213.91 312.131 214.262 312.131 214.262ZM269.42 247.824C264.141 247.792 259.63 247.76 259.118 247.76C257.07 247.76 252.879 248.176 250.223 249.168C247.6 250.191 245.776 250.991 244.401 250.767C242.929 250.575 237.266 248.944 235.506 248.112C233.683 247.28 231.443 246.864 229.811 247.088C228.212 247.28 228.436 247.28 227.38 248.048L225.556 249.552C225.556 249.552 222.357 247.056 220.725 247.504C217.974 248.176 212.631 247.664 209.847 248.272C207 248.88 199.929 249.424 197.114 249.648C194.33 249.871 190.011 248.784 186.076 247.984C182.012 247.152 179.389 247.312 179.389 247.312L179.613 242.673C179.805 241.649 180.381 241.649 180.189 239.25C180.029 236.786 179.773 235.41 179.613 231.955C179.453 228.5 178.813 226.068 179.229 223.861C179.645 221.653 180.605 215.99 183.132 207.48C185.5 198.937 187.196 193.882 188.027 191.675C188.795 189.435 189.243 187.004 191.451 187.42C193.722 187.835 206.616 191.099 209.847 191.515C213.079 191.899 221.717 194.394 228.02 196.218C234.194 198.073 237.234 200.761 239.249 201.753C241.329 202.745 242.065 202.745 241.905 204.792C241.681 206.776 241.041 212.663 240.401 215.51C239.825 218.326 241.201 225.044 241.553 227.668C241.969 230.291 245.424 241.297 245.424 241.297C245.424 241.297 247.408 239.442 248.816 236.21C250.287 232.947 250.287 231.155 251.855 232.179C253.519 233.203 256.526 235.826 256.526 235.826C256.526 235.826 256.686 234.802 256.526 233.363C256.398 232.467 256.782 228.66 256.91 225.908C260.397 230.131 266.732 238.61 269.42 247.824ZM260.941 289.128C260.941 289.128 259.214 291.911 256.59 296.551C255.918 292.455 254.99 287.784 255.054 287.208C255.278 286.121 255.054 283.945 255.054 280.522C255.054 277.098 256.75 275.339 257.998 271.755C259.278 268.172 264.429 266.092 266.988 264.973C267.564 264.717 269.004 264.269 270.22 263.885C268.172 277.322 260.941 289.128 260.941 289.128ZM237.202 316.131C234.13 316.259 230.547 316.963 226.292 317.506C217.718 318.53 214.678 321.602 209.335 323.553C203.96 325.505 198.617 328 196.058 328L191.291 327.936C191.291 327.936 190.203 325.441 188.603 321.89C186.972 318.274 185.404 312.771 182.748 305.541C180.125 298.374 178.877 298.022 179.037 293.703C179.293 289.448 178.717 286.728 178.941 283.881C179.069 281.002 179.997 279.946 179.133 278.122C178.205 276.33 177.853 275.243 177.149 274.763L175.934 273.003L176.318 270.476C177.405 269.356 180.029 267.628 188.091 265.836C196.122 264.077 201.177 264.621 204.344 264.141C207.544 263.597 211.479 263.245 214.87 263.309C218.294 263.309 221.269 264.365 227.028 264.877C232.755 265.485 234.514 266.892 237.33 268.14C240.241 269.484 241.137 270.731 240.945 272.491C240.721 274.251 240.945 315.267 240.945 315.267C240.945 315.267 240.145 315.939 237.202 316.131ZM234.067 344.797C227.412 364.537 229.299 389.877 230.003 397.011C229.747 397.075 229.491 397.171 229.235 397.203C226.9 397.459 221.045 395.379 214.422 381.942C212.791 378.455 208.087 368.313 204.024 358.267C199.897 348.189 197.402 345.181 197.402 345.181C197.402 345.181 196.378 343.901 198.169 343.006C199.897 342.078 209.431 338.047 211.543 336.959C213.75 335.903 218.038 333.919 220.501 333.791C223.029 333.631 228.308 333.791 230.867 334.015C233.331 334.207 233.299 332.991 235.57 334.975C235.602 335.007 236.434 335.455 237.362 335.967C236.146 338.91 235.058 341.854 234.067 344.797ZM203.48 391.892C201.561 391.54 197.945 391.348 193.178 389.749C188.379 388.117 179.805 382.71 170.911 376.759C161.984 370.84 156.161 366.361 156.161 366.361C156.161 366.361 152.002 365.273 155.586 362.938C159.233 360.634 173.342 352.988 175.678 351.9C177.981 350.876 182.3 348.509 187.451 355.323C192.602 362.17 199.705 377.559 201.785 382.294C203.96 386.933 206.264 391.604 206.264 391.604C206.264 391.604 205.528 392.276 203.48 391.892ZM173.022 313.027C171.455 309.956 170.943 305.509 169.663 302.469C168.447 299.43 167.391 294.919 167.391 294.919C167.391 294.919 166.368 290.632 169.567 290.632C172.766 290.632 172.606 291.559 174.046 293.511C175.39 295.463 176.318 298.022 177.021 298.726V302.629L176.094 306.245C176.67 307.492 176.254 307.108 177.021 309.316C177.693 311.46 178.429 314.115 179.133 315.971C179.869 317.794 180.285 320.258 180.189 321.89C179.997 323.457 179.485 325.825 179.293 328.288C179.101 330.784 178.205 333.631 178.205 333.631C178.205 333.631 177.213 332.032 177.213 329.344C177.213 326.721 176.829 324.001 175.742 321.826C174.654 319.65 174.654 316.035 173.022 313.027ZM287.304 135.334C287.304 135.334 296.742 146.115 299.75 155.202C302.757 164.32 304.773 166.368 304.773 166.368C304.773 166.368 300.358 167.231 294.343 154.978C291.303 148.931 290.184 142.82 289.128 140.357C288.072 137.957 287.304 135.334 287.304 135.334ZM198.201 167.871C199.449 162.208 207.736 138.117 224.372 119.721C225.812 118.121 230.227 115.081 234.098 114.857C237.906 114.698 238.482 119.785 239.249 121.384C240.049 122.984 241.329 129.927 240.433 132.326C239.633 134.758 238.578 139.173 238.194 142.66C237.778 146.083 239.026 148.291 239.953 150.723C241.009 153.122 241.969 156.194 243.537 155.97C245.168 155.778 247.216 153.954 248.816 152.738C250.511 151.586 254.287 148.739 254.703 144.036C255.118 139.365 254.127 136.741 253.519 134.15C252.911 131.494 252.911 129.479 252.751 126.183C252.559 122.984 253.679 121.768 253.679 121.768C253.679 121.768 253.679 119.337 255.566 116.489C257.39 113.642 260.077 113.258 261.453 113.642C262.861 114.09 267.916 115.497 274.955 127.463C275.882 129.095 280.394 137.637 285.353 150.403C286.216 152.61 287.752 160.097 290.376 164.384C292.999 168.671 295.367 174.302 295.367 174.302C295.367 174.302 285.289 178.493 274.987 179.901C272.459 180.253 264.653 181.117 261.229 179.037C257.838 177.022 257.614 173.758 257.838 172.574L256.814 167.487C256.814 166.272 254.83 160.225 252.015 157.409C249.136 154.562 249.136 156.162 249.775 157.569C250.351 159.009 251.535 167.103 248.528 167.263L247.12 165.824C246.096 164.672 244.305 164.672 242.481 164.416C240.689 164.224 240.241 165.632 240.465 167.231C240.657 168.831 240.401 174.718 240.401 174.718C240.401 174.718 240.401 181.021 232.083 181.149C223.924 181.373 216.822 177.885 209.975 176.414C203.128 174.974 199.833 173.406 199.833 173.406C199.833 173.406 196.986 173.47 198.201 167.871ZM408.913 232.659C403.186 199.833 386.101 171.423 384.694 169.215C361.21 133.094 323.905 116.585 320.066 115.177C316.259 113.738 303.941 105.643 298.31 103.34C292.679 101.068 277.13 98.8605 274.475 99.0205C271.851 99.2125 252.911 98.9565 250.095 98.9565C247.248 98.9245 233.907 98.9565 231.251 99.2125C213.526 101.388 196.378 108.651 191.547 110.09C186.652 111.466 184.892 111.37 183.388 112.01C148.675 127.079 128.423 152.354 128.423 152.354C128.423 152.354 114.569 171.583 113.61 173.214C92.4937 209.367 92.0138 242.161 91.5659 248.432C91.15 254.703 91.9178 269.292 91.9178 271.339C91.9178 273.355 92.4937 290.152 92.9096 295.847C93.2616 301.51 94.8293 304.389 97.8687 307.012C100.908 309.604 107.531 315.331 107.531 315.331C107.531 315.331 108.971 313.667 109.61 312.068C110.186 310.468 110.858 306.853 110.442 304.997C109.994 303.173 110.218 300.934 110.218 300.934L112.778 300.55L111.85 297.926C111.018 296.487 111.85 294.855 111.594 293.863C111.434 292.839 109.418 287.528 108.235 281.321C107.019 275.019 108.267 272.011 113.482 268.588C118.761 265.133 128.455 265.58 128.455 265.58C128.455 265.58 128.679 264.973 128.679 263.533C128.679 262.125 126.887 259.886 125.703 259.63C124.456 259.502 124.04 259.246 122.28 258.414C120.488 257.646 121.864 256.398 121.864 256.398C123.72 256.398 123.304 255.023 123.304 255.023L123.496 251.535C123.496 251.535 121.32 251.759 119.465 250.927C112.554 247.824 111.05 236.306 111.242 232.691C111.466 229.044 113.738 217.622 114.122 215.478C119.497 186.94 132.23 171.199 136.069 167.551C139.909 163.872 144.74 167.135 147.203 167.935C149.571 168.799 151.362 168.799 151.362 168.799C151.362 168.799 151.778 167.199 153.634 165.728C155.426 164.352 160.897 162.56 162.944 161.536C164.928 160.513 164.352 159.329 163.136 158.273C161.984 157.249 159.521 155.266 157.441 154.594C155.49 153.986 156.065 152.578 156.865 151.362L163.936 143.684C174.718 133.222 182.748 129.991 188.667 127.175C194.522 124.328 201.849 122.184 201.849 122.184L201.913 128.839L198.905 135.302C192.858 149.251 181.085 162.976 181.085 162.976L174.398 163.2C173.406 163.2 168.543 162.56 164.32 164.736C160.097 166.975 161.28 172.03 161.28 172.03L163.296 173.886L162.304 175.294C162.304 175.294 167.743 175.102 170.175 176.094C172.542 177.117 174.558 182.205 174.334 184.22C174.174 186.3 172.286 195.738 169.055 206.072C165.76 216.406 165.12 226.516 165.28 231.795C165.504 237.042 165.696 240.273 164.032 244.369C162.432 248.336 156.577 250.191 152.13 249.999C147.651 249.744 139.589 249.903 136.805 250.319C133.958 250.703 136.197 251.535 136.197 251.535L136.421 253.583L138.181 256.814L136.357 260.429L135.397 262.061C139.365 262.285 141.028 265.772 141.028 265.772C141.028 265.772 143.204 265.325 146.051 265.772C148.867 266.156 157.793 268.972 160.577 271.019C163.424 273.067 164.8 275.883 164.512 277.354C164.352 278.698 164.768 283.849 164.48 285.833C162.88 302.597 168.095 310.5 170.271 314.595C172.478 318.626 174.11 325.537 174.654 331.424C175.262 337.279 171.263 338.079 165.376 341.918C159.521 345.757 143.332 353.788 143.332 353.788C143.332 353.788 140.133 353.788 133.126 345.469C126.023 337.119 121.224 321.922 121.064 320.066C120.872 318.274 121.224 315.459 117.417 317.634C113.578 319.842 115.433 323.361 116.201 326.721C116.969 330.24 116.201 331.392 114.985 331.808C113.738 332.192 109.354 326.081 107.307 324.705C105.227 323.265 105.963 326.337 106.091 327.904C106.667 338.878 113.258 347.101 114.665 348.796C147.459 387.317 196.026 406.161 205.56 409.585C215.03 413.104 221.237 412.656 224.308 412.688L238.546 412.752L238.674 412.976L244.017 413.872L247.568 412.08L248.144 408.049C246.992 404.69 245.136 399.347 242.705 392.628C236.562 375.671 243.505 351.932 244.56 348.445C247.76 336.351 254.415 321.026 266.444 301.382C279.178 280.618 283.401 261.709 279.05 245.2C276.778 236.594 272.491 230.131 268.396 225.588C268.62 225.684 268.812 225.748 269.036 225.812C274.219 227.796 281.289 230.483 293.287 228.692C297.414 228.084 301.733 227.188 305.925 226.356C330.656 221.333 354.011 216.598 367.417 252.591C370.264 260.238 371.736 268.524 373.336 277.258C376.183 293.127 379.83 311.364 392.372 326.849L397.907 315.075C399.891 310.788 400.754 308.228 401.042 307.556C409.841 288.264 409.041 274.155 408.049 271.499C407.089 268.908 409.041 267.276 410.864 263.053C412.688 258.99 409.201 234.259 408.913 232.659Z" fill="#9F9745"/>
<path d="M167.04 441.419C167.04 441.419 155.042 433.356 144.484 418.031C137.445 407.825 133.35 391.636 125.544 382.422C113.514 368.217 100.141 362.458 100.141 362.458C100.141 362.458 105.356 372.664 110.891 388.021C113.802 396.084 116.394 408.529 119.209 415.312C122.632 423.566 126.824 430.829 126.824 430.829C126.824 430.829 110.347 431.213 90.1906 426.094C70.1304 421.007 46.103 407.569 46.103 407.569C46.103 407.569 57.3329 436.78 96.7813 447.05C124.392 454.184 167.04 441.419 167.04 441.419Z" fill="#096939"/>
<path d="M108.587 417.135C108.587 417.135 101.58 404.978 97.1012 386.997C94.0618 374.808 92.91 356.731 88.9108 345.501C83.3759 329.952 74.9935 322.978 74.9935 322.978C74.9935 322.978 76.6251 333.408 76.8491 349.948C76.9451 356.123 75.9213 364.25 75.6973 370.616C75.4094 379.351 78.9927 389.845 78.9927 389.845C78.9927 389.845 73.9377 385.717 65.6513 380.662C57.5248 375.703 46.263 369.881 37.9446 363.866C23.2914 353.276 12.6694 339.902 12.6694 339.902C12.6694 339.902 18.8123 373.08 44.9832 393.46C76.3372 417.839 108.587 417.135 108.587 417.135Z" fill="#096939"/>
<path d="M62.3243 368.057C62.3243 368.057 62.1004 358.075 63.892 344.222C65.2677 333.6 68.7551 320.482 68.6271 309.189C68.3712 286.409 61.1725 269.996 61.1725 269.996C61.1725 269.996 59.8608 281.45 56.1495 297.127C54.7738 302.95 51.1265 314.212 50.1027 319.235C48.6949 326.209 48.247 333.888 48.247 333.888C48.247 333.888 43.7679 326.913 36.1853 319.523C30.8744 314.34 22.14 305.829 17.6609 300.422C4.60741 284.681 0.000292874 275.723 0.000292874 275.723C0.000292874 275.723 -0.255659 301.286 14.3655 322.946C30.7784 347.293 62.3243 368.057 62.3243 368.057Z" fill="#096939"/>
<path d="M29.2741 296.423C36.4407 305.382 40.184 310.917 40.184 310.917C40.184 310.917 42.4555 297.927 48.0864 282.058C51.9257 271.212 58.8044 259.214 61.7158 248.305C66.003 232.276 64.5953 219.446 64.5953 219.446C64.5953 219.446 52.8535 237.267 43.9272 252.912C37.4645 264.269 33.8812 278.027 33.8812 278.027C33.8812 278.027 29.1461 264.973 22.8113 253.04C19.388 246.577 13.853 239.474 11.0376 233.075C6.46245 222.709 5.7266 213.111 5.7266 213.111C5.7266 213.111 -3.6476 235.955 3.42304 256.047C8.67003 270.956 20.9237 285.961 29.2741 296.423Z" fill="#096939"/>
<path d="M32.7301 249.904C32.7301 249.904 37.9131 241.042 46.6474 229.652C51.9264 222.773 60.1488 215.127 64.7239 207.544C74.578 191.227 77.2015 176.094 77.2015 176.094C77.2015 176.094 72.8824 181.373 65.0119 188.156C60.4368 192.091 53.1742 196.346 48.791 200.793C41.1765 208.504 36.1534 217.75 36.1534 217.75C36.1534 217.75 31.4823 202.521 30.1386 189.02C28.5069 172.895 30.1386 158.018 30.1386 158.018C30.1386 158.018 14.4616 174.398 15.0695 196.762C15.3894 208.376 21.9162 224.725 26.1074 234.227C30.4585 243.985 32.7301 249.904 32.7301 249.904Z" fill="#096939"/>
<path d="M54.8377 184.988C62.7402 178.461 74.6739 170.591 82.1285 162.017C92.8784 149.635 96.7497 134.15 96.7497 134.15C96.7497 134.15 86.6076 144.388 75.2178 152.226C66.0356 158.561 55.1257 162.848 55.1257 162.848C55.1257 162.848 55.6376 158.209 56.1495 148.771C56.3734 144.388 57.5252 128.615 58.581 123.784C62.1003 107.883 68.915 100.524 68.915 100.524C68.915 100.524 46.7433 117.929 40.5045 140.005C33.0819 166.24 41.3683 197.882 41.3683 197.882C41.3683 197.882 45.8474 192.411 54.8377 184.988Z" fill="#096939"/>
<path d="M90.4464 128.423C94.6696 123.752 100.205 110.283 103.5 105.004C110.411 93.9978 113.13 91.9502 113.13 91.9502C113.13 91.9502 91.6941 98.317 79.6645 111.626C67.5708 125.032 64.8833 145.348 64.8833 145.348C64.8833 145.348 79.6325 140.389 90.4464 128.423Z" fill="#096939"/>
<path d="M371.545 458.632C351.804 457.672 331.232 453.929 307.653 446.858C304.517 445.931 276.971 438.476 248.752 445.131C220.534 438.476 192.987 445.931 189.851 446.858C166.24 453.929 145.7 457.64 125.96 458.632C94.8937 460.168 78.001 449.45 78.001 449.45C78.001 449.45 95.1817 472.581 122.792 477.029C147.556 481.028 183.101 466.407 183.101 466.407C183.101 466.407 205.56 455.081 227.924 453.097C201.689 467.238 179.262 493.121 179.262 493.121L188.156 500C188.156 500 214.071 464.775 248.72 454.761C283.338 464.775 309.285 500 309.285 500L318.179 493.121C318.179 493.121 295.751 467.238 269.516 453.097C291.912 455.081 314.34 466.407 314.34 466.407C314.34 466.407 349.853 481.028 374.648 477.029C402.259 472.581 419.439 449.45 419.439 449.45C419.439 449.45 402.611 460.168 371.545 458.632Z" fill="#096939"/>
<path d="M370.681 430.765C370.681 430.765 374.84 423.535 378.295 415.248C381.111 408.498 383.702 396.02 386.614 387.958C392.148 372.601 397.363 362.395 397.363 362.395C397.363 362.395 383.99 368.153 371.96 382.359C364.154 391.573 360.027 407.73 353.02 417.968C342.462 433.293 330.464 441.387 330.464 441.387C330.464 441.387 373.112 454.153 400.659 446.986C440.139 436.716 451.337 407.506 451.337 407.506C451.337 407.506 427.342 420.943 407.282 426.03C387.157 431.149 370.681 430.765 370.681 430.765Z" fill="#096939"/>
<path d="M459.559 363.866C451.241 369.881 439.979 375.703 431.853 380.662C423.566 385.717 418.511 389.845 418.511 389.845C418.511 389.845 422.095 379.351 421.807 370.616C421.583 364.25 420.591 356.091 420.655 349.948C420.879 333.376 422.511 322.978 422.511 322.978C422.511 322.978 414.128 329.952 408.593 345.533C404.594 356.731 403.442 374.84 400.403 387.029C395.892 405.01 388.917 417.167 388.917 417.167C388.917 417.167 421.167 417.871 452.521 393.492C478.692 373.112 484.835 339.934 484.835 339.934C484.835 339.934 474.213 353.308 459.559 363.866Z" fill="#096939"/>
<path d="M483.171 322.978C497.792 301.318 497.536 275.755 497.536 275.755C497.536 275.755 492.929 284.714 479.876 300.454C475.397 305.861 466.662 314.372 461.351 319.555C453.769 326.945 449.29 333.92 449.29 333.92C449.29 333.92 448.842 326.274 447.434 319.267C446.442 314.244 442.795 302.982 441.387 297.159C437.676 281.482 436.364 270.028 436.364 270.028C436.364 270.028 429.166 286.441 428.91 309.221C428.782 320.515 432.269 333.632 433.645 344.254C435.436 358.107 435.212 368.089 435.212 368.089C435.212 368.089 466.726 347.293 483.171 322.978Z" fill="#096939"/>
<path d="M463.655 278.059C463.655 278.059 460.072 264.302 453.609 252.944C444.683 237.299 432.941 219.478 432.941 219.478C432.941 219.478 431.534 232.308 435.821 248.337C438.732 259.215 445.611 271.212 449.45 282.058C455.081 297.927 457.353 310.917 457.353 310.917C457.353 310.917 461.096 305.382 468.263 296.424C476.613 285.962 488.867 270.956 494.114 256.079C501.184 235.987 491.81 213.144 491.81 213.144C491.81 213.144 491.074 222.71 486.499 233.108C483.684 239.506 478.149 246.577 474.725 253.072C468.391 265.006 463.655 278.059 463.655 278.059Z" fill="#096939"/>
<path d="M432.493 188.156C424.622 181.373 420.303 176.094 420.303 176.094C420.303 176.094 422.959 191.227 432.781 207.544C437.356 215.159 445.578 222.773 450.857 229.652C459.624 241.01 464.775 249.904 464.775 249.904C464.775 249.904 467.046 244.017 471.365 234.259C475.589 224.757 482.115 208.408 482.435 196.794C483.075 174.43 467.366 158.018 467.366 158.018C467.366 158.018 468.998 172.895 467.366 189.02C466.022 202.521 461.319 217.75 461.319 217.75C461.319 217.75 456.296 208.504 448.682 200.793C444.331 196.346 437.036 192.091 432.493 188.156Z" fill="#096939"/>
<path d="M441.387 148.803C441.899 158.241 442.379 162.88 442.379 162.88C442.379 162.88 431.469 158.593 422.287 152.258C410.897 144.42 400.755 134.182 400.755 134.182C400.755 134.182 404.658 149.667 415.408 162.048C422.831 170.623 434.796 178.493 442.699 185.02C451.689 192.442 456.2 197.945 456.2 197.945C456.2 197.945 464.487 166.303 457.064 140.101C450.825 118.025 428.622 100.62 428.622 100.62C428.622 100.62 435.436 107.979 438.956 123.88C440.011 128.647 441.163 144.42 441.387 148.803Z" fill="#096939"/>
<path d="M394.004 105.004C397.299 110.251 402.834 123.752 407.057 128.423C417.903 140.389 432.621 145.348 432.621 145.348C432.621 145.348 429.933 125 417.839 111.626C405.842 98.317 384.406 91.9502 384.406 91.9502C384.406 91.9502 387.093 94.0298 394.004 105.004Z" fill="#096939"/>
<path d="M315.108 80.5605C314.82 80.4006 314.66 79.9526 314.66 79.2488C314.66 78.8009 314.788 78.353 315.076 77.969C315.364 77.5531 315.716 77.2972 316.132 77.1692C316.164 78.8329 316.196 79.6967 316.196 79.8247C316.196 80.2086 316.132 80.4645 315.972 80.5925H315.108V80.5605ZM318.051 80.5605L318.019 77.6491C318.019 77.1692 318.051 76.8172 318.115 76.5613H318.147C318.787 76.5613 319.331 76.7533 319.715 77.1372C320.131 77.5211 320.323 78.001 320.323 78.6089C320.323 79.1848 320.163 79.6327 319.811 80.0166C319.459 80.4006 319.011 80.5925 318.467 80.5925H318.051V80.5605ZM321.443 75.7934C320.547 75.0256 319.459 74.6417 318.147 74.6417C317.027 74.6417 316.484 74.9616 316.484 75.5695C316.484 75.6655 316.516 75.7614 316.516 75.8894C315.428 75.9534 314.532 76.2734 313.828 76.8812C313.124 77.5211 312.772 78.289 312.772 79.2488C312.772 79.7287 312.868 80.1446 313.092 80.5605H311.876V82.5122H318.563C319.875 82.5122 320.931 82.1922 321.731 81.5203C322.53 80.8485 322.914 79.9846 322.914 78.9288C322.914 77.6811 322.402 76.6573 321.443 75.7934ZM309.317 83.472C308.997 83.472 308.741 83.5679 308.485 83.7919C308.261 84.0159 308.165 84.2718 308.165 84.5918C308.165 84.8797 308.261 85.1037 308.453 85.2956C308.645 85.4556 308.869 85.5516 309.157 85.5516C309.509 85.5516 309.765 85.4556 310.021 85.2316C310.245 85.0077 310.373 84.7517 310.373 84.4318C310.373 84.1758 310.277 83.9519 310.085 83.7599C309.861 83.5679 309.637 83.472 309.317 83.472ZM306.597 83.472C306.278 83.472 305.99 83.5679 305.766 83.7919C305.542 84.0159 305.446 84.2718 305.446 84.5918C305.446 84.8797 305.542 85.1037 305.702 85.2956C305.894 85.4556 306.118 85.5516 306.405 85.5516C306.757 85.5516 307.045 85.4556 307.269 85.2316C307.493 85.0077 307.589 84.7517 307.589 84.4318C307.589 84.1758 307.493 83.9519 307.301 83.7599C307.141 83.5679 306.885 83.472 306.597 83.472ZM312.228 82.5122V80.5605H309.669C309.509 80.5605 309.349 80.4645 309.189 80.2726C309.029 80.0806 308.965 79.8247 308.933 79.5047L308.901 77.0092C308.901 76.1454 308.997 75.5695 309.189 75.2495C308.773 74.8976 308.261 74.7376 307.653 74.7376C307.301 74.7376 307.045 74.8336 306.853 75.0256C306.661 75.2176 306.565 75.5055 306.565 75.8254C306.565 76.0814 306.565 76.6573 306.597 77.5531C306.629 78.6729 306.629 79.2808 306.629 79.4087C306.629 79.8247 306.565 80.1126 306.469 80.2726C306.374 80.4325 306.182 80.5285 305.894 80.5285H304.39V82.4802H307.109C307.717 82.4802 308.165 82.3202 308.485 81.9683C308.709 82.3202 309.093 82.4802 309.637 82.4802H312.228V82.5122ZM304.742 82.5122V80.5605H302.182C301.99 80.5605 301.862 80.4645 301.702 80.2726C301.542 80.0806 301.478 79.8247 301.446 79.5047L301.414 77.0092C301.414 76.1454 301.51 75.5695 301.702 75.2495C301.286 74.8976 300.775 74.7376 300.167 74.7376C299.815 74.7376 299.559 74.8336 299.367 75.0256C299.175 75.2176 299.079 75.5055 299.079 75.8254C299.079 76.0814 299.079 76.6573 299.111 77.5531C299.143 78.6729 299.143 79.2808 299.143 79.4087C299.143 79.8247 299.079 80.1126 298.983 80.2726C298.887 80.4325 298.695 80.5285 298.407 80.5285H296.903V82.4802H299.623C300.231 82.4802 300.679 82.3202 300.999 81.9683C301.222 82.3202 301.606 82.4802 302.15 82.4802H304.742V82.5122ZM301.478 73.5219C301.606 73.5219 301.702 73.5859 301.766 73.6499C301.894 73.4899 301.958 73.2979 301.958 73.01C301.958 72.786 301.798 72.658 301.478 72.658H300.455C300.039 72.5941 299.847 72.3381 299.847 71.9222C299.847 71.6982 299.911 71.5383 300.039 71.4103C300.167 71.2823 300.327 71.1863 300.519 71.1863C300.615 71.1863 300.711 71.2183 300.839 71.2503V71.2823C300.871 71.3783 300.871 71.4743 300.839 71.5383C300.807 71.6022 300.775 71.6342 300.711 71.6342C300.839 71.7302 301.031 71.7622 301.254 71.7622C301.51 71.7622 301.67 71.6342 301.702 71.3783C301.734 71.1543 301.67 70.9624 301.542 70.8024C301.318 70.5784 300.967 70.4505 300.519 70.4505C300.039 70.4505 299.623 70.5784 299.335 70.8024C299.047 71.0583 298.887 71.3783 298.887 71.7622C298.887 72.0822 298.983 72.3381 299.175 72.6261H298.631C298.535 72.6261 298.439 72.5621 298.375 72.4981C298.247 72.658 298.183 72.818 298.183 72.978C298.183 73.106 298.215 73.2019 298.311 73.2979C298.407 73.3939 298.503 73.4579 298.631 73.4579H301.478V73.5219ZM292.52 80.5605C291.496 80.5605 290.984 80.0806 290.984 79.0888C290.984 78.5769 291.208 78.033 291.656 77.4891C292.104 76.9452 292.616 76.5933 293.192 76.4653L293.288 79.7927C293.224 80.2726 293 80.5605 292.52 80.5605ZM297.351 82.5122V80.5605H296.263C296.071 80.5605 295.912 80.4325 295.784 80.2406C295.624 80.0166 295.56 79.7607 295.56 79.4087C295.56 79.3768 295.56 79.3448 295.56 79.3448L295.528 76.9132C295.528 76.0814 295.624 75.5375 295.784 75.2495C295.368 74.9296 294.856 74.7696 294.248 74.7696C292.552 74.7057 291.24 75.0896 290.281 75.8894C289.353 76.6573 288.841 77.7131 288.809 79.1208C288.777 80.0806 289.065 80.8485 289.673 81.5203C290.345 82.1922 291.24 82.5441 292.392 82.5441H293.256C293.992 82.5441 294.6 82.3202 295.016 81.9043C295.24 82.3202 295.656 82.5121 296.263 82.5441H297.351V82.5122ZM294.664 73.5539C295.016 73.5539 295.272 73.4579 295.528 73.2339C295.752 73.01 295.848 72.754 295.848 72.4341C295.848 72.1781 295.752 71.9542 295.56 71.7622C295.368 71.5703 295.112 71.5063 294.824 71.5063C294.504 71.5063 294.248 71.6022 293.992 71.8262C293.768 72.0502 293.64 72.3061 293.64 72.6261C293.64 72.914 293.736 73.138 293.896 73.3299C294.12 73.4579 294.344 73.5539 294.664 73.5539ZM291.912 73.5539C292.264 73.5539 292.552 73.4579 292.776 73.2339C293 73.01 293.096 72.754 293.096 72.4341C293.096 72.1781 293 71.9542 292.808 71.7622C292.616 71.5703 292.36 71.5063 292.072 71.5063C291.752 71.5063 291.464 71.6022 291.24 71.8262C291.016 72.0502 290.92 72.3061 290.92 72.6261C290.92 72.914 291.016 73.138 291.176 73.3299C291.368 73.4579 291.624 73.5539 291.912 73.5539ZM283.818 72.2421C283.818 71.3783 283.914 70.7704 284.106 70.4825C283.69 70.1625 283.178 69.9706 282.57 69.9706C282.218 69.9706 281.93 70.0665 281.738 70.2585C281.546 70.4505 281.45 70.7384 281.45 71.0583C281.45 71.4103 281.482 72.914 281.514 75.6015L281.546 80.2406C281.546 81.1044 281.45 81.6803 281.258 82.0002C281.674 82.3522 282.186 82.5122 282.794 82.5122C283.146 82.5122 283.402 82.4162 283.626 82.2242C283.818 82.0322 283.914 81.7443 283.914 81.4244L283.85 76.8812C283.818 74.1298 283.818 72.626 283.818 72.2421ZM273.708 85.5836C273.292 85.5196 273.068 85.2636 273.068 84.8477C273.068 84.6557 273.132 84.4638 273.26 84.3358C273.388 84.2078 273.58 84.1438 273.772 84.1438C273.836 84.1438 273.964 84.1438 274.092 84.1758V84.2078C274.124 84.3038 274.092 84.3998 274.06 84.4638C274.028 84.5278 273.996 84.5598 273.964 84.5598C274.092 84.6557 274.284 84.7197 274.508 84.7197C274.796 84.7197 274.924 84.5918 274.956 84.3038C274.988 84.0479 274.924 83.8879 274.796 83.7279C274.572 83.504 274.22 83.376 273.74 83.376C273.26 83.376 272.844 83.504 272.556 83.7599C272.268 84.0159 272.108 84.3358 272.108 84.7197C272.108 85.0397 272.204 85.2956 272.396 85.5836H271.852C271.756 85.5836 271.66 85.5516 271.596 85.4556C271.468 85.6156 271.404 85.7755 271.404 85.9355C271.404 86.0635 271.436 86.1594 271.532 86.2554C271.628 86.3514 271.724 86.4154 271.852 86.4154H274.732C274.828 86.4154 274.924 86.4794 275.02 86.5434C275.148 86.3834 275.211 86.1914 275.211 85.9355C275.211 85.7115 275.052 85.5836 274.764 85.5836H273.708V85.5836ZM280.139 70.5145C279.723 70.1945 279.211 70.0025 278.603 70.0025C278.251 70.0025 277.995 70.0985 277.803 70.2905C277.611 70.4825 277.515 70.7384 277.515 71.0903C277.515 71.5063 277.515 72.882 277.547 75.1856L277.579 79.4407C277.579 79.8247 277.515 80.1126 277.419 80.3046C277.291 80.4645 277.099 80.5605 276.843 80.5605H274.828L274.732 74.0978C274.732 73.2339 274.828 72.658 274.988 72.3381C274.572 72.0182 274.06 71.8582 273.452 71.8582C273.1 71.8582 272.844 71.9542 272.62 72.1461C272.428 72.3381 272.332 72.626 272.332 72.946C272.332 73.2339 272.364 74.3857 272.396 76.4333C272.428 78.6089 272.46 79.8247 272.46 80.0166C272.46 80.1446 272.46 80.3366 272.428 80.5605H271.084C270.796 80.5605 270.54 80.4325 270.316 80.2086C269.996 80.6245 269.837 81.0724 269.837 81.5203C269.837 82.1282 270.252 82.4482 271.084 82.4802H278.059C279.275 82.4802 279.883 81.8083 279.883 80.4965L279.851 72.2421C279.851 71.3783 279.947 70.8024 280.139 70.5145ZM265.101 80.5605C264.59 80.4645 264.174 80.2406 263.886 79.8887C263.566 79.5367 263.406 79.0888 263.406 78.5769C263.406 78.001 263.566 77.5531 263.918 77.2012C264.27 76.8492 264.718 76.6893 265.261 76.6893C265.549 76.6893 265.837 76.7533 266.125 76.8492V76.8812C266.157 77.1372 266.157 77.3611 266.093 77.5851C265.997 77.7771 265.901 77.873 265.773 77.873C266.157 78.129 266.637 78.257 267.245 78.257C267.981 78.257 268.365 77.905 268.429 77.1692C268.493 76.5293 268.333 76.0174 267.981 75.6655C267.341 75.0256 266.413 74.7376 265.165 74.7376C263.854 74.7376 262.798 75.0576 261.998 75.7295C261.198 76.3693 260.814 77.2652 260.814 78.321C260.814 79.1528 261.07 79.9206 261.55 80.6245H259.087V82.5761H267.821C268.109 82.5761 268.365 82.7041 268.589 82.8961C268.909 82.4802 269.069 82.0322 269.069 81.5843C269.069 80.9764 268.653 80.6565 267.789 80.6245H265.101V80.5605ZM264.494 73.6499C264.813 73.6499 265.101 73.5539 265.325 73.3299C265.549 73.106 265.677 72.85 265.677 72.4981C265.677 72.2421 265.581 72.0182 265.389 71.8262C265.197 71.6342 264.941 71.5703 264.654 71.5703C264.334 71.5703 264.078 71.6662 263.854 71.8902C263.63 72.1141 263.534 72.3701 263.534 72.69C263.534 72.978 263.63 73.2019 263.79 73.3939C263.95 73.5539 264.174 73.6499 264.494 73.6499ZM259.662 82.5122V80.5605H257.711C257.455 80.5605 257.263 80.4645 257.135 80.3046C257.039 80.1446 256.975 79.8567 256.975 79.4407L257.007 72.2421C257.007 71.3783 257.103 70.7704 257.295 70.4825C256.879 70.1625 256.367 69.9706 255.759 69.9706C255.407 69.9706 255.151 70.0665 254.959 70.2585C254.767 70.4505 254.671 70.7384 254.671 71.0583L254.735 75.2815C254.735 76.7213 254.735 78.4489 254.735 80.4965C254.735 81.8403 255.343 82.4802 256.559 82.4802H259.662V82.5122ZM250.64 74.7376C250.288 74.7376 250.032 74.8336 249.808 75.0256C249.648 75.2176 249.552 75.5055 249.552 75.8254C249.552 76.0814 249.552 76.6573 249.584 77.5531C249.616 78.6729 249.616 79.2808 249.616 79.4087C249.616 79.8247 249.552 80.1126 249.456 80.2726C249.36 80.4325 249.169 80.5285 248.881 80.5285H247.377V82.4802H250.096C251.312 82.4802 251.92 81.8083 251.92 80.4965L251.888 76.9772C251.888 76.1134 251.984 75.5055 252.144 75.2176C251.76 74.8976 251.248 74.7376 250.64 74.7376ZM252.112 73.5539C252.432 73.5539 252.72 73.4579 252.944 73.2339C253.168 73.01 253.296 72.754 253.296 72.4341C253.296 72.1781 253.2 71.9542 253.008 71.7622C252.816 71.5703 252.592 71.4743 252.272 71.4743C251.952 71.4743 251.664 71.6022 251.44 71.7942C251.216 72.0182 251.12 72.2741 251.12 72.5941C251.12 72.882 251.216 73.106 251.376 73.2659C251.536 73.4259 251.824 73.5539 252.112 73.5539ZM249.392 73.5539C249.744 73.5539 250.032 73.4579 250.256 73.2339C250.48 73.01 250.576 72.754 250.576 72.4341C250.576 72.1781 250.48 71.9542 250.288 71.7622C250.096 71.5703 249.872 71.5063 249.552 71.5063C249.232 71.5063 248.945 71.6342 248.721 71.8262C248.497 72.0502 248.401 72.3061 248.401 72.6261C248.401 72.914 248.497 73.1379 248.657 73.2979C248.817 73.4579 249.105 73.5539 249.392 73.5539ZM250.896 71.0583C251.248 71.0583 251.504 70.9624 251.76 70.7384C252.016 70.5145 252.112 70.2585 252.112 69.9386C252.112 69.6826 252.016 69.4587 251.824 69.2667C251.632 69.0747 251.376 69.0107 251.088 69.0107C250.768 69.0107 250.48 69.1067 250.256 69.3307C250.032 69.5546 249.936 69.8106 249.936 70.1305C249.936 70.4185 250.032 70.6424 250.192 70.8024C250.352 70.9624 250.608 71.0583 250.896 71.0583ZM242.962 80.5605C241.938 80.5605 241.426 80.0806 241.426 79.0888C241.426 78.5769 241.65 78.033 242.098 77.4891C242.546 76.9452 243.058 76.5933 243.634 76.4653L243.698 79.7927C243.698 80.2726 243.442 80.5605 242.962 80.5605ZM247.793 82.5122V80.5605H246.737C246.545 80.5605 246.385 80.4325 246.257 80.2406C246.097 80.0166 246.033 79.7607 246.033 79.4087C246.033 79.3768 246.033 79.3448 246.033 79.3448L246.001 76.9132C246.001 76.0814 246.097 75.5375 246.257 75.2495C245.841 74.9296 245.329 74.7696 244.721 74.7696C243.026 74.7057 241.714 75.0896 240.754 75.8894C239.826 76.6573 239.314 77.7131 239.282 79.1208C239.25 80.0806 239.538 80.8485 240.146 81.5203C240.818 82.1922 241.714 82.5441 242.866 82.5441H243.73C244.465 82.5441 245.073 82.3202 245.489 81.9043C245.713 82.3202 246.129 82.5121 246.737 82.5441H247.793V82.5122ZM245.105 73.5539C245.457 73.5539 245.713 73.4579 245.969 73.2339C246.193 73.01 246.321 72.754 246.321 72.4341C246.321 72.1781 246.225 71.9542 246.033 71.7622C245.841 71.5703 245.585 71.5063 245.297 71.5063C244.977 71.5063 244.721 71.6022 244.465 71.8262C244.241 72.0502 244.113 72.3061 244.113 72.6261C244.113 72.914 244.209 73.138 244.369 73.3299C244.561 73.4579 244.817 73.5539 245.105 73.5539ZM242.354 73.5539C242.706 73.5539 242.994 73.4579 243.218 73.2339C243.442 73.01 243.57 72.754 243.57 72.4341C243.57 72.1781 243.474 71.9542 243.282 71.7622C243.09 71.5703 242.834 71.5063 242.546 71.5063C242.226 71.5063 241.938 71.6022 241.714 71.8262C241.49 72.0502 241.362 72.3061 241.362 72.6261C241.362 72.914 241.458 73.138 241.65 73.3299C241.842 73.4579 242.066 73.5539 242.354 73.5539ZM234.259 72.2421C234.259 71.3783 234.355 70.7704 234.515 70.4825C234.099 70.1625 233.587 69.9706 232.98 69.9706C232.628 69.9706 232.34 70.0665 232.148 70.2585C231.956 70.4505 231.86 70.7384 231.86 71.0583C231.86 71.4103 231.892 72.914 231.924 75.6015L231.988 80.2086C231.988 81.0724 231.892 81.6483 231.732 81.9683C232.148 82.3202 232.66 82.4802 233.268 82.4802C233.62 82.4802 233.875 82.3842 234.099 82.1922C234.291 82.0002 234.387 81.7123 234.387 81.3924L234.323 76.8492C234.291 74.1298 234.259 72.626 234.259 72.2421ZM224.149 85.5836C223.733 85.5196 223.509 85.2636 223.509 84.8477C223.509 84.6557 223.573 84.4638 223.701 84.3358C223.829 84.2078 224.021 84.1438 224.213 84.1438C224.277 84.1438 224.405 84.1438 224.533 84.1758V84.2078C224.565 84.3038 224.533 84.3998 224.501 84.4638C224.469 84.5278 224.437 84.5598 224.405 84.5598C224.533 84.6557 224.725 84.7197 224.949 84.7197C225.237 84.7197 225.365 84.5918 225.397 84.3038C225.429 84.0479 225.365 83.8879 225.237 83.7279C225.013 83.504 224.661 83.376 224.181 83.376C223.701 83.376 223.285 83.504 222.998 83.7599C222.71 84.0159 222.55 84.3358 222.55 84.7197C222.55 85.0397 222.646 85.2956 222.838 85.5836H222.294C222.198 85.5836 222.102 85.5516 222.038 85.4556C221.91 85.6156 221.846 85.7755 221.846 85.9355C221.846 86.0635 221.878 86.1594 221.974 86.2554C222.07 86.3514 222.166 86.4154 222.294 86.4154H225.173C225.269 86.4154 225.365 86.4794 225.461 86.5434C225.589 86.3834 225.653 86.1914 225.653 85.9355C225.653 85.7115 225.493 85.5836 225.205 85.5836H224.149V85.5836ZM230.58 70.5145C230.164 70.1945 229.652 70.0025 229.044 70.0025C228.692 70.0025 228.436 70.0985 228.245 70.2905C228.053 70.4825 227.957 70.7384 227.957 71.0903C227.957 71.5063 227.957 72.882 227.989 75.1856L228.021 79.4407C228.021 79.8247 227.957 80.1126 227.861 80.3046C227.733 80.4645 227.541 80.5605 227.285 80.5605H225.237L225.141 74.0978C225.141 73.2339 225.237 72.658 225.397 72.3381C224.981 72.0182 224.469 71.8582 223.861 71.8582C223.541 71.8582 223.253 71.9542 223.03 72.1461C222.838 72.3381 222.742 72.626 222.742 72.946C222.742 73.2339 222.774 74.3857 222.806 76.4333C222.838 78.6089 222.87 79.8247 222.87 80.0166C222.87 80.1446 222.87 80.3366 222.838 80.5605H221.494C221.206 80.5605 220.95 80.4325 220.726 80.2086C220.406 80.6245 220.246 81.0724 220.246 81.5203C220.246 82.1282 220.662 82.4482 221.494 82.4802H228.468C229.684 82.4802 230.292 81.8083 230.292 80.4965L230.26 72.2421C230.292 71.3783 230.388 70.8024 230.58 70.5145ZM219.574 75.2495C219.158 74.9296 218.646 74.7696 218.038 74.7696C217.687 74.7696 217.431 74.8656 217.239 75.0576C217.047 75.2495 216.951 75.5055 216.951 75.8574C216.951 76.1134 216.951 76.6893 216.983 77.5851C217.015 78.7049 217.015 79.3128 217.015 79.4727C217.015 79.8567 216.951 80.1446 216.855 80.3366C216.759 80.4965 216.567 80.5925 216.279 80.5925H214.775V82.5441H217.495C218.71 82.5441 219.318 81.8723 219.318 80.5605L219.286 77.0412C219.286 76.1454 219.382 75.5375 219.574 75.2495ZM218.07 73.138C218.422 73.138 218.71 73.042 218.934 72.818C219.158 72.5941 219.286 72.3381 219.286 71.9862C219.286 71.7302 219.19 71.5063 218.998 71.3143C218.806 71.1223 218.55 71.0583 218.262 71.0583C217.943 71.0583 217.655 71.1543 217.431 71.3783C217.207 71.6022 217.111 71.8582 217.111 72.1781C217.111 72.4661 217.207 72.69 217.367 72.882C217.527 73.074 217.783 73.138 218.07 73.138ZM215.127 82.5122V80.5605H214.071C213.911 80.5605 213.719 80.4645 213.591 80.2726C213.431 80.0486 213.367 79.7927 213.367 79.4407C213.367 79.4087 213.367 79.3448 213.335 79.3128C213.303 78.193 213.303 77.5211 213.303 77.3291C213.303 76.2733 213.399 75.6015 213.559 75.2815C213.207 74.9616 212.632 74.8016 211.896 74.8016C211.256 74.8016 210.936 75.1536 210.936 75.8894L210.968 77.5851C211 78.4809 211 79.1208 211 79.4727C211 79.8567 210.936 80.1446 210.84 80.3366C210.712 80.4965 210.52 80.5925 210.264 80.5925C209.944 80.5925 209.688 80.5605 209.56 80.4965C209.368 80.4006 209.24 80.1766 209.24 79.8887L209.208 77.3611C209.208 76.5933 209.304 76.0814 209.464 75.7934C209.112 75.4735 208.536 75.3135 207.8 75.3135C207.161 75.3135 206.841 75.6655 206.841 76.4013L206.873 77.873C206.905 78.6409 206.905 79.1848 206.905 79.5367C206.905 79.9206 206.841 80.2086 206.745 80.4006C206.649 80.5605 206.457 80.6565 206.169 80.6565C205.849 80.6565 205.593 80.6245 205.465 80.5605C205.273 80.4645 205.145 80.2726 205.113 80.0166V78.9608C205.113 78.6089 205.113 78.257 205.113 77.905C205.113 77.2332 205.209 76.7533 205.401 76.4653C204.985 76.1134 204.473 75.9534 203.865 75.9534C203.513 75.9534 203.257 76.0494 203.033 76.2414C202.841 76.4333 202.745 76.7213 202.745 77.0412C202.745 77.1692 202.777 77.5531 202.809 78.225C202.841 78.9608 202.841 79.4087 202.841 79.5687C202.841 79.9526 202.777 80.2406 202.681 80.4325C202.585 80.5925 202.393 80.6885 202.106 80.6885H200.474V82.6401H203.321C204.025 82.6401 204.537 82.2882 204.857 81.5523C205.305 82.2882 206.169 82.6401 207.385 82.6401C208.216 82.6401 208.76 82.3202 209.016 81.6803C209.496 82.3202 210.296 82.6401 211.448 82.6401C212.088 82.6401 212.568 82.4482 212.855 82.0322C213.111 82.4162 213.495 82.6401 213.975 82.6401H215.127V82.5122ZM201.082 82.5122V80.5605H199.13C198.842 80.5605 198.682 80.4645 198.554 80.3046C198.458 80.1446 198.394 79.8567 198.394 79.4407L198.426 72.2421C198.426 71.3783 198.522 70.7704 198.714 70.4825C198.298 70.1625 197.786 69.9706 197.179 69.9706C196.827 69.9706 196.571 70.0665 196.379 70.2585C196.187 70.4505 196.091 70.7384 196.091 71.0583L196.123 75.2815C196.123 76.7213 196.123 78.4489 196.123 80.4965C196.123 81.8403 196.731 82.4802 197.946 82.4802H201.082V82.5122ZM194.747 75.2495C194.331 74.9296 193.819 74.7696 193.211 74.7696C192.859 74.7696 192.603 74.8656 192.411 75.0576C192.219 75.2495 192.123 75.5055 192.123 75.8574C192.123 76.1134 192.123 76.6893 192.155 77.5851C192.187 78.7049 192.187 79.3128 192.187 79.4727C192.187 79.8567 192.123 80.1446 192.027 80.3366C191.932 80.4965 191.74 80.5925 191.452 80.5925H189.948V82.5441H192.667C193.883 82.5441 194.491 81.8723 194.491 80.5605L194.459 77.0412C194.491 76.1454 194.587 75.5375 194.747 75.2495ZM193.243 73.138C193.595 73.138 193.851 73.042 194.107 72.818C194.331 72.5941 194.459 72.3381 194.459 71.9862C194.459 71.7302 194.363 71.5063 194.171 71.3143C193.979 71.1223 193.723 71.0583 193.435 71.0583C193.115 71.0583 192.827 71.1543 192.603 71.3783C192.379 71.6022 192.283 71.8582 192.283 72.1781C192.283 72.4661 192.379 72.69 192.539 72.882C192.731 73.074 192.955 73.138 193.243 73.138ZM187.42 83.472C187.1 83.472 186.844 83.5679 186.589 83.7919C186.333 84.0159 186.269 84.2718 186.269 84.5918C186.269 84.8797 186.365 85.1037 186.525 85.2956C186.717 85.4556 186.94 85.5516 187.228 85.5516C187.58 85.5516 187.836 85.4556 188.092 85.2316C188.316 85.0077 188.412 84.7517 188.412 84.4318C188.412 84.1758 188.316 83.9519 188.124 83.7599C187.964 83.5679 187.74 83.472 187.42 83.472ZM184.733 83.472C184.413 83.472 184.125 83.5679 183.901 83.7919C183.677 84.0159 183.581 84.2718 183.581 84.5918C183.581 84.8797 183.677 85.1037 183.837 85.2956C184.029 85.4556 184.253 85.5516 184.541 85.5516C184.893 85.5516 185.181 85.4556 185.405 85.2316C185.629 85.0077 185.725 84.7517 185.725 84.4318C185.725 84.1758 185.629 83.9519 185.437 83.7599C185.245 83.5679 185.021 83.472 184.733 83.472ZM190.332 82.5122V80.5605H187.772C187.612 80.5605 187.452 80.4645 187.292 80.2726C187.132 80.0806 187.068 79.8247 187.036 79.5047L187.004 77.0092C187.004 76.1454 187.1 75.5695 187.26 75.2495C186.844 74.8976 186.333 74.7376 185.725 74.7376C185.373 74.7376 185.117 74.8336 184.925 75.0256C184.733 75.2176 184.637 75.5055 184.637 75.8254C184.637 76.0814 184.637 76.6573 184.669 77.5531C184.701 78.6729 184.701 79.2808 184.701 79.4087C184.701 79.8247 184.637 80.1126 184.541 80.2726C184.445 80.4325 184.253 80.5285 183.965 80.5285H182.461V82.4802H185.181C185.789 82.4802 186.237 82.3202 186.557 81.9683C186.781 82.3202 187.164 82.4802 187.708 82.4802H190.332V82.5122ZM178.078 80.5605C177.054 80.5605 176.542 80.0806 176.542 79.0888C176.542 78.5769 176.766 78.033 177.214 77.4891C177.662 76.9452 178.174 76.5933 178.75 76.4653L178.846 79.7927C178.814 80.2726 178.558 80.5605 178.078 80.5605ZM182.909 82.5122V80.5605H181.853C181.661 80.5605 181.502 80.4325 181.374 80.2406C181.214 80.0166 181.15 79.7607 181.15 79.4087C181.15 79.3768 181.15 79.3448 181.15 79.3448L181.118 76.9132C181.118 76.0814 181.214 75.5375 181.374 75.2495C180.958 74.9296 180.446 74.7696 179.838 74.7696C178.142 74.7057 176.83 75.0896 175.871 75.8894C174.943 76.6573 174.431 77.7131 174.399 79.1208C174.367 80.0806 174.655 80.8485 175.263 81.5203C175.935 82.1922 176.83 82.5441 177.982 82.5441H178.846C179.582 82.5441 180.19 82.3202 180.606 81.9043C180.83 82.3202 181.246 82.5121 181.853 82.5441H182.909V82.5122ZM180.222 73.5539C180.542 73.5539 180.83 73.4579 181.086 73.2339C181.31 73.01 181.406 72.754 181.406 72.4341C181.406 72.1781 181.31 71.9542 181.118 71.7622C180.926 71.5703 180.67 71.5063 180.382 71.5063C180.062 71.5063 179.806 71.6022 179.55 71.8262C179.326 72.0502 179.198 72.3061 179.198 72.6261C179.198 72.914 179.294 73.138 179.454 73.3299C179.71 73.4579 179.934 73.5539 180.222 73.5539ZM177.47 73.5539C177.822 73.5539 178.11 73.4579 178.334 73.2339C178.558 73.01 178.654 72.754 178.654 72.4341C178.654 72.1781 178.558 71.9542 178.366 71.7622C178.174 71.5703 177.918 71.5063 177.63 71.5063C177.31 71.5063 177.022 71.6022 176.798 71.8262C176.574 72.0502 176.478 72.3061 176.478 72.6261C176.478 72.914 176.574 73.138 176.734 73.3299C176.958 73.4579 177.182 73.5539 177.47 73.5539Z" fill="#9F9745"/>
</svg>
