<svg width="1191" height="400" viewBox="0 0 1191 400" fill="none" xmlns="http://www.w3.org/2000/svg">
<path d="M363.423 332.167C363.423 332.167 367.516 325.06 370.865 316.986C373.619 310.363 376.186 298.158 379.051 290.232C384.484 275.163 389.619 265.19 389.619 265.19C389.619 265.19 376.484 270.846 364.689 284.763C357.023 293.804 353.005 309.656 346.121 319.665C335.777 334.697 324.019 342.623 324.019 342.623C324.019 342.623 365.842 355.163 392.856 348.13C431.554 338.046 442.53 309.432 442.53 309.432C442.53 309.432 418.977 322.604 399.33 327.59C379.572 332.539 363.423 332.167 363.423 332.167Z" fill="#096939"/>
<path d="M840.261 18.3447C832.968 18.3447 827.088 24.2238 827.088 31.5168V120.968H763.312C755.349 120.968 749.395 125.396 746.828 130.866L735.256 152.484V18.3447H667.982C660.726 18.3447 654.809 24.2238 654.809 31.5168V304.745H722.084C729.34 304.745 735.256 298.828 735.256 291.573V191.256H827.088V304.745H894.363C901.619 304.745 907.535 298.828 907.535 291.573V18.3447H840.261Z" fill="#096939"/>
<path d="M1121.53 18.3447C1114.23 18.3447 1108.35 24.2238 1108.35 31.5168V120.968H1044.58C1036.61 120.968 1030.66 125.396 1028.09 130.866L1016.52 152.484V18.3447H949.209C941.954 18.3447 936.037 24.2238 936.037 31.5168V304.745H1003.31C1010.57 304.745 1016.48 298.828 1016.48 291.573V191.256H1108.32V304.745H1175.59C1182.85 304.745 1188.76 298.828 1188.76 291.573V18.3447H1121.53Z" fill="#096939"/>
<path d="M626.754 291.758C626.754 299.051 620.837 304.93 613.582 304.93H543.33V102.586C543.33 95.33 548.279 91.1998 556.503 89.4138L626.754 81.5254V291.758Z" fill="#096939"/>
<path d="M543.33 31.5168C543.33 24.261 549.209 18.3447 556.503 18.3447H626.754V52.8377C626.754 60.1308 622.14 63.8145 613.582 66.0098L543.33 73.8982V31.5168Z" fill="#096939"/>
<path d="M306.568 153.675C306.568 153.675 296.782 154.791 296.782 163.87C296.782 171.089 302.14 175.256 305.861 175.628C309.916 176.038 317.619 173.284 317.619 164.279C317.619 153.712 306.568 153.675 306.568 153.675Z" fill="#9F9745"/>
<path d="M388.577 176.52C388.428 178.083 387.089 181.023 386.642 182.995C385.675 187.832 384.744 190.697 383.182 195.46L382.586 195.162C382.586 195.162 380.837 191.107 378.196 180.725C377.005 176.037 375.628 169.339 374.065 162.865C375.963 162.344 378.456 161.488 380.279 161.19C387.833 160 387.461 157.544 387.461 157.544C387.461 157.544 388.168 159.627 387.089 162.79C386.01 165.953 386.531 170.158 387.535 171.572C388.577 172.986 388.8 174.995 388.577 176.52ZM370.828 151.776C370.344 150.474 369.861 149.246 369.377 148.13C362.828 133.916 353.079 126.809 353.079 126.809C353.079 126.809 343.777 118.623 331.758 117.395C329.191 117.134 326.586 117.097 324.056 117.172H324.093C323.758 116.651 321.563 109.544 321.451 109.246L320.707 107.088C320.707 107.088 319.479 108.093 319.07 109.581C318.996 109.916 320.856 116.948 320.744 117.358C317.805 117.618 315.126 117.99 312.819 118.4C312.596 117.841 312.372 117.358 312.335 117.209C311.517 114.79 310.735 110.66 310.549 109.283C310.363 107.869 311.182 107.125 311.368 106.083L312.558 102.325C312.931 101.358 312.744 101.358 314.307 101.73C315.87 102.139 318.103 102.362 318.103 102.362C318.103 102.362 318.921 98.7903 317.321 95.4414C315.721 92.0182 315.163 90.0461 315.163 90.0461C315.163 90.0461 314.94 89.4507 317.917 87.0693C320.893 84.7252 329.451 78.5856 333.21 76.167C337.005 73.8228 336.596 74.0461 339.982 71.9996C343.293 70.1019 345.675 67.4973 345.675 67.4973C345.675 67.4973 352.596 73.8228 358.921 81.9717C365.247 90.1577 374.289 102.846 375.256 102.474C376.298 102.065 375.293 97.3391 376.856 97.1159C378.456 96.967 381.247 99.5345 383.033 101.358C384.782 103.107 386.382 103.367 386.196 104.707C385.972 106.121 386.754 108.055 385.414 107.907C383.963 107.683 383.814 106.716 382.624 106.716L380.056 106.865L379.051 109.469L380.056 112.893C380.205 114.046 381.024 118.251 381.917 121.376C382.958 124.576 384.521 131.534 384.707 133.097C384.931 134.697 385.079 141.246 385.265 143.218C385.451 145.227 385.079 150.176 385.079 150.176L383.07 151.144C381.544 151.925 379.684 153.153 378.121 152.93C376.521 152.707 373.954 151.888 371.424 151.702C371.386 151.739 371.163 151.739 370.828 151.776ZM303.182 60.9484C295.703 41.9717 287.703 34.6042 287.703 34.6042C287.703 34.6042 289.675 32.5949 291.051 31.5903C292.428 30.5856 293.619 30.8089 293.619 30.8089C293.619 30.8089 297.935 32.3717 312.782 39.0321C327.665 45.6182 332.131 51.6089 333.731 52.7996C335.293 53.9531 334.475 55.367 334.475 55.367C334.475 55.367 335.665 54.5856 335.517 56.7438C335.293 58.9391 332.093 62.1391 327.517 64.074C322.977 66.1205 312.856 69.6182 310.698 70.5484C308.503 71.6275 305.898 67.981 303.182 60.9484ZM306.01 119.888C306.01 119.888 292.949 124.093 282.158 124.279C274.27 124.427 265.861 122.418 265.861 122.418C265.861 122.418 260.019 121.116 255.814 123.051C254.289 123.758 252.8 125.06 251.647 126.251C250.94 123.2 249.861 118.437 250.977 114.641C251.684 112.037 251.721 110.883 256.298 106.753C260.837 102.586 265.414 101.767 267.61 101.246C269.805 100.651 275.126 100.502 284.056 97.9345C292.986 95.4042 295.182 94.1763 295.182 94.1763C295.182 94.1763 296.558 91.1996 298.531 93.8042C299.944 95.6647 305.6 107.2 309.135 119.181C307.2 119.553 306.01 119.888 306.01 119.888ZM264.149 152.781C258.977 152.744 254.549 152.744 254.028 152.744C252.019 152.744 247.926 153.153 245.321 154.12C242.754 155.125 240.968 155.907 239.628 155.683C238.177 155.497 232.633 153.897 230.921 153.079C229.135 152.26 226.94 151.888 225.34 152.074C223.777 152.26 224 152.26 222.958 153.004L221.172 154.493C221.172 154.493 218.047 152.074 216.447 152.483C213.731 153.116 208.521 152.632 205.768 153.227C202.977 153.823 196.056 154.381 193.265 154.567C190.549 154.79 186.307 153.711 182.438 152.93C178.456 152.111 175.889 152.26 175.889 152.26L176.112 147.721C176.298 146.716 176.893 146.716 176.67 144.372C176.521 141.953 176.261 140.614 176.112 137.227C175.963 133.841 175.331 131.46 175.74 129.302C176.149 127.144 177.117 121.6 179.572 113.265C181.917 104.893 183.554 99.9438 184.372 97.7856C185.154 95.5903 185.563 93.2089 187.721 93.6182C189.954 94.0275 202.605 97.2275 205.768 97.6368C208.931 98.0089 217.414 100.465 223.591 102.251C229.656 104.074 232.633 106.716 234.605 107.683C236.651 108.651 237.358 108.651 237.21 110.697C237.024 112.669 236.354 118.4 235.721 121.19C235.163 123.944 236.503 130.53 236.875 133.097C237.284 135.665 240.67 146.455 240.67 146.455C240.67 146.455 242.605 144.632 243.982 141.469C245.433 138.269 245.433 136.521 246.958 137.525C248.596 138.53 251.572 141.097 251.572 141.097C251.572 141.097 251.721 140.093 251.572 138.679C251.424 137.786 251.833 134.065 251.982 131.386C255.293 135.441 261.47 143.776 264.149 152.781ZM255.814 193.302C255.814 193.302 254.14 196.055 251.535 200.558C250.865 196.539 249.972 191.962 250.047 191.404C250.27 190.325 250.047 188.204 250.047 184.855C250.047 181.507 251.721 179.795 252.912 176.26C254.14 172.725 259.2 170.716 261.731 169.6C262.289 169.376 263.703 168.893 264.893 168.558C262.921 181.73 255.814 193.302 255.814 193.302ZM232.558 219.758C229.544 219.869 226.047 220.576 221.842 221.097C213.433 222.102 210.456 225.116 205.21 227.014C199.963 228.911 194.679 231.367 192.186 231.367L187.498 231.293C187.498 231.293 186.419 228.874 184.856 225.376C183.256 221.841 181.731 216.446 179.126 209.339C176.558 202.307 175.331 201.972 175.479 197.73C175.703 193.562 175.145 190.883 175.405 188.093C175.517 185.265 176.447 184.26 175.591 182.437C174.661 180.688 174.326 179.609 173.656 179.162L172.465 177.414L172.838 174.92C173.917 173.841 176.447 172.13 184.372 170.344C192.224 168.632 197.21 169.153 200.298 168.669C203.461 168.148 207.293 167.776 210.642 167.851C213.991 167.851 216.931 168.893 222.549 169.376C228.168 169.972 229.879 171.348 232.633 172.576C235.498 173.916 236.354 175.107 236.205 176.818C235.982 178.567 236.205 218.753 236.205 218.753C236.205 218.753 235.424 219.609 232.558 219.758ZM229.47 247.888C222.958 267.237 224.782 292.093 225.489 299.051C225.228 299.088 225.005 299.2 224.744 299.237C222.475 299.497 216.744 297.451 210.233 284.279C208.633 280.855 204.019 270.883 200.038 261.06C195.982 251.162 193.563 248.223 193.563 248.223C193.563 248.223 192.558 246.958 194.307 246.102C196.019 245.172 205.321 241.227 207.405 240.186C209.563 239.144 213.768 237.209 216.186 237.06C218.679 236.874 223.851 237.06 226.344 237.283C228.763 237.469 228.726 236.279 230.921 238.214C230.958 238.251 231.777 238.697 232.67 239.181C231.517 242.12 230.438 244.986 229.47 247.888ZM199.517 294.065C197.656 293.73 194.084 293.544 189.396 291.944C184.67 290.344 176.261 285.06 167.554 279.218C158.81 273.413 153.079 269.023 153.079 269.023C153.079 269.023 148.986 267.981 152.484 265.674C156.056 263.404 169.898 255.925 172.168 254.846C174.438 253.841 178.642 251.534 183.703 258.195C188.763 264.893 195.721 280 197.768 284.613C199.889 289.153 202.158 293.73 202.158 293.73C202.158 293.73 201.489 294.4 199.517 294.065ZM169.638 216.707C168.112 213.693 167.591 209.339 166.363 206.362C165.172 203.386 164.131 198.958 164.131 198.958C164.131 198.958 163.089 194.753 166.251 194.753C169.377 194.753 169.228 195.683 170.642 197.581C171.945 199.516 172.875 202.009 173.545 202.716V206.548L172.614 210.083C173.172 211.311 172.763 210.939 173.507 213.097C174.177 215.218 174.884 217.786 175.591 219.609C176.298 221.395 176.744 223.814 176.596 225.414C176.41 226.939 175.889 229.246 175.703 231.702C175.517 234.12 174.624 236.911 174.624 236.911C174.624 236.911 173.656 235.348 173.656 232.707C173.656 230.139 173.284 227.46 172.205 225.339C171.238 223.218 171.238 219.683 169.638 216.707ZM281.675 42.5298C281.675 42.5298 290.94 53.0973 293.879 61.9903C296.819 70.9577 298.791 72.9298 298.791 72.9298C298.791 72.9298 294.475 73.7856 288.558 61.767C285.582 55.8507 284.465 49.86 283.461 47.4042C282.419 45.0973 281.675 42.5298 281.675 42.5298ZM194.307 74.4182C195.535 68.874 203.647 45.2461 219.982 27.1996C221.396 25.6368 225.712 22.6601 229.507 22.4368C233.228 22.288 233.824 27.2368 234.568 28.8368C235.349 30.3996 236.614 37.2089 235.721 39.5903C234.94 41.9717 233.898 46.288 233.526 49.7112C233.117 53.0973 234.344 55.2182 235.275 57.6368C236.317 59.981 237.247 63.0321 238.81 62.8089C240.41 62.6228 242.419 60.8368 244.019 59.6461C245.656 58.4926 249.377 55.7391 249.786 51.1252C250.196 46.5484 249.228 43.981 248.633 41.4508C248.038 38.8461 248.038 36.874 247.889 33.6368C247.703 30.5112 248.819 29.3205 248.819 29.3205C248.819 29.3205 248.819 26.9391 250.679 24.1484C252.465 21.3577 255.07 20.9856 256.447 21.3577C257.824 21.8042 262.772 23.181 269.693 34.9019C270.586 36.5019 275.014 44.874 279.889 57.3763C280.744 59.5345 282.233 66.9019 284.8 71.0694C287.405 75.274 289.712 80.8182 289.712 80.8182C289.712 80.8182 279.851 84.9484 269.731 86.3252C267.237 86.6973 259.61 87.5159 256.224 85.4693C252.912 83.4973 252.689 80.2973 252.912 79.1438L251.907 74.1577C251.907 72.967 249.972 67.0507 247.219 64.2601C244.391 61.4694 244.391 63.0321 245.024 64.4461C245.582 65.86 246.735 73.7856 243.796 73.9345L242.419 72.5205C241.451 71.367 239.665 71.367 237.879 71.1438C236.131 70.9577 235.684 72.3345 235.87 73.8973C236.056 75.46 235.833 81.2647 235.833 81.2647C235.833 81.2647 235.833 87.4414 227.684 87.5903C219.684 87.8135 212.726 84.3903 205.991 82.9391C199.256 81.5252 196.056 79.9996 196.056 79.9996C196.056 79.9996 193.117 79.9252 194.307 74.4182ZM400.893 137.934C395.275 105.748 378.531 77.9159 377.154 75.7577C354.084 40.3345 317.507 24.1484 313.786 22.7717C310.065 21.3577 298.01 13.3949 292.465 11.1624C286.921 8.92983 271.703 6.77169 269.098 6.95773C266.531 7.14378 247.963 6.88331 245.172 6.88331C242.382 6.84611 229.321 6.88331 226.717 7.14378C209.34 9.30192 192.521 16.3717 187.796 17.8228C182.996 19.1624 181.284 19.088 179.796 19.7205C145.749 34.4926 125.879 59.274 125.879 59.274C125.879 59.274 112.298 78.1019 111.368 79.7391C90.6794 115.162 90.1957 147.348 89.7492 153.488C89.3399 159.627 90.0841 173.916 90.0841 175.925C90.0841 177.897 90.6422 194.381 91.0515 199.962C91.4236 205.507 92.9492 208.334 95.9259 210.902C98.9027 213.432 105.377 219.051 105.377 219.051C105.377 219.051 106.791 217.414 107.386 215.851C107.982 214.251 108.614 210.753 108.205 208.93C107.758 207.144 107.982 204.948 107.982 204.948L110.512 204.576L109.619 202.009C108.8 200.595 109.619 198.995 109.358 198.027C109.172 197.023 107.238 191.814 106.084 185.748C104.893 179.572 106.121 176.632 111.256 173.246C116.428 169.86 125.917 170.307 125.917 170.307C125.917 170.307 126.14 169.711 126.14 168.297C126.14 166.921 124.391 164.725 123.2 164.465C121.972 164.316 121.563 164.093 119.814 163.274C118.065 162.493 119.405 161.302 119.405 161.302C121.191 161.302 120.819 159.962 120.819 159.962L121.005 156.539C121.005 156.539 118.884 156.762 117.061 155.944C110.289 152.893 108.8 141.581 108.986 138.046C109.21 134.474 111.442 123.274 111.814 121.19C117.098 93.2089 129.563 77.767 133.358 74.1949C137.117 70.5856 141.842 73.7856 144.261 74.567C146.605 75.4228 148.354 75.4228 148.354 75.4228C148.354 75.4228 148.763 73.8228 150.586 72.4089C152.335 71.0693 157.693 69.3205 159.74 68.3159C161.675 67.3112 161.117 66.1577 159.926 65.1159C158.772 64.1112 156.391 62.1763 154.345 61.5066C152.447 60.9112 153.005 59.5345 153.786 58.3438L160.707 50.8275C171.275 40.5949 179.163 37.3949 184.931 34.6415C190.661 31.8508 197.842 29.7298 197.842 29.7298L197.917 36.2787L194.977 42.6042C189.024 56.2973 177.526 69.7298 177.526 69.7298L170.977 69.9531C170.01 69.9531 165.247 69.3205 161.079 71.4414C156.912 73.6368 158.103 78.5856 158.103 78.5856L160.075 80.4089L159.107 81.7856C159.107 81.7856 164.428 81.5996 166.81 82.567C169.154 83.5717 171.126 88.5577 170.903 90.5298C170.717 92.5763 168.893 101.841 165.731 111.962C162.493 122.121 161.861 131.981 162.047 137.19C162.27 142.325 162.456 145.488 160.856 149.507C159.293 153.414 153.563 155.237 149.21 155.014C144.819 154.753 136.931 154.939 134.177 155.348C131.386 155.721 133.582 156.539 133.582 156.539L133.768 158.548L135.517 161.711L133.731 165.246L132.763 166.846C136.67 167.069 138.307 170.493 138.307 170.493C138.307 170.493 140.465 170.046 143.256 170.493C146.01 170.865 154.754 173.618 157.47 175.665C160.261 177.674 161.638 180.427 161.34 181.879C161.154 183.181 161.563 188.241 161.303 190.176C159.74 206.586 164.838 214.362 166.996 218.344C169.154 222.288 170.754 229.06 171.275 234.827C171.87 240.558 167.926 241.376 162.196 245.097C156.428 248.855 140.577 256.744 140.577 256.744C140.577 256.744 137.451 256.744 130.568 248.595C123.61 240.409 118.921 225.488 118.735 223.665C118.549 221.916 118.921 219.162 115.163 221.283C111.405 223.441 113.228 226.902 113.972 230.214C114.754 233.637 113.972 234.827 112.782 235.2C111.554 235.572 107.238 229.581 105.265 228.241C103.219 226.827 103.963 229.841 104.075 231.404C104.633 242.158 111.107 250.232 112.484 251.907C144.633 289.674 192.261 308.13 201.6 311.516C210.865 314.939 216.968 314.53 219.982 314.567L233.935 314.641L234.084 314.865L239.331 315.72L242.828 313.972L243.386 309.99C242.27 306.679 240.447 301.469 238.065 294.883C232.038 278.288 238.847 254.995 239.889 251.572C243.014 239.702 249.563 224.669 261.321 205.432C273.786 185.079 277.954 166.548 273.675 150.362C271.442 141.916 267.237 135.59 263.256 131.125C263.442 131.2 263.665 131.274 263.889 131.348C268.949 133.283 275.907 135.925 287.665 134.176C291.721 133.581 295.963 132.725 300.056 131.869C324.317 126.958 347.2 122.307 360.335 157.581C363.126 165.097 364.577 173.209 366.14 181.767C368.931 197.32 372.503 215.218 384.819 230.4L390.251 218.827C392.186 214.623 393.042 212.093 393.34 211.46C401.972 192.558 401.191 178.716 400.186 176.111C399.219 173.581 401.154 171.981 402.94 167.851C404.577 163.758 401.191 139.497 400.893 137.934Z" fill="#9F9745"/>
<path d="M163.758 342.586C163.758 342.586 152 334.697 141.656 319.628C134.772 309.618 130.754 293.767 123.089 284.725C111.293 270.809 98.1957 265.153 98.1957 265.153C98.1957 265.153 103.331 275.163 108.763 290.195C111.628 298.084 114.158 310.325 116.949 316.949C120.335 325.06 124.391 332.13 124.391 332.13C124.391 332.13 108.242 332.502 88.484 327.479C68.8003 322.493 45.2841 309.321 45.2841 309.321C45.2841 309.321 56.2608 337.935 94.9585 348.018C121.935 355.125 163.758 342.586 163.758 342.586Z" fill="#096939"/>
<path d="M106.456 318.809C106.456 318.809 99.6095 306.902 95.1816 289.265C92.2049 277.321 91.0886 259.572 87.1816 248.595C81.7491 233.34 73.5258 226.493 73.5258 226.493C73.5258 226.493 75.1258 236.726 75.3491 252.949C75.4235 258.977 74.456 266.977 74.2328 273.228C73.9351 281.786 77.47 292.093 77.47 292.093C77.47 292.093 72.4839 288.037 64.3723 283.089C56.4095 278.251 45.3584 272.521 37.2095 266.642C22.8468 256.261 12.4282 243.126 12.4282 243.126C12.4282 243.126 18.4561 275.647 44.0933 295.628C74.8281 319.516 106.456 318.809 106.456 318.809Z" fill="#096939"/>
<path d="M61.098 270.661C61.098 270.661 60.8747 260.875 62.6608 247.293C64.0003 236.912 67.4236 224 67.3119 212.949C67.0515 190.623 59.9817 174.512 59.9817 174.512C59.9817 174.512 58.7166 185.749 55.0701 201.116C53.6933 206.847 50.1585 217.861 49.1538 222.772C47.7771 229.619 47.3305 237.135 47.3305 237.135C47.3305 237.135 42.9398 230.326 35.498 223.07C30.2887 218.009 21.7305 209.637 17.3399 204.354C4.50265 188.949 0.00032067 180.168 0.00032067 180.168C0.00032067 180.168 -0.260145 205.247 14.0654 226.493C30.1771 250.344 61.098 270.661 61.098 270.661Z" fill="#096939"/>
<path d="M28.7258 200.447C35.7212 209.228 39.4421 214.661 39.4421 214.661C39.4421 214.661 41.6747 201.935 47.1816 186.382C50.9398 175.74 57.7119 163.982 60.5398 153.302C64.7072 137.6 63.3677 125.023 63.3677 125.023C63.3677 125.023 51.8328 142.475 43.0886 157.842C36.7258 168.968 33.2282 182.475 33.2282 182.475C33.2282 182.475 28.577 169.675 22.4002 157.991C19.0514 151.628 13.6189 144.707 10.8654 138.419C6.36304 128.261 5.65607 118.847 5.65607 118.847C5.65607 118.847 -3.53463 141.209 3.42351 160.93C8.52118 175.479 20.5398 190.214 28.7258 200.447Z" fill="#096939"/>
<path d="M32.0748 154.828C32.0748 154.828 37.1352 146.121 45.7306 134.995C50.9027 128.26 58.9771 120.781 63.4794 113.302C73.1166 97.3023 75.7213 82.493 75.7213 82.493C75.7213 82.493 71.4794 87.6651 63.7771 94.3255C59.312 98.1581 52.1678 102.363 47.8887 106.716C40.4097 114.27 35.498 123.312 35.498 123.312C35.498 123.312 30.9213 108.391 29.5818 95.1441C27.9818 79.3302 29.5818 64.7441 29.5818 64.7441C29.5818 64.7441 14.1771 80.8186 14.8097 102.735C15.1073 114.121 21.5073 130.158 25.6376 139.46C29.8422 149.06 32.0748 154.828 32.0748 154.828Z" fill="#096939"/>
<path d="M53.7678 91.1997C61.5073 84.7997 73.2282 77.0602 80.5212 68.6881C91.0515 56.5579 94.884 41.3765 94.884 41.3765C94.884 41.3765 84.9492 51.423 73.7864 59.1253C64.7817 65.3393 54.0654 69.5439 54.0654 69.5439C54.0654 69.5439 54.5492 65.0044 55.0329 55.7393C55.2561 51.4602 56.3724 35.9812 57.4143 31.2556C60.8747 15.6649 67.5352 8.44629 67.5352 8.44629C67.5352 8.44629 45.805 25.4881 39.6654 47.1439C32.3724 72.8556 40.5213 103.851 40.5213 103.851C40.5213 103.851 44.9492 98.4928 53.7678 91.1997Z" fill="#096939"/>
<path d="M88.6701 35.7581C92.8003 31.1814 98.2329 17.9721 101.47 12.8C108.242 2.0093 110.921 0 110.921 0C110.921 0 89.898 6.25116 78.1399 19.2744C66.2701 32.4093 63.6282 52.3535 63.6282 52.3535C63.6282 52.3535 78.0654 47.4791 88.6701 35.7581Z" fill="#096939"/>
<path d="M364.279 359.479C344.93 358.512 324.763 354.865 301.619 347.944C298.568 347.014 271.517 339.721 243.87 346.27C216.224 339.721 189.21 347.051 186.121 347.944C162.977 354.865 142.847 358.549 123.498 359.479C93.0235 361.005 76.5026 350.475 76.5026 350.475C76.5026 350.475 93.3212 373.135 120.41 377.488C144.707 381.395 179.535 367.07 179.535 367.07C179.535 367.07 201.526 355.944 223.479 354.009C197.768 367.851 175.777 393.228 175.777 393.228L184.521 400C184.521 400 209.935 365.47 243.907 355.647C277.842 365.47 303.293 400 303.293 400L312.037 393.228C312.037 393.228 290.047 367.851 264.335 354.009C286.289 355.944 308.279 367.07 308.279 367.07C308.279 367.07 343.107 381.395 367.405 377.488C394.493 373.135 411.312 350.475 411.312 350.475C411.312 350.475 394.716 361.005 364.279 359.479Z" fill="#096939"/>
<path d="M450.568 266.605C442.419 272.484 431.368 278.214 423.405 283.051C415.293 288 410.307 292.056 410.307 292.056C410.307 292.056 413.842 281.749 413.544 273.191C413.321 266.94 412.354 258.977 412.428 252.912C412.651 236.689 414.251 226.456 414.251 226.456C414.251 226.456 406.028 233.303 400.596 248.558C396.689 259.535 395.535 277.284 392.596 289.228C388.168 306.865 381.321 318.772 381.321 318.772C381.321 318.772 412.949 319.442 443.684 295.554C469.321 275.572 475.349 243.051 475.349 243.051C475.349 243.051 464.93 256.223 450.568 266.605Z" fill="#096939"/>
<path d="M473.675 226.493C488 205.246 487.74 180.167 487.74 180.167C487.74 180.167 483.237 188.949 470.437 204.391C466.047 209.674 457.489 218.046 452.279 223.107C444.875 230.363 440.447 237.172 440.447 237.172C440.447 237.172 440 229.656 438.624 222.809C437.619 217.898 434.084 206.846 432.707 201.153C429.061 185.786 427.796 174.549 427.796 174.549C427.796 174.549 420.726 190.66 420.465 212.986C420.317 224.037 423.777 236.912 425.117 247.33C426.865 260.912 426.679 270.698 426.679 270.698C426.679 270.698 457.563 250.344 473.675 226.493Z" fill="#096939"/>
<path d="M454.549 182.438C454.549 182.438 451.051 168.931 444.689 157.805C435.944 142.475 424.409 124.986 424.409 124.986C424.409 124.986 423.033 137.563 427.237 153.265C430.065 163.945 436.837 175.703 440.596 186.345C446.103 201.898 448.335 214.624 448.335 214.624C448.335 214.624 452.019 209.191 459.014 200.41C467.2 190.14 479.219 175.442 484.354 160.856C491.312 141.172 482.121 118.772 482.121 118.772C482.121 118.772 481.414 128.149 476.912 138.345C474.158 144.596 468.726 151.554 465.377 157.917C459.2 169.638 454.549 182.438 454.549 182.438Z" fill="#096939"/>
<path d="M424 94.3255C416.298 87.7023 412.019 82.493 412.019 82.493C412.019 82.493 414.623 97.3023 424.261 113.302C428.763 120.744 436.8 128.223 442.01 134.995C450.605 146.158 455.665 154.828 455.665 154.828C455.665 154.828 457.898 149.06 462.14 139.498C466.27 130.195 472.67 114.158 472.968 102.735C473.6 80.8186 458.196 64.7441 458.196 64.7441C458.196 64.7441 459.796 79.3302 458.196 95.1441C456.856 108.391 452.279 123.312 452.279 123.312C452.279 123.312 447.368 114.27 439.889 106.679C435.61 102.326 428.465 98.1581 424 94.3255Z" fill="#096939"/>
<path d="M432.707 55.7394C433.191 65.0045 433.675 69.544 433.675 69.544C433.675 69.544 422.996 65.3394 413.954 59.1254C402.791 51.4231 392.856 41.3766 392.856 41.3766C392.856 41.3766 396.689 56.558 407.219 68.6882C414.512 77.0975 426.233 84.8371 433.972 91.1999C442.791 98.4929 447.219 103.851 447.219 103.851C447.219 103.851 455.33 72.8185 448.075 47.1068C441.935 25.451 420.205 8.40918 420.205 8.40918C420.205 8.40918 426.903 15.6278 430.326 31.2185C431.368 35.9813 432.484 51.4603 432.707 55.7394Z" fill="#096939"/>
<path d="M386.27 12.8C389.507 17.9721 394.94 31.1814 399.07 35.7581C409.675 47.4791 424.149 52.3535 424.149 52.3535C424.149 52.3535 421.507 32.4093 409.637 19.2744C397.879 6.25116 376.856 0 376.856 0C376.856 0 379.498 2.0093 386.27 12.8Z" fill="#096939"/>
<path d="M1156.54 366.363C1155.27 365.619 1154.64 363.721 1154.64 360.596C1154.64 358.624 1155.27 356.726 1156.5 354.94C1157.8 353.08 1159.33 351.926 1161.15 351.48C1161.34 358.698 1161.41 362.531 1161.41 363.014C1161.41 364.689 1161.12 365.805 1160.52 366.363H1156.54ZM1169.38 366.363L1169.27 353.675C1169.27 351.628 1169.41 350.066 1169.71 348.875H1169.79C1172.61 348.875 1174.88 349.693 1176.67 351.368C1178.42 353.005 1179.31 355.126 1179.31 357.768C1179.31 360.261 1178.53 362.307 1177 363.87C1175.48 365.545 1173.51 366.363 1171.13 366.363H1169.38ZM1184.19 345.6C1180.35 342.214 1175.52 340.54 1169.75 340.54C1164.87 340.54 1162.46 341.88 1162.46 344.521C1162.46 344.893 1162.53 345.377 1162.64 345.935C1157.84 346.196 1153.94 347.647 1150.96 350.326C1147.87 353.042 1146.34 356.466 1146.34 360.596C1146.34 362.642 1146.79 364.577 1147.72 366.326H1142.4V374.847H1171.61C1177.34 374.847 1181.99 373.396 1185.49 370.456C1188.95 367.591 1190.66 363.796 1190.66 359.107C1190.62 353.824 1188.47 349.321 1184.19 345.6ZM1131.27 379.089C1129.86 379.089 1128.71 379.573 1127.7 380.503C1126.74 381.433 1126.25 382.624 1126.25 383.963C1126.25 385.191 1126.66 386.233 1127.44 387.014C1128.22 387.796 1129.27 388.168 1130.53 388.168C1132.02 388.168 1133.25 387.684 1134.25 386.754C1135.22 385.787 1135.7 384.633 1135.7 383.182C1135.7 381.991 1135.29 381.024 1134.47 380.242C1133.69 379.461 1132.61 379.089 1131.27 379.089ZM1119.44 379.089C1118.03 379.089 1116.84 379.573 1115.83 380.503C1114.87 381.433 1114.38 382.624 1114.38 383.963C1114.38 385.191 1114.79 386.233 1115.57 387.014C1116.35 387.796 1117.4 388.168 1118.62 388.168C1120.11 388.168 1121.38 387.684 1122.38 386.754C1123.35 385.787 1123.83 384.633 1123.83 383.182C1123.83 381.991 1123.42 381.024 1122.6 380.242C1121.75 379.461 1120.71 379.089 1119.44 379.089ZM1143.93 374.884V366.363H1132.69C1131.91 366.363 1131.24 365.954 1130.64 365.135C1129.97 364.242 1129.64 363.126 1129.56 361.787L1129.45 350.884C1129.45 347.089 1129.86 344.559 1130.64 343.256C1128.78 341.768 1126.55 341.024 1123.98 341.024C1122.49 341.024 1121.3 341.433 1120.45 342.289C1119.59 343.145 1119.14 344.335 1119.14 345.787C1119.14 346.866 1119.18 349.359 1119.29 353.266C1119.44 358.14 1119.48 360.856 1119.48 361.452C1119.48 363.2 1119.26 364.466 1118.77 365.21C1118.29 365.991 1117.47 366.363 1116.28 366.363H1109.73V374.884H1121.64C1124.28 374.884 1126.29 374.14 1127.63 372.652C1128.67 374.14 1130.34 374.884 1132.69 374.884H1143.93V374.884ZM1111.33 374.884V366.363H1100.09C1099.35 366.363 1098.64 365.954 1098.05 365.135C1097.38 364.242 1097.04 363.126 1096.97 361.787L1096.86 350.884C1096.86 347.089 1097.27 344.559 1098.05 343.256C1096.19 341.768 1093.95 341.024 1091.35 341.024C1089.86 341.024 1088.67 341.433 1087.85 342.289C1087 343.145 1086.55 344.335 1086.55 345.787C1086.55 346.866 1086.59 349.359 1086.7 353.266C1086.85 358.14 1086.88 360.856 1086.88 361.452C1086.88 363.2 1086.66 364.466 1086.18 365.21C1085.69 365.991 1084.87 366.363 1083.68 366.363H1077.14V374.884H1089.04C1091.68 374.884 1093.69 374.14 1095.03 372.652C1096.07 374.14 1097.75 374.884 1100.09 374.884H1111.33V374.884ZM1097.04 335.666C1097.53 335.703 1097.97 335.926 1098.31 336.261C1098.83 335.591 1099.09 334.661 1099.09 333.545C1099.09 332.54 1098.42 332.019 1097.04 332.019H1092.61C1090.79 331.684 1089.9 330.605 1089.9 328.819C1089.9 327.889 1090.2 327.145 1090.75 326.586C1091.27 325.991 1091.98 325.693 1092.87 325.693C1093.28 325.693 1093.77 325.768 1094.25 325.917V325.991C1094.36 326.4 1094.33 326.773 1094.21 327.107C1094.07 327.405 1093.92 327.591 1093.66 327.591C1094.25 328 1095.07 328.186 1096.07 328.186C1097.27 328.186 1097.9 327.591 1098.01 326.438C1098.08 325.396 1097.86 324.577 1097.3 323.982C1096.3 322.977 1094.77 322.493 1092.76 322.493C1090.64 322.493 1088.93 323.014 1087.63 324.056C1086.33 325.135 1085.69 326.549 1085.69 328.298C1085.69 329.638 1086.1 330.866 1086.92 332.019H1084.58C1084.13 331.982 1083.76 331.796 1083.42 331.461C1082.9 332.131 1082.64 332.875 1082.64 333.582C1082.64 334.103 1082.83 334.586 1083.16 334.959C1083.54 335.405 1083.98 335.628 1084.54 335.666H1097.04V335.666ZM1057.82 366.363C1053.32 366.363 1051.05 364.205 1051.05 359.889C1051.05 357.582 1052.02 355.238 1054.03 352.856C1056.04 350.438 1058.23 348.912 1060.69 348.354L1061.06 362.828C1061.02 365.173 1059.94 366.363 1057.82 366.363ZM1078.92 374.884V366.363H1074.31C1073.53 366.326 1072.82 365.88 1072.19 364.986C1071.52 364.056 1071.14 362.828 1071.14 361.377C1071.14 361.228 1071.14 361.117 1071.11 361.005L1071.03 350.326C1071.03 346.717 1071.44 344.298 1072.22 343.033C1070.36 341.619 1068.13 340.949 1065.53 340.949C1058.12 340.726 1052.35 342.4 1048.19 345.898C1044.09 349.21 1041.94 353.898 1041.75 359.963C1041.6 364.093 1042.87 367.591 1045.58 370.382C1048.52 373.396 1052.43 374.884 1057.41 374.884H1061.21C1064.45 374.884 1067.01 373.991 1068.91 372.168C1069.92 373.954 1071.7 374.847 1074.34 374.884H1078.92V374.884ZM1067.2 335.74C1068.69 335.74 1069.92 335.256 1070.92 334.289C1071.89 333.359 1072.37 332.168 1072.37 330.717C1072.37 329.563 1071.96 328.596 1071.14 327.777C1070.29 326.996 1069.25 326.586 1067.94 326.586C1066.53 326.586 1065.38 327.07 1064.37 328C1063.37 328.968 1062.88 330.121 1062.88 331.498C1062.88 332.726 1063.29 333.768 1064.07 334.549C1064.89 335.331 1065.93 335.74 1067.2 335.74ZM1055.22 335.74C1056.71 335.74 1057.97 335.256 1058.98 334.289C1059.94 333.359 1060.43 332.168 1060.43 330.717C1060.43 329.563 1060.02 328.596 1059.2 327.777C1058.34 326.996 1057.3 326.586 1056 326.586C1054.59 326.586 1053.4 327.07 1052.39 328C1051.42 328.968 1050.94 330.121 1050.94 331.498C1050.94 332.726 1051.35 333.768 1052.13 334.549C1052.91 335.331 1053.95 335.74 1055.22 335.74ZM1019.83 330.047C1019.83 326.214 1020.24 323.684 1021.02 322.382C1019.16 320.893 1016.97 320.149 1014.4 320.149C1012.87 320.149 1011.68 320.596 1010.79 321.452C1009.93 322.307 1009.49 323.498 1009.49 324.949C1009.49 326.438 1009.56 333.061 1009.75 344.819L1009.97 364.949C1009.97 368.745 1009.56 371.312 1008.78 372.614C1010.64 374.103 1012.87 374.847 1015.44 374.847C1016.93 374.847 1018.12 374.4 1019.01 373.545C1019.87 372.689 1020.32 371.498 1020.32 370.047L1020.09 350.177C1019.94 338.382 1019.83 331.684 1019.83 330.047ZM975.74 388.317C973.916 388.019 972.986 386.903 972.986 385.08C972.986 384.186 973.247 383.442 973.805 382.884C974.4 382.289 975.144 382.028 976.037 382.028C976.372 382.028 976.856 382.103 977.414 382.214V382.289C977.488 382.698 977.451 383.107 977.302 383.442C977.154 383.74 977.005 383.889 976.819 383.889C977.414 384.298 978.196 384.521 979.2 384.521C980.428 384.521 981.061 383.926 981.172 382.735C981.284 381.693 981.023 380.875 980.428 380.28C979.461 379.238 977.935 378.717 975.888 378.717C973.768 378.717 972.019 379.275 970.716 380.354C969.414 381.433 968.781 382.847 968.781 384.596C968.781 385.935 969.191 387.163 970.009 388.317H967.665C967.256 388.28 966.847 388.131 966.512 387.796C965.991 388.466 965.73 389.21 965.73 389.917C965.73 390.438 965.916 390.884 966.251 391.293C966.623 391.74 967.07 392 967.628 392.038V392.075L980.242 392.038C980.689 392.075 981.098 392.261 981.47 392.596C981.991 391.926 982.251 390.996 982.251 389.88C982.251 388.875 981.582 388.354 980.242 388.317H975.74V388.317ZM1003.8 322.493C1001.97 321.042 999.74 320.335 997.098 320.335C995.609 320.335 994.419 320.782 993.526 321.638C992.67 322.493 992.223 323.647 992.223 325.061C992.223 326.921 992.261 332.875 992.372 342.921L992.558 361.489C992.558 363.238 992.335 364.466 991.889 365.21C991.368 365.991 990.549 366.363 989.395 366.363H980.503L980.056 338.084C980.056 334.289 980.465 331.759 981.247 330.456C979.461 329.005 977.228 328.298 974.549 328.298C973.061 328.298 971.87 328.707 970.94 329.563C970.084 330.456 969.675 331.647 969.675 333.098C969.675 334.363 969.749 339.461 969.935 348.391C970.084 357.954 970.158 363.163 970.158 363.982C970.158 364.577 970.121 365.396 970.084 366.4H964.242C963.014 366.363 961.898 365.88 960.856 364.949C959.442 366.81 958.772 368.707 958.772 370.717C958.772 373.321 960.595 374.735 964.279 374.921H994.716C1000 374.921 1002.64 372.019 1002.64 366.177L1002.49 330.196C1002.57 326.326 1002.98 323.796 1003.8 322.493ZM938.158 366.363C935.926 365.954 934.14 364.986 932.8 363.424C931.423 361.861 930.754 359.963 930.754 357.693C930.754 355.238 931.535 353.228 933.061 351.703C934.586 350.177 936.558 349.396 938.94 349.396C940.13 349.396 941.396 349.619 942.698 350.028V350.14C942.921 351.256 942.847 352.298 942.512 353.191C942.14 354.047 941.656 354.456 941.098 354.456C942.698 355.535 944.856 356.093 947.572 356.093C950.772 356.093 952.484 354.493 952.782 351.331C953.042 348.503 952.409 346.345 950.884 344.819C948.093 342.066 943.963 340.726 938.568 340.726C932.8 340.726 928.186 342.177 924.689 345.042C921.228 347.907 919.516 351.703 919.516 356.391C919.516 360.075 920.596 363.387 922.754 366.438H912.037V374.959H950.177C951.442 374.996 952.558 375.517 953.563 376.41C954.977 374.549 955.684 372.614 955.684 370.642C955.684 368.038 953.823 366.624 950.14 366.4H938.158V366.363ZM935.442 336.224C936.893 336.224 938.121 335.74 939.089 334.81C940.093 333.842 940.577 332.652 940.577 331.238C940.577 330.084 940.168 329.117 939.349 328.298C938.493 327.517 937.451 327.107 936.186 327.107C934.772 327.107 933.619 327.591 932.614 328.521C931.647 329.452 931.163 330.642 931.163 331.982C931.163 333.21 931.572 334.252 932.354 335.033C933.098 335.852 934.14 336.224 935.442 336.224ZM914.344 374.884V366.363H905.786C904.595 366.363 903.777 365.991 903.293 365.21C902.809 364.466 902.586 363.238 902.586 361.489L902.661 330.047C902.661 326.214 903.07 323.684 903.851 322.382C901.991 320.893 899.758 320.149 897.191 320.149C895.702 320.149 894.512 320.596 893.619 321.452C892.763 322.307 892.316 323.498 892.316 324.949L892.502 343.405C892.465 349.693 892.465 357.284 892.465 366.14C892.465 371.982 895.107 374.884 900.465 374.884H914.344V374.884ZM875.014 340.949C873.526 340.949 872.335 341.396 871.442 342.252C870.586 343.107 870.14 344.298 870.14 345.787C870.14 346.866 870.177 349.359 870.289 353.303C870.437 358.177 870.475 360.893 870.475 361.489C870.475 363.238 870.251 364.503 869.768 365.247C869.284 366.028 868.465 366.4 867.275 366.4H860.689V374.921H872.633C877.954 374.921 880.596 372.019 880.596 366.214L880.484 350.847C880.484 347.014 880.893 344.484 881.675 343.182C879.814 341.693 877.582 340.949 875.014 340.949ZM881.451 335.777C882.94 335.777 884.168 335.293 885.172 334.363C886.177 333.396 886.661 332.242 886.661 330.866C886.661 329.675 886.251 328.707 885.396 327.926C884.577 327.107 883.535 326.698 882.233 326.698C880.819 326.698 879.628 327.182 878.623 328.149C877.656 329.08 877.172 330.27 877.172 331.61C877.172 332.838 877.582 333.842 878.363 334.624C879.144 335.368 880.186 335.777 881.451 335.777ZM869.507 335.777C870.995 335.777 872.261 335.293 873.265 334.363C874.233 333.396 874.716 332.242 874.716 330.866C874.716 329.675 874.307 328.707 873.451 327.889C872.633 327.107 871.591 326.698 870.289 326.698C868.875 326.698 867.684 327.182 866.679 328.149C865.712 329.08 865.228 330.27 865.228 331.61C865.228 332.838 865.637 333.842 866.419 334.624C867.237 335.368 868.242 335.777 869.507 335.777ZM876.019 324.912C877.507 324.912 878.735 324.428 879.74 323.498C880.744 322.568 881.228 321.377 881.228 319.963C881.228 318.81 880.819 317.842 879.963 317.024C879.107 316.242 878.065 315.833 876.8 315.833C875.386 315.833 874.233 316.317 873.228 317.247C872.261 318.214 871.777 319.368 871.777 320.745C871.777 321.935 872.186 322.94 872.968 323.721C873.749 324.503 874.754 324.912 876.019 324.912ZM841.377 366.363C836.875 366.363 834.605 364.205 834.605 359.889C834.605 357.582 835.61 355.238 837.582 352.856C839.591 350.438 841.786 348.912 844.205 348.354L844.577 362.828C844.577 365.173 843.498 366.363 841.377 366.363ZM862.475 374.884V366.363H857.861C857.079 366.326 856.372 365.88 855.74 364.986C855.07 364.056 854.698 362.828 854.698 361.377C854.698 361.228 854.698 361.117 854.661 361.005L854.586 350.326C854.586 346.717 854.996 344.298 855.777 343.033C853.916 341.619 851.684 340.949 849.079 340.949C841.675 340.726 835.907 342.4 831.74 345.898C827.609 349.21 825.489 353.898 825.303 359.963C825.154 364.093 826.419 367.591 829.135 370.382C832.075 373.396 835.982 374.884 840.968 374.884H844.763C848 374.884 850.568 373.991 852.465 372.168C853.47 373.954 855.256 374.847 857.861 374.884H862.475V374.884ZM850.754 335.74C852.242 335.74 853.47 335.256 854.475 334.289C855.442 333.359 855.926 332.168 855.926 330.717C855.926 329.563 855.516 328.596 854.698 327.777C853.842 326.996 852.8 326.586 851.498 326.586C850.084 326.586 848.93 327.07 847.963 328C846.958 328.968 846.475 330.121 846.475 331.498C846.475 332.726 846.884 333.768 847.665 334.549C848.447 335.331 849.489 335.74 850.754 335.74ZM838.772 335.74C840.261 335.74 841.526 335.256 842.53 334.289C843.498 333.359 843.982 332.168 843.982 330.717C843.982 329.563 843.572 328.596 842.754 327.777C841.898 326.996 840.856 326.586 839.554 326.586C838.14 326.586 836.949 327.07 835.944 328C834.977 328.968 834.493 330.121 834.493 331.498C834.493 332.726 834.902 333.768 835.684 334.549C836.465 335.331 837.507 335.74 838.772 335.74ZM803.386 330.047C803.386 326.214 803.796 323.684 804.577 322.382C802.716 320.893 800.521 320.149 797.916 320.149C796.391 320.149 795.2 320.596 794.307 321.452C793.451 322.307 793.005 323.498 793.005 324.949C793.005 326.438 793.116 333.061 793.302 344.819L793.526 364.949C793.526 368.745 793.116 371.312 792.335 372.614C794.196 374.103 796.428 374.847 799.033 374.847C800.521 374.847 801.712 374.4 802.568 373.545C803.423 372.689 803.87 371.498 803.87 370.047L803.647 350.177C803.498 338.382 803.386 331.684 803.386 330.047ZM759.293 388.317C757.433 388.019 756.54 386.903 756.54 385.08C756.54 384.186 756.8 383.442 757.358 382.884C757.916 382.289 758.698 382.028 759.628 382.028C759.963 382.028 760.447 382.103 761.005 382.214V382.289C761.079 382.698 761.042 383.107 760.893 383.442C760.744 383.74 760.596 383.889 760.409 383.889C761.005 384.298 761.786 384.521 762.791 384.521C763.982 384.521 764.651 383.926 764.763 382.735C764.875 381.693 764.614 380.875 764.019 380.28C763.051 379.238 761.526 378.717 759.479 378.717C757.358 378.717 755.609 379.275 754.307 380.354C753.005 381.433 752.372 382.847 752.372 384.596C752.372 385.935 752.782 387.163 753.6 388.317H751.256C750.847 388.28 750.437 388.131 750.102 387.796C749.582 388.466 749.321 389.21 749.321 389.917C749.321 390.438 749.507 390.884 749.842 391.293C750.214 391.74 750.661 392 751.219 392.038V392.075L763.833 392.038C764.279 392.075 764.689 392.261 765.061 392.596C765.582 391.926 765.842 390.996 765.842 389.88C765.842 388.875 765.172 388.354 763.833 388.317H759.293V388.317ZM787.349 322.493C785.489 321.042 783.293 320.335 780.689 320.335C779.2 320.335 778.009 320.782 777.116 321.638C776.261 322.493 775.814 323.647 775.814 325.061C775.814 326.921 775.851 332.875 775.963 342.921L776.149 361.489C776.149 363.238 775.926 364.466 775.479 365.21C774.996 365.991 774.14 366.363 772.986 366.363H764.093L763.647 338.084C763.647 334.289 764.056 331.759 764.837 330.456C763.051 329.005 760.819 328.298 758.14 328.298C756.651 328.298 755.461 328.707 754.53 329.563C753.675 330.456 753.265 331.647 753.265 333.098C753.265 334.363 753.34 339.461 753.526 348.391C753.675 357.954 753.749 363.163 753.749 363.982C753.749 364.577 753.712 365.396 753.675 366.4H747.907C746.679 366.363 745.563 365.88 744.521 364.949C743.107 366.81 742.437 368.707 742.437 370.717C742.437 373.321 744.261 374.735 747.944 374.921H778.382C783.665 374.921 786.344 372.019 786.344 366.177L786.196 330.196C786.121 326.326 786.53 323.796 787.349 322.493ZM739.237 343.182C737.451 341.731 735.219 341.024 732.577 341.024C731.089 341.024 729.898 341.47 729.042 342.326C728.186 343.182 727.74 344.335 727.74 345.787C727.74 346.866 727.777 349.359 727.889 353.266C728.037 358.14 728.075 360.893 728.075 361.489C728.075 363.238 727.851 364.466 727.368 365.21C726.884 365.954 726.065 366.326 724.875 366.363H718.326V374.884H730.233C735.516 374.884 738.196 371.982 738.196 366.177L738.084 350.847C738.047 347.052 738.419 344.484 739.237 343.182ZM732.651 334.028C734.14 334.028 735.368 333.545 736.372 332.614C737.34 331.647 737.823 330.456 737.823 329.042C737.823 327.889 737.414 326.921 736.596 326.103C735.74 325.321 734.698 324.912 733.433 324.912C732.019 324.912 730.828 325.396 729.861 326.326C728.893 327.293 728.409 328.447 728.409 329.786C728.409 331.014 728.819 332.056 729.6 332.838C730.382 333.656 731.386 334.028 732.651 334.028ZM719.889 374.884V366.363H715.312C714.568 366.363 713.861 365.917 713.228 365.061C712.558 364.093 712.186 362.903 712.186 361.452C712.186 361.266 712.149 361.08 712.112 360.856C712.037 355.945 712 353.042 712 352.149C712 347.498 712.409 344.559 713.191 343.256C711.591 341.805 709.172 341.061 705.972 341.061C703.144 341.061 701.73 342.661 701.73 345.824L701.916 353.303C702.028 357.247 702.065 359.963 702.065 361.526C702.065 363.275 701.842 364.503 701.396 365.247C700.912 365.991 700.056 366.363 698.903 366.363C697.414 366.363 696.372 366.214 695.777 365.88C694.921 365.433 694.437 364.54 694.363 363.2L694.251 352.187C694.251 348.875 694.661 346.568 695.442 345.266C693.842 343.852 691.423 343.145 688.186 343.145C685.396 343.145 684.019 344.707 684.019 347.833L684.205 354.307C684.316 357.656 684.354 360.075 684.354 361.526C684.354 363.275 684.13 364.503 683.684 365.247C683.2 365.991 682.382 366.363 681.191 366.363C679.777 366.363 678.772 366.214 678.14 365.917C677.284 365.507 676.8 364.726 676.651 363.498L676.577 358.847C676.54 357.321 676.54 355.759 676.54 354.196C676.54 351.256 676.949 349.173 677.73 347.907C675.944 346.419 673.712 345.675 671.107 345.675C669.619 345.675 668.428 346.084 667.535 346.94C666.679 347.796 666.233 348.987 666.233 350.475C666.233 351.033 666.307 352.782 666.456 355.61C666.605 358.81 666.642 360.819 666.642 361.526C666.642 363.275 666.419 364.503 665.935 365.247C665.451 365.991 664.633 366.363 663.442 366.363H656.261V374.884H668.763C671.851 374.884 674.084 373.284 675.535 370.121C677.544 373.321 681.228 374.884 686.549 374.884C690.121 374.884 692.503 373.47 693.656 370.642C695.703 373.47 699.275 374.884 704.298 374.884C707.089 374.884 709.172 374.028 710.512 372.28C711.703 374.028 713.302 374.884 715.386 374.884H719.889V374.884ZM658.568 374.884V366.363H650.01C648.819 366.363 648 365.991 647.517 365.21C647.033 364.466 646.81 363.238 646.81 361.489L646.884 330.047C646.884 326.214 647.293 323.684 648.075 322.382C646.214 320.893 643.982 320.149 641.377 320.149C639.889 320.149 638.698 320.596 637.842 321.452C636.986 322.307 636.54 323.498 636.54 324.949L636.726 343.405C636.689 349.693 636.689 357.284 636.689 366.14C636.689 371.982 639.33 374.884 644.689 374.884H658.568V374.884ZM630.847 343.182C629.061 341.731 626.828 341.024 624.149 341.024C622.661 341.024 621.47 341.47 620.614 342.326C619.758 343.182 619.312 344.335 619.312 345.787C619.312 346.866 619.349 349.359 619.461 353.266C619.61 358.14 619.647 360.893 619.647 361.489C619.647 363.238 619.423 364.466 618.94 365.21C618.456 365.954 617.637 366.326 616.447 366.363H609.898V374.884H621.805C627.089 374.884 629.73 371.982 629.73 366.177L629.619 350.847C629.656 347.052 630.065 344.484 630.847 343.182ZM624.298 334.028C625.786 334.028 627.014 333.545 628.019 332.614C628.986 331.647 629.47 330.456 629.47 329.042C629.47 327.889 629.061 326.921 628.242 326.103C627.386 325.321 626.344 324.912 625.079 324.912C623.665 324.912 622.475 325.396 621.507 326.326C620.54 327.293 620.056 328.447 620.056 329.786C620.056 331.014 620.465 332.056 621.247 332.838C622.028 333.656 623.033 334.028 624.298 334.028ZM598.884 379.089C597.47 379.089 596.317 379.573 595.312 380.503C594.344 381.433 593.861 382.624 593.861 383.963C593.861 385.191 594.27 386.233 595.051 387.014C595.833 387.796 596.875 388.168 598.14 388.168C599.628 388.168 600.856 387.684 601.861 386.754C602.828 385.787 603.312 384.633 603.312 383.182C603.312 381.991 602.903 381.024 602.084 380.242C601.265 379.461 600.186 379.089 598.884 379.089ZM587.014 379.089C585.6 379.089 584.41 379.573 583.405 380.503C582.437 381.433 581.954 382.624 581.954 383.963C581.954 385.191 582.363 386.233 583.144 387.014C583.926 387.796 584.93 388.168 586.196 388.168C587.684 388.168 588.949 387.684 589.954 386.754C590.921 385.787 591.405 384.633 591.405 383.182C591.405 381.991 590.996 381.024 590.177 380.242C589.358 379.461 588.279 379.089 587.014 379.089ZM611.535 374.884V366.363H600.298C599.554 366.363 598.847 365.954 598.251 365.135C597.582 364.242 597.247 363.126 597.172 361.787L597.061 350.884C597.061 347.089 597.47 344.559 598.251 343.256C596.391 341.768 594.158 341.024 591.591 341.024C590.103 341.024 588.912 341.433 588.056 342.289C587.2 343.145 586.754 344.335 586.754 345.787C586.754 346.866 586.791 349.359 586.903 353.266C587.051 358.14 587.089 360.856 587.089 361.452C587.089 363.2 586.865 364.466 586.382 365.21C585.898 365.991 585.079 366.363 583.889 366.363H577.34V374.884H589.247C591.889 374.884 593.898 374.14 595.275 372.652C596.316 374.14 597.991 374.884 600.335 374.884H611.535V374.884ZM558.028 366.363C553.526 366.363 551.256 364.205 551.256 359.889C551.256 357.582 552.261 355.238 554.233 352.856C556.242 350.438 558.437 348.912 560.856 348.354L561.228 362.828C561.228 365.173 560.149 366.363 558.028 366.363ZM579.126 374.884V366.363H574.512C573.73 366.326 573.023 365.88 572.391 364.986C571.721 364.056 571.349 362.828 571.349 361.377C571.349 361.228 571.349 361.117 571.312 361.005L571.237 350.326C571.237 346.717 571.647 344.298 572.428 343.033C570.568 341.619 568.335 340.949 565.73 340.949C558.326 340.726 552.558 342.4 548.391 345.898C544.298 349.21 542.14 353.898 541.954 359.963C541.805 364.093 543.07 367.591 545.786 370.382C548.689 373.396 552.633 374.884 557.582 374.884H561.377C564.614 374.884 567.182 373.991 569.079 372.168C570.084 373.954 571.87 374.847 574.475 374.884H579.126V374.884ZM567.405 335.74C568.893 335.74 570.121 335.256 571.126 334.289C572.093 333.359 572.577 332.168 572.577 330.717C572.577 329.563 572.168 328.596 571.349 327.777C570.493 326.996 569.451 326.586 568.149 326.586C566.735 326.586 565.582 327.07 564.577 328C563.572 328.968 563.089 330.121 563.089 331.498C563.089 332.726 563.498 333.768 564.279 334.549C565.098 335.331 566.14 335.74 567.405 335.74ZM555.424 335.74C556.912 335.74 558.177 335.256 559.182 334.289C560.149 333.359 560.633 332.168 560.633 330.717C560.633 329.563 560.223 328.596 559.405 327.777C558.549 326.996 557.507 326.586 556.205 326.586C554.791 326.586 553.6 327.07 552.596 328C551.628 328.968 551.144 330.121 551.144 331.498C551.144 332.726 551.554 333.768 552.335 334.549C553.117 335.331 554.158 335.74 555.424 335.74Z" fill="#9F9745"/>
</svg>
