<svg width="492" height="720" viewBox="0 0 492 720" fill="none" xmlns="http://www.w3.org/2000/svg">
<path d="M226.328 432.916C220.774 432.916 216.308 437.382 216.308 442.936V510.935H167.785C161.743 510.935 157.202 514.313 155.289 518.478L146.47 534.915V432.916H95.3199C89.8033 432.916 85.3 437.382 85.3 442.936V650.687H136.45C141.966 650.687 146.47 646.184 146.47 640.668V564.412H216.308V650.687H267.458C272.974 650.687 277.478 646.184 277.478 640.668V432.916H226.328V432.916Z" fill="#096939"/>
<path d="M440.196 432.916C434.642 432.916 430.176 437.382 430.176 442.936V510.935H381.654C375.612 510.935 371.071 514.313 369.119 518.478L360.301 534.915V432.916H309.188C303.672 432.916 299.168 437.382 299.168 442.936V650.687H350.318C355.835 650.687 360.338 646.184 360.338 640.668V564.412H430.176V650.687H481.326C486.843 650.687 491.346 646.184 491.346 640.668V432.916H440.196V432.916Z" fill="#096939"/>
<path d="M63.9846 640.78C63.9846 646.296 59.4813 650.799 53.9648 650.799H0.563354V496.937C0.563354 491.421 4.31609 488.268 10.5832 486.917L63.9846 480.913V640.78Z" fill="#096939"/>
<path d="M0.563354 442.898C0.563354 437.381 5.02911 432.878 10.5832 432.878H63.9846V459.11C63.9846 464.626 60.457 467.441 53.9648 469.129L0.563354 475.096V442.898V442.898Z" fill="#096939"/>
<path d="M309.189 154.988C309.189 154.988 299.319 156.114 299.319 165.271C299.319 172.551 304.723 176.754 308.476 177.129C312.566 177.542 320.334 174.765 320.334 165.684C320.334 155.026 309.189 154.988 309.189 154.988Z" fill="#9F9745"/>
<path d="M391.899 178.03C391.748 179.606 390.397 182.608 389.947 184.559C388.971 189.438 388.033 192.328 386.457 197.131L385.857 196.831C385.857 196.831 384.093 192.74 381.428 182.27C380.228 177.542 378.877 170.787 377.263 164.257C379.214 163.732 381.691 162.869 383.53 162.568C391.11 161.368 390.773 158.891 390.773 158.891C390.773 158.891 391.486 160.992 390.397 164.182C389.309 167.372 389.835 171.613 390.848 173.039C391.899 174.465 392.124 176.491 391.899 178.03ZM373.998 153.074C373.51 151.761 373.022 150.522 372.534 149.396C365.93 135.061 356.097 127.893 356.097 127.893C356.097 127.893 346.716 119.637 334.594 118.399C332.005 118.136 329.378 118.098 326.826 118.174H326.864C326.526 117.648 324.312 110.48 324.199 110.18L323.449 108.004C323.449 108.004 322.21 109.017 321.797 110.518C321.722 110.893 323.599 117.948 323.486 118.361C320.521 118.624 317.82 118.999 315.493 119.412C315.268 118.849 315.043 118.361 315.005 118.211C314.179 115.772 313.391 111.569 313.204 110.218C313.016 108.792 313.842 108.041 314.029 106.99L315.23 103.2C315.605 102.224 315.418 102.224 316.994 102.6C318.57 103.012 320.822 103.238 320.822 103.238C320.822 103.238 321.61 99.635 320.034 96.2576C318.42 92.805 317.857 90.8161 317.857 90.8161C317.857 90.8161 317.632 90.2157 320.634 87.8139C323.636 85.4497 332.268 79.2577 336.058 76.8184C339.886 74.4542 339.473 74.6793 342.888 72.6153C346.228 70.7014 348.63 68.0745 348.63 68.0745C348.63 68.0745 355.61 74.4542 361.989 82.6727C368.369 90.9287 377.488 103.726 378.464 103.35C379.515 102.937 378.501 98.1715 380.077 97.9463C381.691 97.7587 384.506 100.386 386.307 102.224C388.071 103.988 389.684 104.251 389.497 105.602C389.272 107.028 390.06 108.979 388.709 108.829C387.245 108.604 387.095 107.628 385.894 107.628L383.305 107.778L382.292 110.405L383.305 113.858C383.455 115.021 384.28 119.262 385.181 122.414C386.232 125.641 387.808 132.659 387.996 134.235C388.221 135.849 388.371 142.454 388.559 144.443C388.746 146.469 388.371 151.46 388.371 151.46L386.344 152.436C384.806 153.224 382.93 154.462 381.391 154.237C379.777 154.05 377.188 153.187 374.636 152.999C374.561 153.036 374.336 153.036 373.998 153.074ZM305.773 61.4697C298.23 42.3307 290.162 34.9003 290.162 34.9003C290.162 34.9003 292.151 32.8738 293.539 31.8606C294.928 30.8474 296.129 31.0725 296.129 31.0725C296.129 31.0725 300.519 32.6487 315.455 39.3661C330.466 46.0084 334.97 52.0503 336.583 53.2512C338.159 54.4145 337.334 55.8406 337.334 55.8406C337.334 55.8406 338.535 55.0525 338.385 57.2291C338.159 59.4432 334.932 62.6706 330.316 64.622C325.738 66.6485 315.53 70.2136 313.354 71.1517C311.14 72.24 308.513 68.5624 305.773 61.4697ZM308.625 120.913C308.625 120.913 295.453 125.154 284.57 125.341C276.614 125.491 268.133 123.465 268.133 123.465C268.133 123.465 262.241 122.151 258.001 124.103C256.462 124.816 254.961 126.129 253.798 127.33C253.085 124.253 251.997 119.449 253.122 115.622C253.835 112.995 253.873 111.831 258.489 107.666C263.067 103.463 267.683 102.637 269.897 102.112C272.111 101.511 277.478 101.324 286.484 98.7719C295.491 96.22 297.705 94.9816 297.705 94.9816C297.705 94.9816 299.093 91.9794 301.082 94.6064C302.508 96.4827 308.213 108.116 311.778 120.2C309.826 120.575 308.625 120.913 308.625 120.913ZM266.37 154.087C261.153 154.05 256.687 154.012 256.162 154.012C254.136 154.012 250.008 154.425 247.381 155.401C244.791 156.414 242.99 157.202 241.639 156.977C240.175 156.789 234.584 155.176 232.858 154.35C231.056 153.524 228.842 153.149 227.228 153.337C225.652 153.524 225.877 153.524 224.827 154.275L223.025 155.776C223.025 155.776 219.873 153.299 218.259 153.749C215.52 154.387 210.266 153.9 207.489 154.5C204.675 155.1 197.694 155.663 194.88 155.851C192.14 156.076 187.862 154.988 183.959 154.2C179.944 153.374 177.355 153.562 177.355 153.562L177.58 148.984C177.767 147.97 178.33 147.97 178.143 145.606C177.993 143.167 177.73 141.816 177.58 138.401C177.43 134.986 176.792 132.584 177.204 130.407C177.617 128.231 178.593 122.639 181.07 114.233C183.434 105.752 185.085 100.798 185.911 98.6218C186.699 96.4077 187.112 94.0059 189.288 94.4187C191.54 94.8315 204.299 98.0589 207.489 98.4717C210.679 98.8469 219.235 101.324 225.465 103.125C231.582 104.964 234.584 107.628 236.535 108.604C238.599 109.58 239.312 109.58 239.162 111.606C238.975 113.595 238.299 119.374 237.699 122.189C237.136 124.966 238.487 131.608 238.862 134.198C239.275 136.787 242.69 147.67 242.69 147.67C242.69 147.67 244.641 145.831 246.03 142.641C247.493 139.414 247.493 137.65 249.032 138.663C250.683 139.677 253.685 142.266 253.685 142.266C253.685 142.266 253.835 141.253 253.685 139.827C253.535 138.926 253.948 135.173 254.098 132.471C257.476 136.599 263.705 145.006 266.37 154.087ZM258.001 194.955C258.001 194.955 256.312 197.732 253.685 202.272C253.01 198.219 252.072 193.604 252.184 193.003C252.409 191.915 252.184 189.776 252.184 186.398C252.184 183.021 253.873 181.295 255.074 177.729C256.312 174.164 261.416 172.138 263.968 171.012C264.531 170.787 265.957 170.299 267.158 169.961C265.169 183.284 258.001 194.955 258.001 194.955ZM234.546 221.636C231.507 221.749 227.979 222.462 223.738 222.987C215.257 224.001 212.255 227.04 206.964 228.954C201.672 230.868 196.343 233.345 193.829 233.345L189.101 233.27C189.101 233.27 188.012 230.831 186.436 227.303C184.823 223.738 183.284 218.297 180.657 211.166C178.068 204.074 176.829 203.736 176.979 199.458C177.204 195.255 176.642 192.553 176.904 189.738C177.017 186.886 177.955 185.873 177.092 184.034C176.154 182.27 175.816 181.182 175.14 180.732L173.94 178.968L174.315 176.454C175.403 175.365 177.955 173.639 185.948 171.838C193.867 170.111 198.895 170.637 202.01 170.149C205.2 169.624 209.065 169.248 212.443 169.323C215.82 169.323 218.785 170.374 224.451 170.862C230.118 171.462 231.882 172.851 234.621 174.089C237.511 175.44 238.374 176.641 238.186 178.367C237.961 180.094 238.186 220.661 238.186 220.661C238.186 220.661 237.436 221.486 234.546 221.636ZM231.432 250.007C224.827 269.521 226.703 294.59 227.416 301.607C227.153 301.645 226.928 301.757 226.666 301.795C224.376 302.058 218.597 299.994 212.03 286.709C210.416 283.256 205.763 273.199 201.747 263.292C197.657 253.31 195.218 250.345 195.218 250.345C195.218 250.345 194.204 249.069 195.968 248.168C197.694 247.23 207.076 243.252 209.178 242.201C211.354 241.151 215.595 239.199 218.034 239.049C220.549 238.899 225.765 239.049 228.279 239.274C230.719 239.462 230.681 238.261 232.895 240.213C232.933 240.25 233.758 240.7 234.659 241.188C233.496 244.19 232.407 247.08 231.432 250.007ZM201.184 296.579C199.308 296.241 195.705 296.053 190.977 294.44C186.211 292.826 177.73 287.497 168.948 281.605C160.13 275.751 154.35 271.323 154.35 271.323C154.35 271.323 150.222 270.272 153.75 267.945C157.353 265.656 171.313 258.113 173.602 257.025C175.891 256.012 180.132 253.685 185.235 260.402C190.339 267.157 197.357 282.393 199.421 287.084C201.56 291.663 203.849 296.278 203.849 296.278C203.849 296.278 203.211 296.916 201.184 296.579ZM171.088 218.559C169.549 215.52 169.024 211.129 167.785 208.089C166.584 205.087 165.533 200.659 165.533 200.659C165.533 200.659 164.483 196.418 167.673 196.418C170.825 196.418 170.675 197.356 172.101 199.27C173.414 201.222 174.352 203.736 175.028 204.449V208.314L174.09 211.879C174.653 213.118 174.277 212.743 174.99 214.919C175.666 217.058 176.379 219.648 177.092 221.486C177.805 223.288 178.218 225.727 178.105 227.341C177.918 228.879 177.392 231.206 177.204 233.683C177.017 236.122 176.116 238.974 176.116 238.974C176.116 238.974 175.14 237.398 175.14 234.734C175.14 232.144 174.765 229.442 173.677 227.303C172.701 225.127 172.701 221.561 171.088 218.559ZM284.082 42.8561C284.082 42.8561 293.427 53.5139 296.391 62.4829C299.356 71.527 301.345 73.516 301.345 73.516C301.345 73.516 296.992 74.3791 291.025 62.2578C288.023 56.2909 286.897 50.249 285.884 47.7722C284.833 45.483 284.082 42.8561 284.082 42.8561ZM195.968 75.0546C197.207 69.463 205.388 45.6331 221.862 27.4324C223.288 25.8562 227.641 22.854 231.469 22.6289C235.222 22.4788 235.822 27.4699 236.573 29.0836C237.361 30.6597 238.637 37.5272 237.736 39.929C236.948 42.3307 235.897 46.6839 235.522 50.1364C235.109 53.5139 236.348 55.6905 237.286 58.1298C238.337 60.494 239.275 63.5712 240.851 63.3461C242.465 63.1584 244.491 61.3571 246.067 60.1562C247.718 59.0304 251.471 56.2159 251.884 51.5625C252.297 46.9466 251.321 44.3572 250.721 41.8054C250.12 39.1784 250.12 37.1895 249.97 33.9246C249.782 30.7723 250.908 29.5714 250.908 29.5714C250.908 29.5714 250.908 27.1697 252.785 24.3551C254.586 21.5406 257.213 21.1653 258.601 21.5406C259.99 21.9909 264.981 23.3794 271.961 35.2005C272.862 36.8142 277.327 45.2579 282.244 57.8671C283.107 60.0437 284.608 67.4365 287.197 71.6771C289.824 75.9177 292.151 81.5093 292.151 81.5093C292.151 81.5093 282.206 85.6748 271.999 87.0634C269.484 87.4386 261.791 88.2642 258.376 86.2002C255.036 84.2113 254.811 80.9839 255.036 79.8206L254.023 74.7919C254.023 73.591 252.072 67.6242 249.295 64.8096C246.442 61.9951 246.442 63.5712 247.08 64.9973C247.643 66.4233 248.807 74.4542 245.842 74.5667L244.454 73.1407C243.478 71.9774 241.676 71.9774 239.875 71.7522C238.111 71.5646 237.661 72.9531 237.849 74.5292C238.036 76.1054 237.811 81.9596 237.811 81.9596C237.811 81.9596 237.811 88.1892 229.593 88.3393C221.524 88.5269 214.507 85.1119 207.714 83.6484C200.922 82.2223 197.694 80.6837 197.694 80.6837C197.694 80.6837 194.767 80.6086 195.968 75.0546ZM404.32 139.114C398.653 106.653 381.766 78.5822 380.378 76.4056C357.111 40.6795 320.221 24.3551 316.431 22.9666C312.716 21.5406 300.557 13.5097 294.965 11.2581C289.374 9.00644 274.025 6.82985 271.398 6.97996C268.809 7.16759 250.083 6.9049 247.268 6.9049C244.454 6.86738 231.281 6.9049 228.655 7.16759C211.129 9.34418 194.167 16.4744 189.401 17.9379C184.56 19.2889 182.834 19.2139 181.333 19.8518C146.995 34.7502 126.955 59.7434 126.955 59.7434C126.955 59.7434 113.258 78.7323 112.32 80.3835C91.4545 116.11 90.9666 148.571 90.5163 154.763C90.1035 160.955 90.854 175.365 90.854 177.392C90.854 179.381 91.4169 196.005 91.8297 201.634C92.205 207.226 93.7436 210.078 96.7458 212.667C99.748 215.219 106.278 220.886 106.278 220.886C106.278 220.886 107.704 219.235 108.304 217.659C108.905 216.082 109.543 212.517 109.13 210.678C108.68 208.877 108.905 206.663 108.905 206.663L111.457 206.288L110.556 203.698C109.73 202.272 110.556 200.659 110.293 199.683C110.106 198.67 108.154 193.416 106.991 187.299C105.79 181.069 107.028 178.105 112.207 174.69C117.423 171.275 126.993 171.725 126.993 171.725C126.993 171.725 127.218 171.125 127.218 169.699C127.218 168.31 125.454 166.096 124.253 165.833C123.015 165.683 122.602 165.458 120.838 164.632C119.075 163.844 120.426 162.643 120.426 162.643C122.227 162.643 121.852 161.292 121.852 161.292L122.039 157.84C122.039 157.84 119.9 158.065 118.061 157.24C111.231 154.162 109.73 142.754 109.918 139.189C110.143 135.586 112.395 124.291 112.77 122.189C118.099 93.9684 130.671 78.3945 134.498 74.7919C138.289 71.1518 143.055 74.3791 145.494 75.1672C147.858 76.0303 149.622 76.0303 149.622 76.0303C149.622 76.0303 150.035 74.4166 151.874 72.9906C153.637 71.6396 159.041 69.8758 161.105 68.8626C163.057 67.8493 162.494 66.686 161.293 65.6352C160.13 64.622 157.728 62.6706 155.664 61.9951C153.75 61.3946 154.313 60.0061 155.101 58.8053L162.081 51.2247C172.739 40.9047 180.695 37.6773 186.511 34.9003C192.29 32.0858 199.533 29.9467 199.533 29.9467L199.608 36.5515L196.644 42.9312C190.639 56.7037 179.043 70.2886 179.043 70.2886L172.439 70.5138C171.463 70.5138 166.659 69.8758 162.456 72.0149C158.253 74.229 159.454 79.2201 159.454 79.2201L161.443 81.059L160.467 82.4475C160.467 82.4475 165.834 82.2599 168.235 83.2356C170.6 84.2488 172.589 89.2775 172.363 91.2664C172.176 93.3304 170.337 102.637 167.147 112.882C163.882 123.127 163.244 133.109 163.432 138.326C163.657 143.505 163.845 146.694 162.231 150.747C160.655 154.688 154.876 156.527 150.447 156.301C146.019 156.039 138.063 156.226 135.286 156.639C132.472 157.014 134.686 157.84 134.686 157.84L134.874 159.866L136.637 163.056L134.836 166.621L133.86 168.235C137.801 168.46 139.452 171.913 139.452 171.913C139.452 171.913 141.629 171.462 144.443 171.913C147.22 172.288 156.039 175.065 158.816 177.129C161.631 179.156 162.982 181.933 162.719 183.396C162.531 184.747 162.944 189.813 162.681 191.765C161.105 208.314 166.247 216.157 168.423 220.21C170.6 224.188 172.213 231.018 172.739 236.835C173.339 242.614 169.361 243.44 163.582 247.193C157.765 250.983 141.779 258.939 141.779 258.939C141.779 258.939 138.626 258.939 131.684 250.72C124.666 242.464 119.938 227.416 119.75 225.614C119.562 223.851 119.938 221.074 116.147 223.213C112.357 225.389 114.196 228.879 114.947 232.219C115.735 235.672 114.947 236.873 113.746 237.248C112.507 237.623 108.192 231.581 106.165 230.23C104.101 228.804 104.852 231.844 104.964 233.42C105.527 244.265 112.057 252.409 113.446 254.098C145.869 292.188 193.904 310.802 203.324 314.217C212.668 317.669 218.822 317.256 221.862 317.294L235.935 317.369L236.085 317.594L241.376 318.457L244.904 316.693L245.467 312.678C244.341 309.338 242.502 304.084 240.1 297.442C234.021 280.705 240.888 257.212 241.939 253.76C245.091 241.789 251.696 226.628 263.555 207.226C276.127 186.699 280.33 168.01 276.014 151.685C273.762 143.167 269.522 136.787 265.506 132.284C265.694 132.359 265.919 132.434 266.144 132.509C271.248 134.46 278.266 137.125 290.124 135.361C294.215 134.761 298.493 133.898 302.621 133.034C327.089 128.081 350.168 123.39 363.415 158.966C366.23 166.546 367.693 174.727 369.27 183.359C372.084 199.045 375.687 217.096 388.108 232.407L393.587 220.736C395.539 216.495 396.402 213.943 396.702 213.305C405.408 194.242 404.62 180.281 403.607 177.654C402.631 175.103 404.583 173.489 406.384 169.323C408.035 165.158 404.62 140.69 404.32 139.114Z" fill="#9F9745"/>
<path d="M165.158 345.514C165.158 345.514 153.3 337.521 142.867 322.36C135.925 312.265 131.872 296.278 124.141 287.159C112.245 273.124 98.9977 267.42 98.9977 267.42C98.9977 267.42 104.176 277.477 109.655 292.676C112.545 300.632 115.097 312.978 117.911 319.658C121.289 327.839 125.417 335.007 125.417 335.007C125.417 335.007 109.13 335.382 89.2031 330.316C69.3511 325.287 45.6338 312.002 45.6338 312.002C45.6338 312.002 56.7044 340.899 95.7328 351.031C122.978 358.161 165.158 345.514 165.158 345.514Z" fill="#096939"/>
<path d="M107.366 321.534C107.366 321.534 100.461 309.525 95.9953 291.737C92.9931 279.691 91.8673 261.791 87.9269 250.72C82.4479 235.334 74.1544 228.429 74.1544 228.429C74.1544 228.429 75.768 238.749 75.9932 255.111C76.0682 261.228 75.0925 269.258 74.8674 275.563C74.5672 284.194 78.1323 294.589 78.1323 294.589C78.1323 294.589 73.1036 290.499 64.9226 285.508C56.8918 280.629 45.7461 274.85 37.5276 268.921C23.0421 258.451 12.5344 245.203 12.5344 245.203C12.5344 245.203 18.6139 278.002 44.4702 298.155C75.4678 322.247 107.366 321.534 107.366 321.534Z" fill="#096939"/>
<path d="M61.6203 272.975C61.6203 272.975 61.3951 263.105 63.1964 249.407C64.5474 238.937 67.9999 225.915 67.8873 214.77C67.6246 192.253 60.4944 176.004 60.4944 176.004C60.4944 176.004 59.2185 187.337 55.5408 202.836C54.1523 208.615 50.5872 219.761 49.574 224.677C48.1855 231.582 47.7351 239.162 47.7351 239.162C47.7351 239.162 43.3069 232.257 35.8014 224.977C30.5476 219.873 21.9163 211.43 17.4881 206.101C4.54113 190.565 0.000323411 181.708 0.000323411 181.708C0.000323411 181.708 -0.262368 207.001 14.1857 228.43C30.435 252.485 61.6203 272.975 61.6203 272.975Z" fill="#096939"/>
<path d="M28.9713 202.16C36.0265 211.016 39.7792 216.495 39.7792 216.495C39.7792 216.495 42.0309 203.661 47.5849 187.974C51.3752 177.242 58.2052 165.383 61.0572 154.613C65.2603 138.776 63.9093 126.092 63.9093 126.092C63.9093 126.092 52.2758 143.692 43.4569 159.191C37.0397 170.412 33.5121 184.034 33.5121 184.034C33.5121 184.034 28.8212 171.125 22.5917 159.341C19.2142 152.961 13.7352 145.944 10.9582 139.602C6.41739 129.357 5.70437 119.862 5.70437 119.862C5.70437 119.862 -3.56489 142.416 3.45272 162.306C8.59397 176.979 20.7153 191.84 28.9713 202.16Z" fill="#096939"/>
<path d="M32.3488 156.151C32.3488 156.151 37.4525 147.37 46.1214 136.149C51.3377 129.357 59.4811 121.814 64.0219 114.271C73.7415 98.1339 76.3684 83.198 76.3684 83.198C76.3684 83.198 72.0903 88.4143 64.3221 95.1317C59.8188 99.0345 52.6136 103.238 48.2979 107.628C40.7549 115.246 35.8013 124.403 35.8013 124.403C35.8013 124.403 31.1855 109.355 29.8345 95.9948C28.2208 80.0457 29.8345 65.335 29.8345 65.335C29.8345 65.335 14.2982 81.5468 14.9361 103.65C15.2363 115.134 21.691 131.308 25.8566 140.69C30.0972 150.334 32.3488 156.151 32.3488 156.151Z" fill="#096939"/>
<path d="M54.2273 91.9794C62.033 85.5247 73.8541 77.719 81.2095 69.2754C91.8297 57.0414 95.695 41.7303 95.695 41.7303C95.695 41.7303 85.6752 51.8627 74.417 59.6308C65.3354 65.8979 54.5275 70.1385 54.5275 70.1385C54.5275 70.1385 55.0154 65.5601 55.5032 56.2158C55.7284 51.9002 56.8542 36.2888 57.905 31.5228C61.395 15.7989 68.1124 8.51855 68.1124 8.51855C68.1124 8.51855 46.1964 25.7061 40.0044 47.547C32.6491 73.4784 40.8676 104.739 40.8676 104.739C40.8676 104.739 45.3333 99.3348 54.2273 91.9794Z" fill="#096939"/>
<path d="M89.428 36.0638C93.5936 31.4479 99.0726 18.1257 102.337 12.9094C109.167 2.02648 111.869 0 111.869 0C111.869 0 90.6664 6.3046 78.8078 19.4392C66.8366 32.6863 64.1721 52.801 64.1721 52.801C64.1721 52.801 78.7327 47.8849 89.428 36.0638Z" fill="#096939"/>
<path d="M367.393 362.552C347.879 361.576 327.539 357.898 304.197 350.918C301.12 349.98 273.875 342.625 245.955 349.23C218.072 342.625 190.827 350.018 187.712 350.918C164.37 357.898 144.068 361.614 124.554 362.552C93.8189 364.09 77.1567 353.47 77.1567 353.47C77.1567 353.47 94.1191 376.324 121.439 380.715C145.944 384.655 181.07 370.207 181.07 370.207C181.07 370.207 203.249 358.987 225.39 357.035C199.458 370.995 177.28 396.627 177.28 396.627L186.099 403.457C186.099 403.457 211.73 368.631 245.992 358.724C280.217 368.631 305.886 403.457 305.886 403.457L314.705 396.627C314.705 396.627 292.526 371.033 266.595 357.035C288.736 358.987 310.915 370.207 310.915 370.207C310.915 370.207 346.04 384.655 370.546 380.715C397.866 376.324 414.828 353.47 414.828 353.47C414.828 353.47 398.091 364.09 367.393 362.552Z" fill="#096939"/>
<path d="M366.53 335.007C366.53 335.007 370.658 327.84 374.035 319.696C376.813 313.016 379.402 300.707 382.292 292.714C387.771 277.515 392.949 267.458 392.949 267.458C392.949 267.458 379.702 273.162 367.806 287.197C360.075 296.317 356.022 312.303 349.08 322.398C338.647 337.559 326.789 345.552 326.789 345.552C326.789 345.552 368.969 358.199 396.214 351.106C435.243 340.937 446.313 312.078 446.313 312.078C446.313 312.078 422.558 325.363 402.744 330.391C382.817 335.383 366.53 335.007 366.53 335.007Z" fill="#096939"/>
<path d="M454.419 268.884C446.2 274.813 435.055 280.592 427.024 285.471C418.843 290.499 413.814 294.552 413.814 294.552C413.814 294.552 417.379 284.157 417.079 275.526C416.854 269.221 415.878 261.191 415.953 255.074C416.179 238.712 417.792 228.392 417.792 228.392C417.792 228.392 409.499 235.297 404.02 250.683C400.079 261.753 398.916 279.654 395.951 291.7C391.523 309.488 384.581 321.497 384.581 321.497C384.581 321.497 416.479 322.172 447.476 298.08C473.333 277.928 479.412 245.129 479.412 245.129C479.412 245.129 468.905 258.413 454.419 268.884Z" fill="#096939"/>
<path d="M477.724 228.43C492.172 207.001 491.909 181.708 491.909 181.708C491.909 181.708 487.369 190.565 474.459 206.138C470.031 211.467 461.4 219.873 456.146 225.015C448.678 232.332 444.212 239.2 444.212 239.2C444.212 239.2 443.762 231.619 442.373 224.714C441.36 219.761 437.795 208.615 436.406 202.836C432.729 187.337 431.453 176.004 431.453 176.004C431.453 176.004 424.323 192.253 424.06 214.77C423.91 225.915 427.4 238.9 428.751 249.407C430.515 263.105 430.327 272.975 430.327 272.975C430.327 272.975 461.475 252.485 477.724 228.43Z" fill="#096939"/>
<path d="M458.434 183.996C458.434 183.996 454.907 170.374 448.49 159.153C439.671 143.692 428.037 126.054 428.037 126.054C428.037 126.054 426.649 138.738 430.889 154.575C433.741 165.345 440.571 177.204 444.362 187.937C449.916 203.623 452.167 216.458 452.167 216.458C452.167 216.458 455.883 210.979 462.938 202.122C471.194 191.765 483.315 176.941 488.494 162.231C495.511 142.379 486.242 119.787 486.242 119.787C486.242 119.787 485.529 129.244 480.988 139.527C478.211 145.831 472.732 152.849 469.355 159.266C463.125 171.087 458.434 183.996 458.434 183.996Z" fill="#096939"/>
<path d="M427.625 95.1321C419.857 88.4522 415.541 83.1984 415.541 83.1984C415.541 83.1984 418.168 98.1343 427.887 114.271C432.428 121.777 440.534 129.32 445.788 136.15C454.457 147.408 459.561 156.152 459.561 156.152C459.561 156.152 461.812 150.335 466.09 140.69C470.256 131.308 476.711 115.134 477.011 103.613C477.649 81.5097 462.112 65.2979 462.112 65.2979C462.112 65.2979 463.726 80.0086 462.112 95.9577C460.761 109.317 456.146 124.366 456.146 124.366C456.146 124.366 451.192 115.247 443.649 107.591C439.333 103.2 432.128 98.9974 427.625 95.1321Z" fill="#096939"/>
<path d="M436.406 56.2158C436.894 65.5601 437.382 70.1385 437.382 70.1385C437.382 70.1385 426.612 65.8979 417.493 59.6308C406.234 51.8627 396.215 41.7303 396.215 41.7303C396.215 41.7303 400.08 57.0414 410.7 69.2754C418.056 77.7565 429.877 85.5622 437.682 91.9794C446.576 99.3348 451.042 104.776 451.042 104.776C451.042 104.776 459.223 73.4784 451.905 47.547C445.713 25.7061 423.797 8.51855 423.797 8.51855C423.797 8.51855 430.552 15.7989 434.005 31.5228C435.055 36.2888 436.181 51.9002 436.406 56.2158Z" fill="#096939"/>
<path d="M389.572 12.9094C392.837 18.1257 398.316 31.4479 402.481 36.0638C413.177 47.8849 427.737 52.801 427.737 52.801C427.737 52.801 425.073 32.6863 413.102 19.4392C401.281 6.3046 380.078 0 380.078 0C380.078 0 382.742 2.02648 389.572 12.9094Z" fill="#096939"/>
<path d="M465.002 700.11C464.026 699.547 463.576 698.084 463.576 695.757C463.576 694.256 464.026 692.83 464.965 691.479C465.94 690.09 467.104 689.19 468.492 688.852C468.642 694.293 468.717 697.22 468.717 697.558C468.717 698.834 468.492 699.697 468.042 700.11H465.002V700.11ZM474.684 700.11L474.609 690.541C474.609 689.002 474.722 687.801 474.947 686.938H475.022C477.161 686.938 478.887 687.576 480.201 688.814C481.552 690.053 482.19 691.666 482.19 693.655C482.19 695.532 481.627 697.07 480.463 698.271C479.3 699.51 477.836 700.148 475.998 700.148H474.684V700.11ZM485.867 684.424C482.94 681.872 479.337 680.596 474.984 680.596C471.307 680.596 469.468 681.609 469.468 683.598C469.468 683.861 469.505 684.236 469.618 684.686C466.015 684.874 463.051 686 460.761 687.989C458.435 690.053 457.271 692.642 457.271 695.757C457.271 697.295 457.609 698.759 458.322 700.073H454.307V706.527H476.373C480.726 706.527 484.216 705.439 486.843 703.225C489.432 701.048 490.746 698.196 490.746 694.669C490.746 690.653 489.132 687.238 485.867 684.424ZM445.901 709.717C444.85 709.717 443.949 710.092 443.199 710.805C442.448 711.518 442.11 712.382 442.11 713.432C442.11 714.37 442.411 715.121 443.011 715.721C443.611 716.284 444.399 716.585 445.338 716.585C446.464 716.585 447.402 716.209 448.152 715.496C448.903 714.783 449.241 713.883 449.241 712.794C449.241 711.894 448.94 711.181 448.302 710.58C447.702 710.017 446.914 709.717 445.901 709.717ZM436.969 709.717C435.881 709.717 434.98 710.092 434.23 710.805C433.479 711.518 433.141 712.382 433.141 713.432C433.141 714.37 433.442 715.121 434.042 715.721C434.642 716.284 435.393 716.585 436.331 716.585C437.457 716.585 438.395 716.209 439.183 715.496C439.934 714.783 440.309 713.883 440.309 712.794C440.309 711.894 440.009 711.181 439.371 710.58C438.695 710.017 437.907 709.717 436.969 709.717ZM455.47 706.527V700.073H446.989C446.426 700.073 445.901 699.772 445.45 699.134C444.962 698.459 444.662 697.596 444.625 696.582L444.55 688.326C444.55 685.474 444.85 683.523 445.45 682.547C444.024 681.421 442.335 680.858 440.384 680.858C439.258 680.858 438.358 681.159 437.72 681.834C437.082 682.472 436.744 683.373 436.744 684.499C436.744 685.324 436.781 687.201 436.857 690.165C436.969 693.843 437.007 695.907 437.007 696.357C437.007 697.708 436.819 698.647 436.481 699.209C436.106 699.772 435.506 700.073 434.605 700.073H429.651V706.527H438.658C440.647 706.527 442.148 705.964 443.199 704.839C443.987 705.964 445.263 706.527 447.026 706.527H455.47ZM430.815 706.527V700.073H422.333C421.771 700.073 421.245 699.772 420.795 699.134C420.307 698.459 420.044 697.596 420.007 696.582L419.932 688.326C419.932 685.474 420.232 683.523 420.832 682.547C419.406 681.421 417.718 680.858 415.766 680.858C414.64 680.858 413.74 681.159 413.102 681.834C412.464 682.472 412.126 683.373 412.126 684.499C412.126 685.324 412.163 687.201 412.239 690.165C412.351 693.843 412.389 695.907 412.389 696.357C412.389 697.708 412.201 698.647 411.863 699.209C411.488 699.772 410.888 700.073 409.987 700.073H405.033V706.527H414.002C415.991 706.527 417.492 705.964 418.543 704.839C419.331 705.964 420.607 706.527 422.371 706.527H430.815ZM420.007 676.881C420.382 676.918 420.72 677.068 420.982 677.331C421.395 676.806 421.583 676.13 421.583 675.267C421.583 674.516 421.057 674.141 420.044 674.104H416.704C415.316 673.841 414.64 673.053 414.64 671.702C414.64 670.989 414.865 670.463 415.278 670.013C415.691 669.563 416.216 669.338 416.892 669.338C417.192 669.338 417.567 669.413 417.943 669.525V669.6C418.018 669.901 418.018 670.201 417.905 670.426C417.793 670.651 417.68 670.801 417.492 670.801C417.943 671.101 418.543 671.252 419.294 671.252C420.194 671.252 420.682 670.801 420.757 669.938C420.832 669.15 420.645 668.55 420.232 668.099C419.481 667.349 418.318 666.973 416.779 666.973C415.166 666.973 413.89 667.386 412.877 668.174C411.901 669 411.413 670.051 411.413 671.364C411.413 672.377 411.713 673.316 412.351 674.179H410.587C410.25 674.141 409.949 673.991 409.724 673.766C409.311 674.291 409.124 674.817 409.124 675.38C409.124 675.792 409.274 676.13 409.499 676.43C409.762 676.768 410.137 676.956 410.55 676.956H420.007V676.881ZM390.398 700.11C386.983 700.11 385.294 698.496 385.294 695.231C385.294 693.505 386.044 691.741 387.546 689.903C389.047 688.064 390.735 686.938 392.574 686.488L392.837 697.408C392.799 699.209 392.011 700.11 390.398 700.11ZM406.347 706.527V700.073H402.857C402.256 700.035 401.731 699.697 401.243 699.022C400.718 698.309 400.455 697.408 400.455 696.32C400.455 696.207 400.455 696.095 400.417 696.057L400.342 687.989C400.342 685.249 400.643 683.41 401.243 682.472C399.817 681.421 398.166 680.896 396.177 680.896C390.585 680.746 386.232 681.984 383.08 684.611C379.965 687.126 378.351 690.653 378.201 695.231C378.089 698.346 379.064 700.973 381.091 703.112C383.305 705.364 386.27 706.527 390.022 706.527H392.874C395.314 706.527 397.265 705.852 398.691 704.463C399.442 705.814 400.83 706.49 402.782 706.527H406.347V706.527ZM397.453 676.956C398.579 676.956 399.517 676.58 400.267 675.867C401.018 675.154 401.393 674.254 401.393 673.165C401.393 672.302 401.093 671.552 400.455 670.951C399.817 670.351 399.029 670.051 398.053 670.051C397.002 670.051 396.102 670.388 395.351 671.139C394.601 671.852 394.225 672.753 394.225 673.803C394.225 674.742 394.526 675.492 395.126 676.093C395.727 676.655 396.515 676.956 397.453 676.956ZM388.409 676.956C389.534 676.956 390.473 676.58 391.261 675.867C392.011 675.154 392.349 674.254 392.349 673.165C392.349 672.302 392.049 671.552 391.411 670.951C390.773 670.351 389.947 670.051 388.972 670.051C387.883 670.051 386.983 670.388 386.27 671.139C385.519 671.852 385.181 672.753 385.181 673.803C385.181 674.742 385.482 675.492 386.082 676.093C386.682 676.655 387.47 676.956 388.409 676.956ZM361.689 672.64C361.689 669.75 361.989 667.837 362.59 666.861C361.201 665.735 359.513 665.172 357.561 665.172C356.398 665.172 355.497 665.51 354.822 666.148C354.146 666.786 353.846 667.686 353.846 668.812C353.846 669.938 353.921 674.929 354.071 683.823L354.259 699.022C354.259 701.874 353.959 703.825 353.358 704.801C354.784 705.927 356.473 706.49 358.424 706.49C359.55 706.49 360.451 706.152 361.126 705.514C361.764 704.876 362.102 703.975 362.102 702.85L361.914 687.839C361.764 678.945 361.689 673.878 361.689 672.64ZM328.365 716.697C326.976 716.472 326.263 715.646 326.263 714.258C326.263 713.582 326.489 713.019 326.901 712.607C327.352 712.156 327.915 711.931 328.59 711.931C328.853 711.931 329.19 711.969 329.641 712.081V712.156C329.716 712.494 329.678 712.757 329.566 713.019C329.453 713.245 329.341 713.357 329.19 713.357C329.641 713.657 330.241 713.845 330.992 713.845C331.892 713.845 332.418 713.395 332.493 712.494C332.568 711.706 332.38 711.068 331.93 710.655C331.179 709.867 330.054 709.492 328.477 709.492C326.864 709.492 325.55 709.905 324.575 710.73C323.599 711.556 323.111 712.607 323.111 713.92C323.111 714.933 323.411 715.872 324.049 716.735H322.285C321.985 716.697 321.685 716.585 321.422 716.359C321.01 716.885 320.822 717.41 320.822 717.973C320.822 718.348 320.934 718.686 321.197 719.024C321.46 719.362 321.835 719.549 322.248 719.587V719.624L331.78 719.587C332.118 719.624 332.418 719.774 332.718 720C333.131 719.474 333.318 718.799 333.318 717.936C333.318 717.185 332.793 716.81 331.817 716.772H328.365V716.697ZM349.568 666.936C348.179 665.848 346.491 665.285 344.539 665.285C343.413 665.285 342.513 665.622 341.837 666.26C341.162 666.898 340.862 667.761 340.862 668.85C340.862 670.276 340.899 674.779 340.974 682.36L341.124 696.395C341.124 697.708 340.937 698.647 340.599 699.209C340.224 699.772 339.586 700.073 338.722 700.073H332.005L331.667 678.682C331.667 675.83 331.968 673.878 332.568 672.903C331.217 671.814 329.528 671.252 327.502 671.252C326.376 671.252 325.475 671.589 324.8 672.19C324.162 672.865 323.824 673.766 323.824 674.854C323.824 675.83 323.899 679.658 324.049 686.413C324.162 693.655 324.237 697.558 324.237 698.196C324.237 698.646 324.199 699.247 324.162 700.035H319.734C318.833 699.997 317.97 699.66 317.182 698.947C316.131 700.335 315.606 701.799 315.606 703.3C315.606 705.289 316.994 706.34 319.771 706.452H342.775C346.791 706.452 348.78 704.238 348.78 699.847L348.667 672.64C348.63 669.826 348.93 667.912 349.568 666.936ZM299.957 700.11C298.268 699.81 296.917 699.059 295.904 697.896C294.853 696.733 294.365 695.269 294.365 693.58C294.365 691.741 294.928 690.203 296.091 689.039C297.255 687.876 298.718 687.313 300.557 687.313C301.458 687.313 302.433 687.463 303.409 687.801V687.876C303.559 688.739 303.522 689.49 303.259 690.165C302.996 690.803 302.621 691.104 302.171 691.104C303.372 691.929 305.023 692.342 307.049 692.342C309.451 692.342 310.765 691.141 310.99 688.739C311.177 686.6 310.727 684.949 309.564 683.823C307.462 681.759 304.347 680.708 300.257 680.708C295.904 680.708 292.414 681.797 289.787 683.973C287.16 686.15 285.884 689.002 285.884 692.53C285.884 695.307 286.71 697.821 288.323 700.11H280.217V706.565H309.038C310.014 706.602 310.84 706.978 311.59 707.653C312.678 706.227 313.204 704.801 313.204 703.3C313.204 701.311 311.815 700.26 309.038 700.11H299.957ZM297.893 677.331C298.981 677.331 299.919 676.993 300.632 676.243C301.383 675.492 301.758 674.629 301.758 673.541C301.758 672.678 301.458 671.927 300.82 671.327C300.182 670.726 299.394 670.426 298.418 670.426C297.367 670.426 296.467 670.801 295.716 671.514C294.966 672.227 294.628 673.09 294.628 674.141C294.628 675.079 294.928 675.83 295.528 676.43C296.129 677.031 296.917 677.331 297.893 677.331ZM281.944 706.527V700.073H275.451C274.551 700.073 273.913 699.772 273.575 699.209C273.2 698.647 273.05 697.708 273.05 696.395L273.125 672.602C273.125 669.713 273.425 667.799 274.025 666.823C272.599 665.697 270.91 665.135 268.959 665.135C267.833 665.135 266.933 665.472 266.257 666.11C265.619 666.748 265.281 667.649 265.281 668.775L265.432 682.735C265.394 687.501 265.394 693.205 265.394 699.922C265.394 704.313 267.383 706.527 271.436 706.527H281.944V706.527ZM252.222 680.896C251.096 680.896 250.195 681.234 249.52 681.872C248.882 682.51 248.544 683.41 248.544 684.536C248.544 685.362 248.582 687.238 248.657 690.203C248.769 693.881 248.807 695.945 248.807 696.395C248.807 697.746 248.619 698.684 248.282 699.247C247.906 699.81 247.306 700.11 246.405 700.11H241.414V706.565H250.421C254.436 706.565 256.462 704.388 256.462 699.997L256.387 688.364C256.387 685.474 256.688 683.56 257.288 682.585C255.862 681.459 254.173 680.896 252.222 680.896ZM257.1 676.993C258.226 676.993 259.164 676.618 259.915 675.905C260.666 675.192 261.041 674.291 261.041 673.24C261.041 672.34 260.741 671.627 260.065 671.026C259.465 670.426 258.639 670.088 257.663 670.088C256.613 670.088 255.712 670.463 254.961 671.214C254.211 671.927 253.873 672.79 253.873 673.841C253.873 674.779 254.173 675.53 254.774 676.093C255.374 676.693 256.125 676.993 257.1 676.993ZM248.094 676.993C249.22 676.993 250.158 676.618 250.946 675.905C251.696 675.192 252.034 674.291 252.034 673.24C252.034 672.34 251.734 671.589 251.096 670.989C250.458 670.388 249.67 670.088 248.694 670.088C247.644 670.088 246.743 670.463 245.992 671.214C245.242 671.927 244.904 672.79 244.904 673.841C244.904 674.779 245.204 675.53 245.805 676.093C246.33 676.693 247.118 676.993 248.094 676.993ZM253.01 668.775C254.136 668.775 255.074 668.437 255.824 667.686C256.575 666.973 256.95 666.073 256.95 665.022C256.95 664.159 256.65 663.408 256.012 662.808C255.374 662.207 254.586 661.907 253.61 661.907C252.56 661.907 251.659 662.282 250.908 662.995C250.158 663.709 249.783 664.572 249.783 665.622C249.783 666.523 250.083 667.274 250.683 667.874C251.284 668.474 252.034 668.775 253.01 668.775ZM226.816 700.11C223.401 700.11 221.712 698.496 221.712 695.231C221.712 693.505 222.463 691.741 223.964 689.903C225.465 688.064 227.154 686.938 228.992 686.488L229.255 697.408C229.218 699.209 228.429 700.11 226.816 700.11ZM242.765 706.527V700.073H239.275C238.674 700.035 238.149 699.697 237.661 699.022C237.136 698.309 236.873 697.408 236.873 696.32C236.873 696.207 236.873 696.095 236.836 696.057L236.761 687.989C236.761 685.249 237.061 683.41 237.661 682.472C236.235 681.421 234.546 680.896 232.595 680.896C227.003 680.746 222.613 681.984 219.498 684.611C216.383 687.126 214.77 690.653 214.619 695.231C214.507 698.346 215.445 700.973 217.509 703.112C219.723 705.364 222.688 706.527 226.441 706.527H229.293C231.732 706.527 233.683 705.852 235.109 704.463C235.86 705.814 237.248 706.49 239.2 706.527H242.765V706.527ZM233.871 676.956C234.997 676.956 235.935 676.58 236.686 675.867C237.436 675.154 237.811 674.254 237.811 673.165C237.811 672.302 237.511 671.552 236.873 670.951C236.235 670.351 235.41 670.051 234.471 670.051C233.421 670.051 232.52 670.388 231.769 671.139C231.019 671.852 230.644 672.753 230.644 673.803C230.644 674.742 230.944 675.492 231.544 676.093C232.145 676.655 232.933 676.956 233.871 676.956ZM224.827 676.956C225.953 676.956 226.891 676.58 227.679 675.867C228.429 675.154 228.767 674.254 228.767 673.165C228.767 672.302 228.467 671.552 227.829 670.951C227.191 670.351 226.403 670.051 225.427 670.051C224.339 670.051 223.438 670.388 222.725 671.139C221.975 671.852 221.6 672.753 221.6 673.803C221.6 674.742 221.9 675.492 222.5 676.093C223.101 676.655 223.889 676.956 224.827 676.956ZM198.107 672.64C198.107 669.75 198.408 667.837 199.008 666.861C197.62 665.735 195.931 665.172 193.979 665.172C192.816 665.172 191.915 665.51 191.24 666.148C190.602 666.786 190.264 667.686 190.264 668.812C190.264 669.938 190.339 674.929 190.489 683.823L190.677 699.022C190.677 701.874 190.377 703.825 189.776 704.801C191.202 705.927 192.854 706.49 194.805 706.49C195.931 706.49 196.831 706.152 197.507 705.514C198.182 704.876 198.483 703.975 198.483 702.85L198.295 687.839C198.182 678.945 198.107 673.878 198.107 672.64ZM164.783 716.697C163.395 716.472 162.682 715.646 162.682 714.258C162.682 713.582 162.907 713.019 163.32 712.607C163.77 712.156 164.333 711.931 165.008 711.931C165.271 711.931 165.609 711.969 166.059 712.081V712.156C166.134 712.494 166.097 712.757 165.984 713.019C165.871 713.245 165.759 713.357 165.609 713.357C166.059 713.657 166.659 713.845 167.41 713.845C168.311 713.845 168.836 713.395 168.911 712.494C168.986 711.706 168.799 711.068 168.348 710.655C167.598 709.867 166.472 709.492 164.933 709.492C163.32 709.492 162.006 709.905 161.03 710.73C160.055 711.556 159.567 712.607 159.567 713.92C159.567 714.933 159.867 715.872 160.505 716.735H158.741C158.403 716.697 158.141 716.585 157.878 716.359C157.465 716.885 157.278 717.41 157.278 717.973C157.278 718.348 157.39 718.686 157.653 719.024C157.916 719.362 158.291 719.549 158.704 719.587V719.624L168.236 719.587C168.573 719.624 168.874 719.774 169.174 720C169.587 719.474 169.774 718.799 169.774 717.936C169.774 717.185 169.286 716.81 168.236 716.772H164.783V716.697ZM185.986 666.936C184.598 665.848 182.909 665.285 180.92 665.285C179.794 665.285 178.893 665.622 178.218 666.26C177.542 666.898 177.242 667.761 177.242 668.85C177.242 670.276 177.28 674.779 177.355 682.36L177.505 696.395C177.505 697.708 177.317 698.647 176.979 699.209C176.604 699.772 175.966 700.073 175.103 700.073H168.386L168.048 678.682C168.048 675.83 168.348 673.878 168.949 672.903C167.598 671.814 165.909 671.252 163.882 671.252C162.757 671.252 161.856 671.589 161.18 672.19C160.542 672.865 160.205 673.766 160.205 674.854C160.205 675.83 160.28 679.658 160.43 686.413C160.542 693.655 160.618 697.558 160.618 698.196C160.618 698.646 160.58 699.247 160.542 700.035H156.114C155.214 699.997 154.35 699.66 153.562 698.947C152.512 700.335 151.986 701.799 151.986 703.3C151.986 705.289 153.375 706.34 156.152 706.452H179.156C183.172 706.452 185.16 704.238 185.16 699.847L185.048 672.64C185.048 669.826 185.348 667.912 185.986 666.936ZM149.622 682.585C148.271 681.496 146.582 680.934 144.556 680.934C143.43 680.934 142.529 681.271 141.891 681.909C141.253 682.547 140.916 683.448 140.916 684.536C140.916 685.362 140.953 687.238 141.028 690.203C141.141 693.881 141.178 695.945 141.178 696.395C141.178 697.708 140.991 698.647 140.653 699.209C140.278 699.772 139.677 700.073 138.777 700.073H133.823V706.527H142.83C146.845 706.527 148.834 704.351 148.834 699.96L148.759 688.364C148.721 685.512 149.022 683.56 149.622 682.585ZM144.631 675.68C145.757 675.68 146.695 675.304 147.445 674.591C148.196 673.841 148.571 672.978 148.571 671.889C148.571 671.026 148.271 670.276 147.633 669.675C146.995 669.075 146.207 668.775 145.231 668.775C144.143 668.775 143.242 669.15 142.529 669.863C141.779 670.576 141.441 671.439 141.441 672.49C141.441 673.428 141.741 674.179 142.342 674.779C142.942 675.38 143.693 675.68 144.631 675.68ZM134.986 706.527V700.073H131.534C130.971 700.073 130.446 699.735 129.958 699.097C129.432 698.346 129.17 697.446 129.17 696.395C129.17 696.245 129.132 696.095 129.095 695.945C129.02 692.229 129.02 690.053 129.02 689.377C129.02 685.887 129.32 683.636 129.92 682.66C128.719 681.572 126.88 681.009 124.441 681.009C122.302 681.009 121.251 682.209 121.251 684.611L121.401 690.278C121.477 693.243 121.514 695.307 121.514 696.47C121.514 697.783 121.326 698.722 120.989 699.284C120.613 699.847 119.975 700.11 119.112 700.11C117.986 700.11 117.198 699.997 116.748 699.735C116.11 699.397 115.735 698.722 115.66 697.708L115.585 689.377C115.585 686.863 115.885 685.137 116.485 684.161C115.284 683.073 113.446 682.547 111.006 682.547C108.905 682.547 107.854 683.748 107.854 686.112L108.004 691.028C108.079 693.543 108.117 695.382 108.117 696.507C108.117 697.821 107.929 698.759 107.591 699.322C107.216 699.885 106.616 700.148 105.715 700.148C104.627 700.148 103.876 700.035 103.426 699.81C102.788 699.51 102.413 698.909 102.3 698.009L102.225 694.481C102.225 693.318 102.187 692.154 102.187 690.953C102.187 688.739 102.488 687.163 103.088 686.187C101.737 685.062 100.048 684.499 98.0594 684.499C96.9336 684.499 96.033 684.799 95.3575 685.437C94.7195 686.112 94.3817 686.975 94.3817 688.101C94.3817 688.552 94.4568 689.828 94.5694 691.967C94.682 694.406 94.7195 695.869 94.7195 696.432C94.7195 697.746 94.5319 698.684 94.1941 699.247C93.8188 699.81 93.2184 700.073 92.3177 700.073H86.8763V706.527H96.2956C98.6223 706.527 100.349 705.326 101.399 702.925C102.9 705.326 105.677 706.527 109.73 706.527C112.432 706.527 114.234 705.476 115.097 703.337C116.635 705.476 119.337 706.527 123.128 706.527C125.229 706.527 126.805 705.889 127.819 704.576C128.719 705.889 129.958 706.527 131.496 706.527H134.986V706.527ZM88.6401 706.527V700.073H82.1854C81.2847 700.073 80.6467 699.772 80.309 699.209C79.9337 698.647 79.7836 697.708 79.7836 696.395L79.8587 672.602C79.8587 669.713 80.1589 667.799 80.7593 666.823C79.3333 665.697 77.6445 665.135 75.6931 665.135C74.5673 665.135 73.6666 665.472 72.9912 666.11C72.3157 666.748 72.0154 667.649 72.0154 668.775L72.1655 682.735C72.128 687.501 72.128 693.205 72.128 699.922C72.128 704.313 74.1545 706.527 78.1699 706.527H88.6401V706.527ZM67.6998 682.585C66.3488 681.496 64.6601 680.934 62.6336 680.934C61.5078 680.934 60.6071 681.271 59.9692 681.909C59.2937 682.547 58.9934 683.448 58.9934 684.536C58.9934 685.362 59.031 687.238 59.106 690.203C59.2186 693.881 59.2561 695.945 59.2561 696.395C59.2561 697.708 59.0685 698.647 58.7308 699.209C58.3555 699.772 57.755 700.073 56.8544 700.073H51.9008V706.527H60.9073C64.9228 706.527 66.9117 704.351 66.9117 699.96L66.8367 688.364C66.7991 685.512 67.0994 683.56 67.6998 682.585ZM62.7462 675.68C63.872 675.68 64.8102 675.304 65.5607 674.591C66.3113 673.841 66.649 672.978 66.649 671.889C66.649 671.026 66.3488 670.276 65.7108 669.675C65.0729 669.075 64.2848 668.775 63.3091 668.775C62.2208 668.775 61.3577 669.15 60.6071 669.863C59.8566 670.576 59.5188 671.439 59.5188 672.49C59.5188 673.428 59.8191 674.179 60.4195 674.779C61.0199 675.38 61.808 675.68 62.7462 675.68ZM43.5322 709.717C42.4814 709.717 41.5807 710.092 40.8302 710.805C40.0797 711.518 39.7419 712.382 39.7419 713.432C39.7419 714.37 40.0421 715.121 40.6426 715.721C41.243 716.284 42.0311 716.585 42.9693 716.585C44.0951 716.585 45.0333 716.209 45.7838 715.496C46.5344 714.783 46.8721 713.883 46.8721 712.794C46.8721 711.894 46.5719 711.181 45.9339 710.58C45.371 710.017 44.5454 709.717 43.5322 709.717ZM34.6007 709.717C33.5124 709.717 32.6117 710.092 31.8987 710.805C31.1481 711.518 30.8104 712.382 30.8104 713.432C30.8104 714.37 31.1106 715.121 31.7111 715.721C32.3115 716.284 33.062 716.585 34.0002 716.585C35.126 716.585 36.0642 716.209 36.8523 715.496C37.6028 714.783 37.9406 713.883 37.9406 712.794C37.9406 711.894 37.6404 711.181 37.0024 710.58C36.3269 710.017 35.5388 709.717 34.6007 709.717ZM53.1016 706.527V700.073H44.6205C44.0576 700.073 43.5322 699.772 43.0818 699.134C42.594 698.459 42.3313 697.596 42.2562 696.582L42.1812 688.326C42.1812 685.474 42.4814 683.523 43.0818 682.547C41.6558 681.421 39.9671 680.858 38.0157 680.858C36.8898 680.858 35.9892 681.159 35.3512 681.834C34.6757 682.472 34.3755 683.373 34.3755 684.499C34.3755 685.324 34.413 687.201 34.4881 690.165C34.6007 693.843 34.6382 695.907 34.6382 696.357C34.6382 697.708 34.4506 698.647 34.1128 699.209C33.7375 699.772 33.1371 700.073 32.2364 700.073H27.2828V706.527H36.2894C38.2783 706.527 39.7794 705.964 40.8302 704.839C41.6183 705.964 42.8942 706.527 44.658 706.527H53.1016ZM12.6847 700.11C9.26969 700.11 7.58096 698.496 7.58096 695.231C7.58096 693.505 8.3315 691.741 9.8326 689.903C11.3337 688.064 13.0224 686.938 14.8613 686.488L15.124 697.408C15.0864 699.209 14.2984 700.11 12.6847 700.11ZM28.6338 706.527V700.073H25.1062C24.5058 700.035 23.9804 699.697 23.4926 699.022C22.9672 698.309 22.7045 697.408 22.7045 696.32C22.7045 696.207 22.7045 696.095 22.667 696.057L22.5919 687.989C22.5919 685.249 22.8921 683.41 23.4926 682.472C22.0665 681.421 20.3778 680.896 18.4264 680.896C12.8348 680.746 8.48161 681.984 5.32931 684.611C2.21454 687.126 0.600866 690.653 0.450757 695.231C0.338175 698.346 1.31389 700.973 3.34036 703.112C5.55448 705.364 8.51914 706.527 12.2719 706.527H15.124C17.5632 706.527 19.5147 705.852 20.9407 704.463C21.6912 705.814 23.0422 706.49 25.0312 706.527H28.6338V706.527ZM19.7398 676.956C20.8656 676.956 21.8038 676.58 22.5544 675.867C23.3049 675.154 23.6427 674.254 23.6427 673.165C23.6427 672.302 23.3425 671.552 22.7045 670.951C22.0665 670.351 21.2784 670.051 20.3027 670.051C19.252 670.051 18.3513 670.388 17.6008 671.139C16.8502 671.852 16.4749 672.753 16.4749 673.803C16.4749 674.742 16.7752 675.492 17.3756 676.093C18.0136 676.655 18.8016 676.956 19.7398 676.956ZM10.6957 676.956C11.8215 676.956 12.7597 676.58 13.5478 675.867C14.2984 675.154 14.6361 674.254 14.6361 673.165C14.6361 672.302 14.3359 671.552 13.6979 670.951C13.06 670.351 12.2719 670.051 11.2962 670.051C10.2079 670.051 9.30721 670.388 8.59419 671.139C7.84365 671.852 7.5059 672.753 7.5059 673.803C7.5059 674.742 7.80612 675.492 8.40656 676.093C8.96947 676.655 9.75754 676.956 10.6957 676.956Z" fill="#9F9745"/>
</svg>
